%TF.GenerationSoftware,KiCad,Pcbnew,7.0.8*%
%TF.CreationDate,2023-11-12T18:19:46+02:00*%
%TF.ProjectId,PicoDrive,5069636f-4472-4697-9665-2e6b69636164,rev?*%
%TF.SameCoordinates,PX55854f8PY4548d10*%
%TF.FileFunction,Copper,L1,Top*%
%TF.FilePolarity,Positive*%
%FSLAX46Y46*%
G04 Gerber Fmt 4.6, Leading zero omitted, Abs format (unit mm)*
G04 Created by KiCad (PCBNEW 7.0.8) date 2023-11-12 18:19:46*
%MOMM*%
%LPD*%
G01*
G04 APERTURE LIST*
%TA.AperFunction,ComponentPad*%
%ADD10R,2.000000X2.000000*%
%TD*%
%TA.AperFunction,ComponentPad*%
%ADD11C,2.000000*%
%TD*%
%TA.AperFunction,ComponentPad*%
%ADD12O,1.700000X1.700000*%
%TD*%
%TA.AperFunction,SMDPad,CuDef*%
%ADD13R,1.700000X3.500000*%
%TD*%
%TA.AperFunction,ComponentPad*%
%ADD14R,1.700000X1.700000*%
%TD*%
%TA.AperFunction,SMDPad,CuDef*%
%ADD15R,3.500000X1.700000*%
%TD*%
%TA.AperFunction,ComponentPad*%
%ADD16C,1.400000*%
%TD*%
%TA.AperFunction,ComponentPad*%
%ADD17O,1.400000X1.400000*%
%TD*%
%TA.AperFunction,ComponentPad*%
%ADD18R,1.600000X1.600000*%
%TD*%
%TA.AperFunction,ComponentPad*%
%ADD19O,1.600000X1.600000*%
%TD*%
%TA.AperFunction,ComponentPad*%
%ADD20R,1.800000X1.800000*%
%TD*%
%TA.AperFunction,ComponentPad*%
%ADD21C,1.800000*%
%TD*%
%TA.AperFunction,SMDPad,CuDef*%
%ADD22R,1.600000X0.700000*%
%TD*%
%TA.AperFunction,SMDPad,CuDef*%
%ADD23R,1.400000X1.600000*%
%TD*%
%TA.AperFunction,SMDPad,CuDef*%
%ADD24R,2.200000X1.200000*%
%TD*%
%TA.AperFunction,SMDPad,CuDef*%
%ADD25R,1.400000X1.200000*%
%TD*%
%TA.AperFunction,ComponentPad*%
%ADD26O,1.600000X1.200000*%
%TD*%
%TA.AperFunction,ComponentPad*%
%ADD27O,1.200000X1.200000*%
%TD*%
%TA.AperFunction,ComponentPad*%
%ADD28C,2.100000*%
%TD*%
%TA.AperFunction,ComponentPad*%
%ADD29C,1.750000*%
%TD*%
%TA.AperFunction,ComponentPad*%
%ADD30R,2.500000X1.500000*%
%TD*%
%TA.AperFunction,ComponentPad*%
%ADD31O,2.500000X1.500000*%
%TD*%
%TA.AperFunction,ViaPad*%
%ADD32C,4.000000*%
%TD*%
%TA.AperFunction,ViaPad*%
%ADD33C,0.800000*%
%TD*%
%TA.AperFunction,Conductor*%
%ADD34C,0.250000*%
%TD*%
%TA.AperFunction,Conductor*%
%ADD35C,1.000000*%
%TD*%
G04 APERTURE END LIST*
D10*
%TO.P,BZ1,1,-*%
%TO.N,Net-(BZ1--)*%
X49300000Y-39800000D03*
D11*
%TO.P,BZ1,2,+*%
%TO.N,/GND*%
X49300000Y-47400000D03*
%TD*%
D12*
%TO.P,U1,1,GPIO0*%
%TO.N,Net-(D1-A)*%
X71295000Y-5670000D03*
D13*
X71295000Y-4770000D03*
D12*
%TO.P,U1,2,GPIO1*%
%TO.N,Net-(D2-A)*%
X68755000Y-5670000D03*
D13*
X68755000Y-4770000D03*
D14*
%TO.P,U1,3,GND*%
%TO.N,unconnected-(U1-GND-Pad3)*%
X66215000Y-5670000D03*
D13*
X66215000Y-4770000D03*
D12*
%TO.P,U1,4,GPIO2*%
%TO.N,Net-(D15-A)*%
X63675000Y-5670000D03*
D13*
X63675000Y-4770000D03*
D12*
%TO.P,U1,5,GPIO3*%
%TO.N,Net-(D14-A)*%
X61135000Y-5670000D03*
D13*
X61135000Y-4770000D03*
D12*
%TO.P,U1,6,GPIO4*%
%TO.N,Net-(U1-GPIO4)*%
X58595000Y-5670000D03*
D13*
X58595000Y-4770000D03*
D12*
%TO.P,U1,7,GPIO5*%
%TO.N,Net-(D12-A)*%
X56055000Y-5670000D03*
D13*
X56055000Y-4770000D03*
D14*
%TO.P,U1,8,GND*%
%TO.N,unconnected-(U1-GND-Pad8)*%
X53515000Y-5670000D03*
D13*
X53515000Y-4770000D03*
D12*
%TO.P,U1,9,GPIO6*%
%TO.N,Net-(U1-GPIO6)*%
X50975000Y-5670000D03*
D13*
X50975000Y-4770000D03*
D12*
%TO.P,U1,10,GPIO7*%
%TO.N,unconnected-(U1-GPIO7-Pad10)*%
X48435000Y-5670000D03*
D13*
X48435000Y-4770000D03*
D12*
%TO.P,U1,11,GPIO8*%
%TO.N,Net-(U1-GPIO8)*%
X45895000Y-5670000D03*
D13*
X45895000Y-4770000D03*
D12*
%TO.P,U1,12,GPIO9*%
%TO.N,Net-(U1-GPIO9)*%
X43355000Y-5670000D03*
D13*
X43355000Y-4770000D03*
D14*
%TO.P,U1,13,GND*%
%TO.N,unconnected-(U1-GND-Pad13)*%
X40815000Y-5670000D03*
D13*
X40815000Y-4770000D03*
D12*
%TO.P,U1,14,GPIO10*%
%TO.N,Net-(U1-GPIO10)*%
X38275000Y-5670000D03*
D13*
X38275000Y-4770000D03*
D12*
%TO.P,U1,15,GPIO11*%
%TO.N,Net-(U1-GPIO11)*%
X35735000Y-5670000D03*
D13*
X35735000Y-4770000D03*
D12*
%TO.P,U1,16,GPIO12*%
%TO.N,Net-(U1-GPIO12)*%
X33195000Y-5670000D03*
D13*
X33195000Y-4770000D03*
D12*
%TO.P,U1,17,GPIO13*%
%TO.N,Net-(U1-GPIO13)*%
X30655000Y-5670000D03*
D13*
X30655000Y-4770000D03*
D14*
%TO.P,U1,18,GND*%
%TO.N,/GND*%
X28115000Y-5670000D03*
D13*
X28115000Y-4770000D03*
D12*
%TO.P,U1,19,GPIO14*%
%TO.N,Net-(U1-GPIO14)*%
X25575000Y-5670000D03*
D13*
X25575000Y-4770000D03*
D12*
%TO.P,U1,20,GPIO15*%
%TO.N,Net-(J4-DET)*%
X23035000Y-5670000D03*
D13*
X23035000Y-4770000D03*
D12*
%TO.P,U1,21,GPIO16*%
%TO.N,/MISO*%
X23035000Y-23450000D03*
D13*
X23035000Y-24350000D03*
D12*
%TO.P,U1,22,GPIO17*%
%TO.N,/CS*%
X25575000Y-23450000D03*
D13*
X25575000Y-24350000D03*
D14*
%TO.P,U1,23,GND*%
%TO.N,unconnected-(U1-GND-Pad23)*%
X28115000Y-23450000D03*
D13*
X28115000Y-24350000D03*
D12*
%TO.P,U1,24,GPIO18*%
%TO.N,/SCK*%
X30655000Y-23450000D03*
D13*
X30655000Y-24350000D03*
D12*
%TO.P,U1,25,GPIO19*%
%TO.N,/MOSI*%
X33195000Y-23450000D03*
D13*
X33195000Y-24350000D03*
D12*
%TO.P,U1,26,GPIO20*%
%TO.N,Net-(J3-Pin_4)*%
X35735000Y-23450000D03*
D13*
X35735000Y-24350000D03*
D12*
%TO.P,U1,27,GPIO21*%
%TO.N,Net-(J3-Pin_3)*%
X38275000Y-23450000D03*
D13*
X38275000Y-24350000D03*
D14*
%TO.P,U1,28,GND*%
%TO.N,Net-(J3-Pin_1)*%
X40815000Y-23450000D03*
D13*
X40815000Y-24350000D03*
D12*
%TO.P,U1,29,GPIO22*%
%TO.N,unconnected-(U1-GPIO22-Pad29)*%
X43355000Y-23450000D03*
D13*
X43355000Y-24350000D03*
D12*
%TO.P,U1,30,RUN*%
%TO.N,Net-(U1-RUN)*%
X45895000Y-23450000D03*
D13*
X45895000Y-24350000D03*
D12*
%TO.P,U1,31,GPIO26_ADC0*%
%TO.N,unconnected-(U1-GPIO26_ADC0-Pad31)*%
X48435000Y-23450000D03*
D13*
X48435000Y-24350000D03*
D12*
%TO.P,U1,32,GPIO27_ADC1*%
%TO.N,unconnected-(U1-GPIO27_ADC1-Pad32)*%
X50975000Y-23450000D03*
D13*
X50975000Y-24350000D03*
D14*
%TO.P,U1,33,AGND*%
%TO.N,unconnected-(U1-AGND-Pad33)*%
X53515000Y-23450000D03*
D13*
X53515000Y-24350000D03*
D12*
%TO.P,U1,34,GPIO28_ADC2*%
%TO.N,Net-(BZ1--)*%
X56055000Y-23450000D03*
D13*
X56055000Y-24350000D03*
D12*
%TO.P,U1,35,ADC_VREF*%
%TO.N,unconnected-(U1-ADC_VREF-Pad35)*%
X58595000Y-23450000D03*
D13*
X58595000Y-24350000D03*
D12*
%TO.P,U1,36,3V3*%
%TO.N,unconnected-(U1-3V3-Pad36)*%
X61135000Y-23450000D03*
D13*
X61135000Y-24350000D03*
D12*
%TO.P,U1,37,3V3_EN*%
%TO.N,/VCC 3.3V*%
X63675000Y-23450000D03*
D13*
X63675000Y-24350000D03*
D14*
%TO.P,U1,38,GND*%
%TO.N,unconnected-(U1-GND-Pad38)*%
X66215000Y-23450000D03*
D13*
X66215000Y-24350000D03*
D12*
%TO.P,U1,39,VSYS*%
%TO.N,Net-(J3-Pin_2)*%
X68755000Y-23450000D03*
D13*
X68755000Y-24350000D03*
D12*
%TO.P,U1,40,VBUS*%
%TO.N,unconnected-(U1-VBUS-Pad40)*%
X71295000Y-23450000D03*
D13*
X71295000Y-24350000D03*
D12*
%TO.P,U1,41,SWCLK*%
%TO.N,unconnected-(U1-SWCLK-Pad41)*%
X23265000Y-12020000D03*
D15*
X22365000Y-12020000D03*
D14*
%TO.P,U1,42,GND*%
%TO.N,unconnected-(U1-GND-Pad42)*%
X23265000Y-14560000D03*
D15*
X22365000Y-14560000D03*
D12*
%TO.P,U1,43,SWDIO*%
%TO.N,unconnected-(U1-SWDIO-Pad43)*%
X23265000Y-17100000D03*
D15*
X22365000Y-17100000D03*
%TD*%
D14*
%TO.P,J1,1a,Pin_1a*%
%TO.N,Net-(D1-K)*%
X3435000Y-7255000D03*
D12*
%TO.P,J1,1b,Pin_1b*%
%TO.N,Net-(D2-K)*%
X5975000Y-7255000D03*
%TO.P,J1,2a,Pin_2a*%
%TO.N,Net-(D15-K)*%
X3435000Y-9795000D03*
%TO.P,J1,2b,Pin_2b*%
%TO.N,Net-(D11-K)*%
X5975000Y-9795000D03*
%TO.P,J1,3a,Pin_3a*%
%TO.N,unconnected-(J1-Pin_3a-Pad3a)*%
X3435000Y-12335000D03*
%TO.P,J1,3b,Pin_3b*%
%TO.N,unconnected-(J1-Pin_3b-Pad3b)*%
X5975000Y-12335000D03*
%TO.P,J1,4a,Pin_4a*%
%TO.N,Net-(J1-Pin_4a)*%
X3435000Y-14875000D03*
%TO.P,J1,4b,Pin_4b*%
%TO.N,Net-(J1-Pin_4b)*%
X5975000Y-14875000D03*
%TO.P,J1,5a,Pin_5a*%
%TO.N,Net-(D12-K)*%
X3435000Y-17415000D03*
%TO.P,J1,5b,Pin_5b*%
%TO.N,Net-(D14-K)*%
X5975000Y-17415000D03*
%TO.P,J1,6a,Pin_6a*%
%TO.N,/GND*%
X3435000Y-19955000D03*
%TO.P,J1,6b,Pin_6b*%
X5975000Y-19955000D03*
%TO.P,J1,7a,Pin_7a*%
X3435000Y-22495000D03*
%TO.P,J1,7b,Pin_7b*%
X5975000Y-22495000D03*
%TO.P,J1,8a,Pin_8a*%
X3435000Y-25035000D03*
%TO.P,J1,8b,Pin_8b*%
X5975000Y-25035000D03*
%TD*%
D16*
%TO.P,R22,1*%
%TO.N,Net-(Q3-B)*%
X43705000Y-9825000D03*
D17*
%TO.P,R22,2*%
%TO.N,Net-(U1-GPIO6)*%
X51325000Y-9825000D03*
%TD*%
D16*
%TO.P,R6,1*%
%TO.N,Net-(BL_LED1-A)*%
X34935000Y-15850000D03*
D17*
%TO.P,R6,2*%
%TO.N,Net-(U1-GPIO14)*%
X27315000Y-15850000D03*
%TD*%
D16*
%TO.P,R7,1*%
%TO.N,Net-(RD_LED1-A)*%
X38610000Y-12850000D03*
D17*
%TO.P,R7,2*%
%TO.N,Net-(U1-GPIO13)*%
X30990000Y-12850000D03*
%TD*%
D18*
%TO.P,D2,1,K*%
%TO.N,Net-(D2-K)*%
X9455000Y-7350000D03*
D19*
%TO.P,D2,2,A*%
%TO.N,Net-(D2-A)*%
X17075000Y-7350000D03*
%TD*%
D16*
%TO.P,R26,1*%
%TO.N,Net-(U1-GPIO4)*%
X28025000Y-35000000D03*
D17*
%TO.P,R26,2*%
%TO.N,/GND*%
X20405000Y-35000000D03*
%TD*%
D20*
%TO.P,BL_LED1,1,K*%
%TO.N,/GND*%
X55475000Y-54862500D03*
D21*
%TO.P,BL_LED1,2,A*%
%TO.N,Net-(BL_LED1-A)*%
X58015000Y-54862500D03*
%TD*%
D16*
%TO.P,R25,1*%
%TO.N,Net-(J1-Pin_4a)*%
X20330000Y-32500000D03*
D17*
%TO.P,R25,2*%
%TO.N,Net-(U1-GPIO4)*%
X27950000Y-32500000D03*
%TD*%
D20*
%TO.P,RD_LED1,1,K*%
%TO.N,/GND*%
X49775000Y-54862500D03*
D21*
%TO.P,RD_LED1,2,A*%
%TO.N,Net-(RD_LED1-A)*%
X52315000Y-54862500D03*
%TD*%
D22*
%TO.P,J4,1,DAT2*%
%TO.N,unconnected-(J4-DAT2-Pad1)*%
X60828145Y-44809968D03*
%TO.P,J4,2,DAT3/CD*%
%TO.N,/CS*%
X60828145Y-45909968D03*
%TO.P,J4,3,CMD*%
%TO.N,/MOSI*%
X60828145Y-47009968D03*
%TO.P,J4,4,VDD*%
%TO.N,/VCC 3.3V*%
X60828145Y-48109968D03*
%TO.P,J4,5,CLK*%
%TO.N,/SCK*%
X60828145Y-49209968D03*
%TO.P,J4,6,VSS*%
%TO.N,/GND*%
X60828145Y-50309968D03*
%TO.P,J4,7,DAT0*%
%TO.N,/MISO*%
X60828145Y-51409968D03*
%TO.P,J4,8,DAT1*%
%TO.N,unconnected-(J4-DAT1-Pad8)*%
X60828145Y-52509968D03*
%TO.P,J4,9,DET*%
%TO.N,Net-(J4-DET)*%
X60828145Y-53609968D03*
D23*
%TO.P,J4,10,SHIELD*%
%TO.N,/GND*%
X61328145Y-40209968D03*
D24*
%TO.P,J4,SH*%
%TO.N,N/C*%
X70928145Y-39309968D03*
X70928145Y-54809968D03*
D25*
X61328145Y-54809968D03*
%TD*%
D26*
%TO.P,Q3,1,E*%
%TO.N,/GND*%
X6200000Y-35350000D03*
D27*
%TO.P,Q3,2,B*%
%TO.N,Net-(Q3-B)*%
X8740000Y-37890000D03*
%TO.P,Q3,3,C*%
%TO.N,Net-(D11-A)*%
X11280000Y-35350000D03*
%TD*%
D18*
%TO.P,D11,1,K*%
%TO.N,Net-(D11-K)*%
X20400000Y-37775000D03*
D19*
%TO.P,D11,2,A*%
%TO.N,Net-(D11-A)*%
X28020000Y-37775000D03*
%TD*%
D18*
%TO.P,D14,1,K*%
%TO.N,Net-(D14-K)*%
X53880000Y-14875000D03*
D19*
%TO.P,D14,2,A*%
%TO.N,Net-(D14-A)*%
X61500000Y-14875000D03*
%TD*%
D14*
%TO.P,J3,1,Pin_1*%
%TO.N,Net-(J3-Pin_1)*%
X43490000Y-32075000D03*
D12*
%TO.P,J3,2,Pin_2*%
%TO.N,Net-(J3-Pin_2)*%
X40950000Y-32075000D03*
%TO.P,J3,3,Pin_3*%
%TO.N,Net-(J3-Pin_3)*%
X38410000Y-32075000D03*
%TO.P,J3,4,Pin_4*%
%TO.N,Net-(J3-Pin_4)*%
X35870000Y-32075000D03*
%TD*%
D28*
%TO.P,SW_RST1,*%
%TO.N,*%
X69647500Y-30025000D03*
X69647500Y-37035000D03*
D29*
%TO.P,SW_RST1,1,1*%
%TO.N,Net-(U1-RUN)*%
X72137500Y-31275000D03*
%TO.P,SW_RST1,2,2*%
%TO.N,/GND*%
X72137500Y-35775000D03*
%TD*%
D16*
%TO.P,R8,1*%
%TO.N,Net-(GR_LED1-A)*%
X41175000Y-9975000D03*
D17*
%TO.P,R8,2*%
%TO.N,Net-(U1-GPIO12)*%
X33555000Y-9975000D03*
%TD*%
D30*
%TO.P,U2,1,Vin*%
%TO.N,Net-(J1-Pin_4b)*%
X12952500Y-16942500D03*
D31*
%TO.P,U2,2,GND*%
%TO.N,/GND*%
X12952500Y-19482500D03*
%TO.P,U2,3,Vout*%
%TO.N,Net-(J3-Pin_2)*%
X12952500Y-22022500D03*
%TD*%
D16*
%TO.P,R21,1*%
%TO.N,Net-(J3-Pin_2)*%
X68600000Y-20100000D03*
D17*
%TO.P,R21,2*%
%TO.N,Net-(D11-A)*%
X60980000Y-20100000D03*
%TD*%
D11*
%TO.P,SW_ENT1,1,1*%
%TO.N,/GND*%
X29800000Y-53250000D03*
X23300000Y-53250000D03*
%TO.P,SW_ENT1,2,2*%
%TO.N,Net-(U1-GPIO10)*%
X29800000Y-48750000D03*
X23300000Y-48750000D03*
%TD*%
D18*
%TO.P,D15,1,K*%
%TO.N,Net-(D15-K)*%
X56380000Y-9925000D03*
D19*
%TO.P,D15,2,A*%
%TO.N,Net-(D15-A)*%
X64000000Y-9925000D03*
%TD*%
D20*
%TO.P,GR_LED1,1,K*%
%TO.N,/GND*%
X44010000Y-54887500D03*
D21*
%TO.P,GR_LED1,2,A*%
%TO.N,Net-(GR_LED1-A)*%
X46550000Y-54887500D03*
%TD*%
D18*
%TO.P,D1,1,K*%
%TO.N,Net-(D1-K)*%
X9455000Y-4075000D03*
D19*
%TO.P,D1,2,A*%
%TO.N,Net-(D1-A)*%
X17075000Y-4075000D03*
%TD*%
D11*
%TO.P,SW_NXT1,1,1*%
%TO.N,/GND*%
X19625000Y-53250000D03*
X13125000Y-53250000D03*
%TO.P,SW_NXT1,2,2*%
%TO.N,Net-(U1-GPIO9)*%
X19625000Y-48750000D03*
X13125000Y-48750000D03*
%TD*%
D18*
%TO.P,D12,1,K*%
%TO.N,Net-(D12-K)*%
X48965000Y-19050000D03*
D19*
%TO.P,D12,2,A*%
%TO.N,Net-(D12-A)*%
X56585000Y-19050000D03*
%TD*%
D11*
%TO.P,SW_PRV1,1,1*%
%TO.N,/GND*%
X9300000Y-53250000D03*
X2800000Y-53250000D03*
%TO.P,SW_PRV1,2,2*%
%TO.N,Net-(U1-GPIO8)*%
X9300000Y-48750000D03*
X2800000Y-48750000D03*
%TD*%
%TO.P,SW_BCK1,1,1*%
%TO.N,/GND*%
X39925000Y-53300000D03*
X33425000Y-53300000D03*
%TO.P,SW_BCK1,2,2*%
%TO.N,Net-(U1-GPIO11)*%
X39925000Y-48800000D03*
X33425000Y-48800000D03*
%TD*%
D32*
%TO.N,*%
X6900000Y-44325000D03*
X3025000Y-2875000D03*
X58725000Y-36075000D03*
X72275000Y-10100000D03*
D33*
%TO.N,Net-(BZ1--)*%
X56125000Y-39675000D03*
%TO.N,/GND*%
X19525000Y-7825000D03*
%TO.N,Net-(GR_LED1-A)*%
X39675000Y-41375000D03*
X46550000Y-41375000D03*
%TO.N,Net-(RD_LED1-A)*%
X44450000Y-19300000D03*
X38400000Y-19300000D03*
%TO.N,Net-(BL_LED1-A)*%
X50150000Y-16250000D03*
%TO.N,Net-(D11-K)*%
X18475000Y-30350000D03*
X9175000Y-29425000D03*
%TO.N,Net-(D11-A)*%
X52150000Y-20950000D03*
X52200000Y-36250000D03*
%TO.N,Net-(D12-K)*%
X43850000Y-38925000D03*
%TO.N,Net-(D14-K)*%
X44275000Y-18000000D03*
X44275000Y-15250000D03*
%TO.N,Net-(J1-Pin_4a)*%
X21625000Y-40375000D03*
%TO.N,/CS*%
X25600000Y-44925000D03*
%TO.N,/SCK*%
X58300000Y-49500000D03*
X58025000Y-43625000D03*
X30800000Y-43700000D03*
%TO.N,/MOSI*%
X56850000Y-47000000D03*
X56700000Y-42450000D03*
X33000000Y-42525000D03*
%TO.N,/MISO*%
X23325000Y-46050000D03*
X42875000Y-51300000D03*
X42675000Y-46875000D03*
%TO.N,Net-(J3-Pin_2)*%
X41075000Y-28027500D03*
%TO.N,/VCC 3.3V*%
X63650000Y-38550000D03*
%TO.N,Net-(J4-DET)*%
X53768476Y-37243476D03*
X58275000Y-52400000D03*
%TO.N,Net-(Q3-B)*%
X28900000Y-11275000D03*
%TO.N,Net-(U1-GPIO4)*%
X59375000Y-32200000D03*
%TO.N,Net-(U1-RUN)*%
X46225000Y-29975000D03*
%TO.N,Net-(U1-GPIO8)*%
X38225000Y-41375000D03*
X36975000Y-14700000D03*
X45175000Y-13300000D03*
%TO.N,Net-(U1-GPIO9)*%
X42900000Y-20175000D03*
X20925000Y-20900000D03*
%TD*%
D34*
%TO.N,Net-(BZ1--)*%
X49300000Y-39800000D02*
X56000000Y-39800000D01*
X56000000Y-39800000D02*
X56125000Y-39675000D01*
%TO.N,/GND*%
X61628145Y-50309968D02*
X60828145Y-50309968D01*
D35*
X55475000Y-56675000D02*
X55750000Y-56950000D01*
X55475000Y-54862500D02*
X55475000Y-56675000D01*
X19105000Y-33700000D02*
X20405000Y-35000000D01*
X12480000Y-19955000D02*
X12952500Y-19482500D01*
X61328145Y-37096855D02*
X63975000Y-34450000D01*
X7850000Y-33700000D02*
X19105000Y-33700000D01*
X28115000Y-7785000D02*
X19565000Y-7785000D01*
X28115000Y-5670000D02*
X28115000Y-7785000D01*
X70812500Y-34450000D02*
X72137500Y-35775000D01*
X55750000Y-56950000D02*
X63225000Y-56950000D01*
X5975000Y-19955000D02*
X12480000Y-19955000D01*
X61328145Y-40209968D02*
X61328145Y-37096855D01*
X72975000Y-47950000D02*
X69085169Y-47950000D01*
X69085169Y-47950000D02*
X64678346Y-52356823D01*
X72137500Y-35775000D02*
X72975000Y-36612500D01*
X64678346Y-52356823D02*
X63675000Y-52356823D01*
X6200000Y-35350000D02*
X7850000Y-33700000D01*
X19565000Y-7785000D02*
X19525000Y-7825000D01*
X72975000Y-36612500D02*
X72975000Y-47950000D01*
X64678346Y-55496654D02*
X64678346Y-52356823D01*
X63975000Y-34450000D02*
X70812500Y-34450000D01*
X63225000Y-56950000D02*
X64678346Y-55496654D01*
D34*
X63675000Y-52356823D02*
X61628145Y-50309968D01*
%TO.N,Net-(GR_LED1-A)*%
X39675000Y-41375000D02*
X46550000Y-41375000D01*
%TO.N,Net-(RD_LED1-A)*%
X44450000Y-19300000D02*
X38400000Y-19300000D01*
%TO.N,Net-(BL_LED1-A)*%
X35335000Y-16250000D02*
X34935000Y-15850000D01*
X50150000Y-16250000D02*
X35335000Y-16250000D01*
%TO.N,Net-(D11-K)*%
X9175000Y-29425000D02*
X17550000Y-29425000D01*
X17550000Y-29425000D02*
X18475000Y-30350000D01*
%TO.N,Net-(D11-A)*%
X11280000Y-35350000D02*
X14625000Y-35350000D01*
X15925000Y-36650000D02*
X26895000Y-36650000D01*
X52150000Y-20950000D02*
X60130000Y-20950000D01*
X14625000Y-35350000D02*
X15925000Y-36650000D01*
X26895000Y-36650000D02*
X28020000Y-37775000D01*
X60130000Y-20950000D02*
X60980000Y-20100000D01*
X50675000Y-37775000D02*
X52200000Y-36250000D01*
X28020000Y-37775000D02*
X50675000Y-37775000D01*
%TO.N,Net-(D12-K)*%
X13925000Y-39300000D02*
X4825000Y-39300000D01*
X2260489Y-36735489D02*
X2260489Y-18589511D01*
X2260489Y-18589511D02*
X3435000Y-17415000D01*
X13925000Y-39300000D02*
X43475000Y-39300000D01*
X43475000Y-39300000D02*
X43850000Y-38925000D01*
X4825000Y-39300000D02*
X2260489Y-36735489D01*
%TO.N,Net-(D14-K)*%
X5975000Y-17415000D02*
X6835000Y-18275000D01*
X44000000Y-18275000D02*
X44275000Y-18000000D01*
X6835000Y-18275000D02*
X44000000Y-18275000D01*
X44275000Y-15250000D02*
X44650000Y-14875000D01*
X44650000Y-14875000D02*
X53880000Y-14875000D01*
%TO.N,Net-(D15-K)*%
X54555000Y-8100000D02*
X56380000Y-9925000D01*
X8080380Y-8575000D02*
X8755380Y-9250000D01*
X30900000Y-8100000D02*
X54555000Y-8100000D01*
X8755380Y-9250000D02*
X29750000Y-9250000D01*
X29750000Y-9250000D02*
X30900000Y-8100000D01*
X4655000Y-8575000D02*
X8080380Y-8575000D01*
X3435000Y-9795000D02*
X4655000Y-8575000D01*
%TO.N,Net-(J1-Pin_4a)*%
X1810969Y-40275000D02*
X1810969Y-40360969D01*
X21625000Y-40375000D02*
X1910969Y-40375000D01*
X1910969Y-40375000D02*
X1810969Y-40275000D01*
X3435000Y-14875000D02*
X1810969Y-16499031D01*
X1810969Y-38360969D02*
X1810969Y-40275000D01*
X1810969Y-16499031D02*
X1810969Y-38360969D01*
%TO.N,/CS*%
X57300000Y-44925000D02*
X58284968Y-45909968D01*
X25600000Y-44925000D02*
X57300000Y-44925000D01*
X58284968Y-45909968D02*
X60828145Y-45909968D01*
%TO.N,/SCK*%
X58300000Y-49500000D02*
X58590032Y-49209968D01*
X58590032Y-49209968D02*
X60828145Y-49209968D01*
X57950000Y-43700000D02*
X58025000Y-43625000D01*
X30800000Y-43700000D02*
X57950000Y-43700000D01*
%TO.N,/MOSI*%
X33000000Y-42525000D02*
X56625000Y-42525000D01*
X56625000Y-42525000D02*
X56700000Y-42450000D01*
X56859968Y-47009968D02*
X60828145Y-47009968D01*
X56850000Y-47000000D02*
X56859968Y-47009968D01*
%TO.N,/MISO*%
X41850000Y-46050000D02*
X42675000Y-46875000D01*
X42875000Y-51300000D02*
X42984968Y-51409968D01*
X42984968Y-51409968D02*
X60828145Y-51409968D01*
X23325000Y-46050000D02*
X41850000Y-46050000D01*
D35*
%TO.N,Net-(J1-Pin_4b)*%
X5975000Y-14875000D02*
X10885000Y-14875000D01*
X10885000Y-14875000D02*
X12952500Y-16942500D01*
%TO.N,Net-(J3-Pin_2)*%
X16027500Y-22022500D02*
X16027500Y-28027500D01*
X68437500Y-28027500D02*
X68755000Y-27710000D01*
X12952500Y-22022500D02*
X16027500Y-22022500D01*
X68755000Y-27710000D02*
X68755000Y-23450000D01*
X16027500Y-28027500D02*
X41075000Y-28027500D01*
X41075000Y-28027500D02*
X68437500Y-28027500D01*
D34*
%TO.N,/VCC 3.3V*%
X61628145Y-48109968D02*
X63650000Y-46088113D01*
X63650000Y-46088113D02*
X63650000Y-38550000D01*
X60828145Y-48109968D02*
X61628145Y-48109968D01*
%TO.N,Net-(J4-DET)*%
X73440000Y-1190000D02*
X74975000Y-2725000D01*
X53768476Y-37243477D02*
X53768476Y-37243476D01*
X74975000Y-2725000D02*
X74975000Y-30132861D01*
X71782861Y-33325000D02*
X57686953Y-33325000D01*
X59484968Y-53609968D02*
X60828145Y-53609968D01*
X58275000Y-52400000D02*
X59484968Y-53609968D01*
X74975000Y-30132861D02*
X71782861Y-33325000D01*
X23035000Y-1190000D02*
X73440000Y-1190000D01*
X57686953Y-33325000D02*
X53768476Y-37243476D01*
X23035000Y-2085000D02*
X23035000Y-1190000D01*
X23035000Y-5670000D02*
X23035000Y-2085000D01*
%TO.N,Net-(Q3-B)*%
X28900000Y-11275000D02*
X42255000Y-11275000D01*
X42255000Y-11275000D02*
X43705000Y-9825000D01*
%TO.N,Net-(U1-GPIO4)*%
X59375000Y-32200000D02*
X56375000Y-32200000D01*
X56375000Y-32200000D02*
X53575000Y-35000000D01*
X53575000Y-35000000D02*
X28025000Y-35000000D01*
%TO.N,Net-(U1-RUN)*%
X64875000Y-29975000D02*
X66791173Y-31891173D01*
X71521327Y-31891173D02*
X72137500Y-31275000D01*
X46225000Y-29975000D02*
X64875000Y-29975000D01*
X66791173Y-31891173D02*
X71521327Y-31891173D01*
%TO.N,Net-(U1-GPIO8)*%
X43775000Y-14700000D02*
X45175000Y-13300000D01*
X16250000Y-41800000D02*
X37800000Y-41800000D01*
X36975000Y-14700000D02*
X43775000Y-14700000D01*
X37800000Y-41800000D02*
X38225000Y-41375000D01*
X9300000Y-48750000D02*
X16250000Y-41800000D01*
%TO.N,Net-(U1-GPIO9)*%
X20925000Y-20900000D02*
X42175000Y-20900000D01*
X42175000Y-20900000D02*
X42900000Y-20175000D01*
%TD*%
M02*
