M48
; DRILL file {KiCad 7.0.8} date Sun Nov 12 18:19:54 2023
; FORMAT={-:-/ absolute / metric / decimal}
; #@! TF.CreationDate,2023-11-12T18:19:54+02:00
; #@! TF.GenerationSoftware,Kicad,Pcbnew,7.0.8
; #@! TF.FileFunction,Plated,1,2,PTH
FMAT,2
METRIC
; #@! TA.AperFunction,Plated,PTH,ViaDrill
T1C0.400
; #@! TA.AperFunction,Plated,PTH,ComponentDrill
T2C0.700
; #@! TA.AperFunction,Plated,PTH,ComponentDrill
T3C0.800
; #@! TA.AperFunction,Plated,PTH,ComponentDrill
T4C0.900
; #@! TA.AperFunction,Plated,PTH,ComponentDrill
T5C0.990
; #@! TA.AperFunction,Plated,PTH,ComponentDrill
T6C1.000
; #@! TA.AperFunction,Plated,PTH,ComponentDrill
T7C1.020
; #@! TA.AperFunction,Plated,PTH,ComponentDrill
T8C1.100
; #@! TA.AperFunction,Plated,PTH,ComponentDrill
T9C1.300
; #@! TA.AperFunction,Plated,PTH,ViaDrill
T10C3.000
%
G90
G05
T1
X9.175Y-29.425
X18.475Y-30.35
X19.525Y-7.825
X20.925Y-20.9
X21.625Y-40.375
X23.325Y-46.05
X25.6Y-44.925
X28.9Y-11.275
X30.8Y-43.7
X33.0Y-42.525
X36.975Y-14.7
X38.225Y-41.375
X38.4Y-19.3
X39.675Y-41.375
X41.075Y-28.027
X42.675Y-46.875
X42.875Y-51.3
X42.9Y-20.175
X43.85Y-38.925
X44.275Y-15.25
X44.275Y-18.0
X44.45Y-19.3
X45.175Y-13.3
X46.225Y-29.975
X46.55Y-41.375
X50.15Y-16.25
X52.15Y-20.95
X52.2Y-36.25
X53.768Y-37.243
X56.125Y-39.675
X56.7Y-42.45
X56.85Y-47.0
X58.025Y-43.625
X58.275Y-52.4
X58.3Y-49.5
X59.375Y-32.2
X63.65Y-38.55
T2
X6.2Y-35.35
X8.74Y-37.89
X11.28Y-35.35
X20.33Y-32.5
X20.405Y-35.0
X27.315Y-15.85
X27.95Y-32.5
X28.025Y-35.0
X30.99Y-12.85
X33.555Y-9.975
X34.935Y-15.85
X38.61Y-12.85
X41.175Y-9.975
X43.705Y-9.825
X51.325Y-9.825
X60.98Y-20.1
X68.6Y-20.1
T3
X9.455Y-4.075
X9.455Y-7.35
X17.075Y-4.075
X17.075Y-7.35
X20.4Y-37.775
X28.02Y-37.775
X48.965Y-19.05
X53.88Y-14.875
X56.38Y-9.925
X56.585Y-19.05
X61.5Y-14.875
X64.0Y-9.925
T4
X44.01Y-54.887
X46.55Y-54.887
X49.775Y-54.862
X52.315Y-54.862
X55.475Y-54.862
X58.015Y-54.862
T5
X72.138Y-31.275
X72.138Y-35.775
T6
X3.435Y-7.255
X3.435Y-9.795
X3.435Y-12.335
X3.435Y-14.875
X3.435Y-17.415
X3.435Y-19.955
X3.435Y-22.495
X3.435Y-25.035
X5.975Y-7.255
X5.975Y-9.795
X5.975Y-12.335
X5.975Y-14.875
X5.975Y-17.415
X5.975Y-19.955
X5.975Y-22.495
X5.975Y-25.035
X12.952Y-16.942
X12.952Y-19.482
X12.952Y-22.022
X35.87Y-32.075
X38.41Y-32.075
X40.95Y-32.075
X43.49Y-32.075
X49.3Y-39.8
X49.3Y-47.4
T7
X23.035Y-5.67
X23.035Y-23.45
X23.265Y-12.02
X23.265Y-14.56
X23.265Y-17.1
X25.575Y-5.67
X25.575Y-23.45
X28.115Y-5.67
X28.115Y-23.45
X30.655Y-5.67
X30.655Y-23.45
X33.195Y-5.67
X33.195Y-23.45
X35.735Y-5.67
X35.735Y-23.45
X38.275Y-5.67
X38.275Y-23.45
X40.815Y-5.67
X40.815Y-23.45
X43.355Y-5.67
X43.355Y-23.45
X45.895Y-5.67
X45.895Y-23.45
X48.435Y-5.67
X48.435Y-23.45
X50.975Y-5.67
X50.975Y-23.45
X53.515Y-5.67
X53.515Y-23.45
X56.055Y-5.67
X56.055Y-23.45
X58.595Y-5.67
X58.595Y-23.45
X61.135Y-5.67
X61.135Y-23.45
X63.675Y-5.67
X63.675Y-23.45
X66.215Y-5.67
X66.215Y-23.45
X68.755Y-5.67
X68.755Y-23.45
X71.295Y-5.67
X71.295Y-23.45
T8
X2.8Y-48.75
X2.8Y-53.25
X9.3Y-48.75
X9.3Y-53.25
X13.125Y-48.75
X13.125Y-53.25
X19.625Y-48.75
X19.625Y-53.25
X23.3Y-48.75
X23.3Y-53.25
X29.8Y-48.75
X29.8Y-53.25
X33.425Y-48.8
X33.425Y-53.3
X39.925Y-48.8
X39.925Y-53.3
T9
X69.647Y-30.025
X69.647Y-37.035
T10
X3.025Y-2.875
X6.9Y-44.325
X58.725Y-36.075
X72.275Y-10.1
T0
M30
