%TF.GenerationSoftware,KiCad,Pcbnew,7.0.8*%
%TF.CreationDate,2024-04-12T09:27:46+03:00*%
%TF.ProjectId,PicoDrive,5069636f-4472-4697-9665-2e6b69636164,rev?*%
%TF.SameCoordinates,PX55854f8PY4548d10*%
%TF.FileFunction,Legend,Top*%
%TF.FilePolarity,Positive*%
%FSLAX46Y46*%
G04 Gerber Fmt 4.6, Leading zero omitted, Abs format (unit mm)*
G04 Created by KiCad (PCBNEW 7.0.8) date 2024-04-12 09:27:46*
%MOMM*%
%LPD*%
G01*
G04 APERTURE LIST*
%ADD10C,0.150000*%
%ADD11C,0.120000*%
G04 APERTURE END LIST*
D10*
X5711779Y-31244819D02*
X5711779Y-30244819D01*
X5711779Y-30244819D02*
X6045112Y-30959104D01*
X6045112Y-30959104D02*
X6378445Y-30244819D01*
X6378445Y-30244819D02*
X6378445Y-31244819D01*
X6807017Y-30340057D02*
X6854636Y-30292438D01*
X6854636Y-30292438D02*
X6949874Y-30244819D01*
X6949874Y-30244819D02*
X7187969Y-30244819D01*
X7187969Y-30244819D02*
X7283207Y-30292438D01*
X7283207Y-30292438D02*
X7330826Y-30340057D01*
X7330826Y-30340057D02*
X7378445Y-30435295D01*
X7378445Y-30435295D02*
X7378445Y-30530533D01*
X7378445Y-30530533D02*
X7330826Y-30673390D01*
X7330826Y-30673390D02*
X6759398Y-31244819D01*
X6759398Y-31244819D02*
X7378445Y-31244819D01*
X2811779Y-31269819D02*
X2811779Y-30269819D01*
X2811779Y-30269819D02*
X3145112Y-30984104D01*
X3145112Y-30984104D02*
X3478445Y-30269819D01*
X3478445Y-30269819D02*
X3478445Y-31269819D01*
X4478445Y-31269819D02*
X3907017Y-31269819D01*
X4192731Y-31269819D02*
X4192731Y-30269819D01*
X4192731Y-30269819D02*
X4097493Y-30412676D01*
X4097493Y-30412676D02*
X4002255Y-30507914D01*
X4002255Y-30507914D02*
X3907017Y-30555533D01*
X599819Y-29033333D02*
X1314104Y-29033333D01*
X1314104Y-29033333D02*
X1456961Y-29080952D01*
X1456961Y-29080952D02*
X1552200Y-29176190D01*
X1552200Y-29176190D02*
X1599819Y-29319047D01*
X1599819Y-29319047D02*
X1599819Y-29414285D01*
X695057Y-28604761D02*
X647438Y-28557142D01*
X647438Y-28557142D02*
X599819Y-28461904D01*
X599819Y-28461904D02*
X599819Y-28223809D01*
X599819Y-28223809D02*
X647438Y-28128571D01*
X647438Y-28128571D02*
X695057Y-28080952D01*
X695057Y-28080952D02*
X790295Y-28033333D01*
X790295Y-28033333D02*
X885533Y-28033333D01*
X885533Y-28033333D02*
X1028390Y-28080952D01*
X1028390Y-28080952D02*
X1599819Y-28652380D01*
X1599819Y-28652380D02*
X1599819Y-28033333D01*
X56431009Y-44480952D02*
X56478628Y-44338095D01*
X56478628Y-44338095D02*
X56526247Y-44290476D01*
X56526247Y-44290476D02*
X56621485Y-44242857D01*
X56621485Y-44242857D02*
X56764342Y-44242857D01*
X56764342Y-44242857D02*
X56859580Y-44290476D01*
X56859580Y-44290476D02*
X56907200Y-44338095D01*
X56907200Y-44338095D02*
X56954819Y-44433333D01*
X56954819Y-44433333D02*
X56954819Y-44814285D01*
X56954819Y-44814285D02*
X55954819Y-44814285D01*
X55954819Y-44814285D02*
X55954819Y-44480952D01*
X55954819Y-44480952D02*
X56002438Y-44385714D01*
X56002438Y-44385714D02*
X56050057Y-44338095D01*
X56050057Y-44338095D02*
X56145295Y-44290476D01*
X56145295Y-44290476D02*
X56240533Y-44290476D01*
X56240533Y-44290476D02*
X56335771Y-44338095D01*
X56335771Y-44338095D02*
X56383390Y-44385714D01*
X56383390Y-44385714D02*
X56431009Y-44480952D01*
X56431009Y-44480952D02*
X56431009Y-44814285D01*
X55954819Y-43909523D02*
X55954819Y-43242857D01*
X55954819Y-43242857D02*
X56954819Y-43909523D01*
X56954819Y-43909523D02*
X56954819Y-43242857D01*
X56954819Y-42338095D02*
X56954819Y-42909523D01*
X56954819Y-42623809D02*
X55954819Y-42623809D01*
X55954819Y-42623809D02*
X56097676Y-42719047D01*
X56097676Y-42719047D02*
X56192914Y-42814285D01*
X56192914Y-42814285D02*
X56240533Y-42909523D01*
X51913866Y-40170951D02*
X51913866Y-39409047D01*
X52294819Y-39789999D02*
X51532914Y-39789999D01*
X46794819Y-12871904D02*
X47604342Y-12871904D01*
X47604342Y-12871904D02*
X47699580Y-12824285D01*
X47699580Y-12824285D02*
X47747200Y-12776666D01*
X47747200Y-12776666D02*
X47794819Y-12681428D01*
X47794819Y-12681428D02*
X47794819Y-12490952D01*
X47794819Y-12490952D02*
X47747200Y-12395714D01*
X47747200Y-12395714D02*
X47699580Y-12348095D01*
X47699580Y-12348095D02*
X47604342Y-12300476D01*
X47604342Y-12300476D02*
X46794819Y-12300476D01*
X47794819Y-11300476D02*
X47794819Y-11871904D01*
X47794819Y-11586190D02*
X46794819Y-11586190D01*
X46794819Y-11586190D02*
X46937676Y-11681428D01*
X46937676Y-11681428D02*
X47032914Y-11776666D01*
X47032914Y-11776666D02*
X47080533Y-11871904D01*
X25184131Y-503998D02*
X25157194Y-423185D01*
X25157194Y-423185D02*
X25076381Y-342373D01*
X25076381Y-342373D02*
X24968632Y-288498D01*
X24968632Y-288498D02*
X24860882Y-288498D01*
X24860882Y-288498D02*
X24780070Y-315436D01*
X24780070Y-315436D02*
X24645383Y-396248D01*
X24645383Y-396248D02*
X24564571Y-477060D01*
X24564571Y-477060D02*
X24483758Y-611747D01*
X24483758Y-611747D02*
X24456821Y-692560D01*
X24456821Y-692560D02*
X24456821Y-800309D01*
X24456821Y-800309D02*
X24510696Y-908059D01*
X24510696Y-908059D02*
X24564571Y-961934D01*
X24564571Y-961934D02*
X24672320Y-1015808D01*
X24672320Y-1015808D02*
X24726195Y-1015808D01*
X24726195Y-1015808D02*
X24914757Y-827247D01*
X24914757Y-827247D02*
X24807007Y-719497D01*
X24914757Y-1312120D02*
X25480442Y-746434D01*
X25480442Y-746434D02*
X25695942Y-961934D01*
X25695942Y-961934D02*
X25722879Y-1042746D01*
X25722879Y-1042746D02*
X25722879Y-1096621D01*
X25722879Y-1096621D02*
X25695942Y-1177433D01*
X25695942Y-1177433D02*
X25615129Y-1258245D01*
X25615129Y-1258245D02*
X25534317Y-1285182D01*
X25534317Y-1285182D02*
X25480442Y-1285182D01*
X25480442Y-1285182D02*
X25399630Y-1258245D01*
X25399630Y-1258245D02*
X25184131Y-1042746D01*
X25776754Y-2174117D02*
X25453505Y-1850868D01*
X25615129Y-2012492D02*
X26180815Y-1446807D01*
X26180815Y-1446807D02*
X26046128Y-1473744D01*
X26046128Y-1473744D02*
X25938378Y-1473744D01*
X25938378Y-1473744D02*
X25857566Y-1446807D01*
X26638751Y-2281866D02*
X26261627Y-2658990D01*
X26719563Y-1931680D02*
X26180815Y-2201054D01*
X26180815Y-2201054D02*
X26531001Y-2551240D01*
X60674131Y-26450123D02*
X61024317Y-26800309D01*
X61024317Y-26800309D02*
X60620256Y-26827247D01*
X60620256Y-26827247D02*
X60701068Y-26908059D01*
X60701068Y-26908059D02*
X60728006Y-26988871D01*
X60728006Y-26988871D02*
X60728006Y-27042746D01*
X60728006Y-27042746D02*
X60701068Y-27123558D01*
X60701068Y-27123558D02*
X60566381Y-27258245D01*
X60566381Y-27258245D02*
X60485569Y-27285182D01*
X60485569Y-27285182D02*
X60431694Y-27285182D01*
X60431694Y-27285182D02*
X60350882Y-27258245D01*
X60350882Y-27258245D02*
X60189258Y-27096621D01*
X60189258Y-27096621D02*
X60162320Y-27015808D01*
X60162320Y-27015808D02*
X60162320Y-26961934D01*
X61185942Y-26961934D02*
X60808818Y-27716181D01*
X60808818Y-27716181D02*
X61563065Y-27339057D01*
X61697752Y-27473744D02*
X62047938Y-27823930D01*
X62047938Y-27823930D02*
X61643877Y-27850868D01*
X61643877Y-27850868D02*
X61724690Y-27931680D01*
X61724690Y-27931680D02*
X61751627Y-28012492D01*
X61751627Y-28012492D02*
X61751627Y-28066367D01*
X61751627Y-28066367D02*
X61724690Y-28147179D01*
X61724690Y-28147179D02*
X61590003Y-28281866D01*
X61590003Y-28281866D02*
X61509190Y-28308804D01*
X61509190Y-28308804D02*
X61455316Y-28308804D01*
X61455316Y-28308804D02*
X61374503Y-28281866D01*
X61374503Y-28281866D02*
X61212879Y-28120242D01*
X61212879Y-28120242D02*
X61185942Y-28039430D01*
X61185942Y-28039430D02*
X61185942Y-27985555D01*
X45773505Y-1073372D02*
X45746568Y-992560D01*
X45746568Y-992560D02*
X45665756Y-911748D01*
X45665756Y-911748D02*
X45558006Y-857873D01*
X45558006Y-857873D02*
X45450257Y-857873D01*
X45450257Y-857873D02*
X45369444Y-884810D01*
X45369444Y-884810D02*
X45234757Y-965623D01*
X45234757Y-965623D02*
X45153945Y-1046435D01*
X45153945Y-1046435D02*
X45073133Y-1181122D01*
X45073133Y-1181122D02*
X45046196Y-1261934D01*
X45046196Y-1261934D02*
X45046196Y-1369684D01*
X45046196Y-1369684D02*
X45100070Y-1477433D01*
X45100070Y-1477433D02*
X45153945Y-1531308D01*
X45153945Y-1531308D02*
X45261695Y-1585183D01*
X45261695Y-1585183D02*
X45315570Y-1585183D01*
X45315570Y-1585183D02*
X45504131Y-1396621D01*
X45504131Y-1396621D02*
X45396382Y-1288871D01*
X45504131Y-1881494D02*
X46069817Y-1315809D01*
X46069817Y-1315809D02*
X46285316Y-1531308D01*
X46285316Y-1531308D02*
X46312253Y-1612120D01*
X46312253Y-1612120D02*
X46312253Y-1665995D01*
X46312253Y-1665995D02*
X46285316Y-1746807D01*
X46285316Y-1746807D02*
X46204504Y-1827619D01*
X46204504Y-1827619D02*
X46123692Y-1854557D01*
X46123692Y-1854557D02*
X46069817Y-1854557D01*
X46069817Y-1854557D02*
X45989005Y-1827619D01*
X45989005Y-1827619D02*
X45773505Y-1612120D01*
X46473878Y-2204743D02*
X46446940Y-2123931D01*
X46446940Y-2123931D02*
X46446940Y-2070056D01*
X46446940Y-2070056D02*
X46473878Y-1989244D01*
X46473878Y-1989244D02*
X46500815Y-1962306D01*
X46500815Y-1962306D02*
X46581627Y-1935369D01*
X46581627Y-1935369D02*
X46635502Y-1935369D01*
X46635502Y-1935369D02*
X46716314Y-1962306D01*
X46716314Y-1962306D02*
X46824064Y-2070056D01*
X46824064Y-2070056D02*
X46851001Y-2150868D01*
X46851001Y-2150868D02*
X46851001Y-2204743D01*
X46851001Y-2204743D02*
X46824064Y-2285555D01*
X46824064Y-2285555D02*
X46797127Y-2312493D01*
X46797127Y-2312493D02*
X46716314Y-2339430D01*
X46716314Y-2339430D02*
X46662440Y-2339430D01*
X46662440Y-2339430D02*
X46581627Y-2312493D01*
X46581627Y-2312493D02*
X46473878Y-2204743D01*
X46473878Y-2204743D02*
X46393066Y-2177806D01*
X46393066Y-2177806D02*
X46339191Y-2177806D01*
X46339191Y-2177806D02*
X46258379Y-2204743D01*
X46258379Y-2204743D02*
X46150629Y-2312493D01*
X46150629Y-2312493D02*
X46123692Y-2393305D01*
X46123692Y-2393305D02*
X46123692Y-2447180D01*
X46123692Y-2447180D02*
X46150629Y-2527992D01*
X46150629Y-2527992D02*
X46258379Y-2635741D01*
X46258379Y-2635741D02*
X46339191Y-2662679D01*
X46339191Y-2662679D02*
X46393066Y-2662679D01*
X46393066Y-2662679D02*
X46473878Y-2635741D01*
X46473878Y-2635741D02*
X46581627Y-2527992D01*
X46581627Y-2527992D02*
X46608565Y-2447180D01*
X46608565Y-2447180D02*
X46608565Y-2393305D01*
X46608565Y-2393305D02*
X46581627Y-2312493D01*
X70637414Y-26513406D02*
X70260290Y-27267653D01*
X70260290Y-27267653D02*
X71014537Y-26890529D01*
X71122287Y-27537027D02*
X71176161Y-27644776D01*
X71176161Y-27644776D02*
X71176161Y-27698651D01*
X71176161Y-27698651D02*
X71149224Y-27779463D01*
X71149224Y-27779463D02*
X71068412Y-27860276D01*
X71068412Y-27860276D02*
X70987600Y-27887213D01*
X70987600Y-27887213D02*
X70933725Y-27887213D01*
X70933725Y-27887213D02*
X70852913Y-27860276D01*
X70852913Y-27860276D02*
X70637413Y-27644776D01*
X70637413Y-27644776D02*
X71203099Y-27079091D01*
X71203099Y-27079091D02*
X71391661Y-27267653D01*
X71391661Y-27267653D02*
X71418598Y-27348465D01*
X71418598Y-27348465D02*
X71418598Y-27402340D01*
X71418598Y-27402340D02*
X71391661Y-27483152D01*
X71391661Y-27483152D02*
X71337786Y-27537027D01*
X71337786Y-27537027D02*
X71256974Y-27563964D01*
X71256974Y-27563964D02*
X71203099Y-27563964D01*
X71203099Y-27563964D02*
X71122287Y-27537027D01*
X71122287Y-27537027D02*
X70933725Y-27348465D01*
X71768784Y-27644776D02*
X71310848Y-28102712D01*
X71310848Y-28102712D02*
X71283911Y-28183524D01*
X71283911Y-28183524D02*
X71283911Y-28237399D01*
X71283911Y-28237399D02*
X71310848Y-28318211D01*
X71310848Y-28318211D02*
X71418598Y-28425961D01*
X71418598Y-28425961D02*
X71499410Y-28452898D01*
X71499410Y-28452898D02*
X71553285Y-28452898D01*
X71553285Y-28452898D02*
X71634097Y-28425961D01*
X71634097Y-28425961D02*
X72092033Y-27968025D01*
X71795722Y-28749210D02*
X71849596Y-28856959D01*
X71849596Y-28856959D02*
X71984283Y-28991646D01*
X71984283Y-28991646D02*
X72065096Y-29018584D01*
X72065096Y-29018584D02*
X72118970Y-29018584D01*
X72118970Y-29018584D02*
X72199783Y-28991646D01*
X72199783Y-28991646D02*
X72253657Y-28937771D01*
X72253657Y-28937771D02*
X72280595Y-28856959D01*
X72280595Y-28856959D02*
X72280595Y-28803084D01*
X72280595Y-28803084D02*
X72253657Y-28722272D01*
X72253657Y-28722272D02*
X72172845Y-28587585D01*
X72172845Y-28587585D02*
X72145908Y-28506773D01*
X72145908Y-28506773D02*
X72145908Y-28452898D01*
X72145908Y-28452898D02*
X72172845Y-28372086D01*
X72172845Y-28372086D02*
X72226720Y-28318211D01*
X72226720Y-28318211D02*
X72307532Y-28291274D01*
X72307532Y-28291274D02*
X72361407Y-28291274D01*
X72361407Y-28291274D02*
X72442219Y-28318211D01*
X72442219Y-28318211D02*
X72576906Y-28452898D01*
X72576906Y-28452898D02*
X72630781Y-28560648D01*
X37874131Y-26657998D02*
X37847194Y-26577185D01*
X37847194Y-26577185D02*
X37766381Y-26496373D01*
X37766381Y-26496373D02*
X37658632Y-26442498D01*
X37658632Y-26442498D02*
X37550882Y-26442498D01*
X37550882Y-26442498D02*
X37470070Y-26469436D01*
X37470070Y-26469436D02*
X37335383Y-26550248D01*
X37335383Y-26550248D02*
X37254571Y-26631060D01*
X37254571Y-26631060D02*
X37173758Y-26765747D01*
X37173758Y-26765747D02*
X37146821Y-26846560D01*
X37146821Y-26846560D02*
X37146821Y-26954309D01*
X37146821Y-26954309D02*
X37200696Y-27062059D01*
X37200696Y-27062059D02*
X37254571Y-27115934D01*
X37254571Y-27115934D02*
X37362320Y-27169808D01*
X37362320Y-27169808D02*
X37416195Y-27169808D01*
X37416195Y-27169808D02*
X37604757Y-26981247D01*
X37604757Y-26981247D02*
X37497007Y-26873497D01*
X37604757Y-27466120D02*
X38170442Y-26900434D01*
X38170442Y-26900434D02*
X38385942Y-27115934D01*
X38385942Y-27115934D02*
X38412879Y-27196746D01*
X38412879Y-27196746D02*
X38412879Y-27250621D01*
X38412879Y-27250621D02*
X38385942Y-27331433D01*
X38385942Y-27331433D02*
X38305129Y-27412245D01*
X38305129Y-27412245D02*
X38224317Y-27439182D01*
X38224317Y-27439182D02*
X38170442Y-27439182D01*
X38170442Y-27439182D02*
X38089630Y-27412245D01*
X38089630Y-27412245D02*
X37874131Y-27196746D01*
X38655316Y-27493057D02*
X38709190Y-27493057D01*
X38709190Y-27493057D02*
X38790003Y-27519995D01*
X38790003Y-27519995D02*
X38924690Y-27654682D01*
X38924690Y-27654682D02*
X38951627Y-27735494D01*
X38951627Y-27735494D02*
X38951627Y-27789369D01*
X38951627Y-27789369D02*
X38924690Y-27870181D01*
X38924690Y-27870181D02*
X38870815Y-27924056D01*
X38870815Y-27924056D02*
X38763065Y-27977930D01*
X38763065Y-27977930D02*
X38116568Y-27977930D01*
X38116568Y-27977930D02*
X38466754Y-28328117D01*
X39005502Y-28866865D02*
X38682253Y-28543616D01*
X38843878Y-28705240D02*
X39409563Y-28139555D01*
X39409563Y-28139555D02*
X39274876Y-28166492D01*
X39274876Y-28166492D02*
X39167126Y-28166492D01*
X39167126Y-28166492D02*
X39086314Y-28139555D01*
X35344131Y-403998D02*
X35317194Y-323185D01*
X35317194Y-323185D02*
X35236381Y-242373D01*
X35236381Y-242373D02*
X35128632Y-188498D01*
X35128632Y-188498D02*
X35020882Y-188498D01*
X35020882Y-188498D02*
X34940070Y-215436D01*
X34940070Y-215436D02*
X34805383Y-296248D01*
X34805383Y-296248D02*
X34724571Y-377060D01*
X34724571Y-377060D02*
X34643758Y-511747D01*
X34643758Y-511747D02*
X34616821Y-592560D01*
X34616821Y-592560D02*
X34616821Y-700309D01*
X34616821Y-700309D02*
X34670696Y-808059D01*
X34670696Y-808059D02*
X34724571Y-861934D01*
X34724571Y-861934D02*
X34832320Y-915808D01*
X34832320Y-915808D02*
X34886195Y-915808D01*
X34886195Y-915808D02*
X35074757Y-727247D01*
X35074757Y-727247D02*
X34967007Y-619497D01*
X35074757Y-1212120D02*
X35640442Y-646434D01*
X35640442Y-646434D02*
X35855942Y-861934D01*
X35855942Y-861934D02*
X35882879Y-942746D01*
X35882879Y-942746D02*
X35882879Y-996621D01*
X35882879Y-996621D02*
X35855942Y-1077433D01*
X35855942Y-1077433D02*
X35775129Y-1158245D01*
X35775129Y-1158245D02*
X35694317Y-1185182D01*
X35694317Y-1185182D02*
X35640442Y-1185182D01*
X35640442Y-1185182D02*
X35559630Y-1158245D01*
X35559630Y-1158245D02*
X35344131Y-942746D01*
X35936754Y-2074117D02*
X35613505Y-1750868D01*
X35775129Y-1912492D02*
X36340815Y-1346807D01*
X36340815Y-1346807D02*
X36206128Y-1373744D01*
X36206128Y-1373744D02*
X36098378Y-1373744D01*
X36098378Y-1373744D02*
X36017566Y-1346807D01*
X36475502Y-2612865D02*
X36152253Y-2289616D01*
X36313878Y-2451240D02*
X36879563Y-1885555D01*
X36879563Y-1885555D02*
X36744876Y-1912492D01*
X36744876Y-1912492D02*
X36637126Y-1912492D01*
X36637126Y-1912492D02*
X36556314Y-1885555D01*
X48044131Y-26657998D02*
X48017194Y-26577185D01*
X48017194Y-26577185D02*
X47936381Y-26496373D01*
X47936381Y-26496373D02*
X47828632Y-26442498D01*
X47828632Y-26442498D02*
X47720882Y-26442498D01*
X47720882Y-26442498D02*
X47640070Y-26469436D01*
X47640070Y-26469436D02*
X47505383Y-26550248D01*
X47505383Y-26550248D02*
X47424571Y-26631060D01*
X47424571Y-26631060D02*
X47343758Y-26765747D01*
X47343758Y-26765747D02*
X47316821Y-26846560D01*
X47316821Y-26846560D02*
X47316821Y-26954309D01*
X47316821Y-26954309D02*
X47370696Y-27062059D01*
X47370696Y-27062059D02*
X47424571Y-27115934D01*
X47424571Y-27115934D02*
X47532320Y-27169808D01*
X47532320Y-27169808D02*
X47586195Y-27169808D01*
X47586195Y-27169808D02*
X47774757Y-26981247D01*
X47774757Y-26981247D02*
X47667007Y-26873497D01*
X47774757Y-27466120D02*
X48340442Y-26900434D01*
X48340442Y-26900434D02*
X48555942Y-27115934D01*
X48555942Y-27115934D02*
X48582879Y-27196746D01*
X48582879Y-27196746D02*
X48582879Y-27250621D01*
X48582879Y-27250621D02*
X48555942Y-27331433D01*
X48555942Y-27331433D02*
X48475129Y-27412245D01*
X48475129Y-27412245D02*
X48394317Y-27439182D01*
X48394317Y-27439182D02*
X48340442Y-27439182D01*
X48340442Y-27439182D02*
X48259630Y-27412245D01*
X48259630Y-27412245D02*
X48044131Y-27196746D01*
X48825316Y-27493057D02*
X48879190Y-27493057D01*
X48879190Y-27493057D02*
X48960003Y-27519995D01*
X48960003Y-27519995D02*
X49094690Y-27654682D01*
X49094690Y-27654682D02*
X49121627Y-27735494D01*
X49121627Y-27735494D02*
X49121627Y-27789369D01*
X49121627Y-27789369D02*
X49094690Y-27870181D01*
X49094690Y-27870181D02*
X49040815Y-27924056D01*
X49040815Y-27924056D02*
X48933065Y-27977930D01*
X48933065Y-27977930D02*
X48286568Y-27977930D01*
X48286568Y-27977930D02*
X48636754Y-28328117D01*
X49687313Y-28247305D02*
X49579563Y-28139555D01*
X49579563Y-28139555D02*
X49498751Y-28112618D01*
X49498751Y-28112618D02*
X49444876Y-28112618D01*
X49444876Y-28112618D02*
X49310189Y-28139555D01*
X49310189Y-28139555D02*
X49175502Y-28220367D01*
X49175502Y-28220367D02*
X48960003Y-28435866D01*
X48960003Y-28435866D02*
X48933065Y-28516679D01*
X48933065Y-28516679D02*
X48933065Y-28570553D01*
X48933065Y-28570553D02*
X48960003Y-28651366D01*
X48960003Y-28651366D02*
X49067752Y-28759115D01*
X49067752Y-28759115D02*
X49148565Y-28786053D01*
X49148565Y-28786053D02*
X49202439Y-28786053D01*
X49202439Y-28786053D02*
X49283252Y-28759115D01*
X49283252Y-28759115D02*
X49417939Y-28624428D01*
X49417939Y-28624428D02*
X49444876Y-28543616D01*
X49444876Y-28543616D02*
X49444876Y-28489741D01*
X49444876Y-28489741D02*
X49417939Y-28408929D01*
X49417939Y-28408929D02*
X49310189Y-28301179D01*
X49310189Y-28301179D02*
X49229377Y-28274242D01*
X49229377Y-28274242D02*
X49175502Y-28274242D01*
X49175502Y-28274242D02*
X49094690Y-28301179D01*
X66066568Y-26646435D02*
X66039631Y-26565623D01*
X66039631Y-26565623D02*
X65958819Y-26484811D01*
X65958819Y-26484811D02*
X65851069Y-26430936D01*
X65851069Y-26430936D02*
X65743319Y-26430936D01*
X65743319Y-26430936D02*
X65662507Y-26457873D01*
X65662507Y-26457873D02*
X65527820Y-26538685D01*
X65527820Y-26538685D02*
X65447008Y-26619498D01*
X65447008Y-26619498D02*
X65366196Y-26754185D01*
X65366196Y-26754185D02*
X65339258Y-26834997D01*
X65339258Y-26834997D02*
X65339258Y-26942746D01*
X65339258Y-26942746D02*
X65393133Y-27050496D01*
X65393133Y-27050496D02*
X65447008Y-27104371D01*
X65447008Y-27104371D02*
X65554758Y-27158246D01*
X65554758Y-27158246D02*
X65608632Y-27158246D01*
X65608632Y-27158246D02*
X65797194Y-26969684D01*
X65797194Y-26969684D02*
X65689445Y-26861934D01*
X65797194Y-27454557D02*
X66362880Y-26888872D01*
X66362880Y-26888872D02*
X66120443Y-27777806D01*
X66120443Y-27777806D02*
X66686128Y-27212120D01*
X66389817Y-28047180D02*
X66955502Y-27481494D01*
X66955502Y-27481494D02*
X67090189Y-27616181D01*
X67090189Y-27616181D02*
X67144064Y-27723931D01*
X67144064Y-27723931D02*
X67144064Y-27831680D01*
X67144064Y-27831680D02*
X67117127Y-27912493D01*
X67117127Y-27912493D02*
X67036314Y-28047180D01*
X67036314Y-28047180D02*
X66955502Y-28127992D01*
X66955502Y-28127992D02*
X66820815Y-28208804D01*
X66820815Y-28208804D02*
X66740003Y-28235741D01*
X66740003Y-28235741D02*
X66632253Y-28235741D01*
X66632253Y-28235741D02*
X66524504Y-28181867D01*
X66524504Y-28181867D02*
X66389817Y-28047180D01*
X35344131Y-26657998D02*
X35317194Y-26577185D01*
X35317194Y-26577185D02*
X35236381Y-26496373D01*
X35236381Y-26496373D02*
X35128632Y-26442498D01*
X35128632Y-26442498D02*
X35020882Y-26442498D01*
X35020882Y-26442498D02*
X34940070Y-26469436D01*
X34940070Y-26469436D02*
X34805383Y-26550248D01*
X34805383Y-26550248D02*
X34724571Y-26631060D01*
X34724571Y-26631060D02*
X34643758Y-26765747D01*
X34643758Y-26765747D02*
X34616821Y-26846560D01*
X34616821Y-26846560D02*
X34616821Y-26954309D01*
X34616821Y-26954309D02*
X34670696Y-27062059D01*
X34670696Y-27062059D02*
X34724571Y-27115934D01*
X34724571Y-27115934D02*
X34832320Y-27169808D01*
X34832320Y-27169808D02*
X34886195Y-27169808D01*
X34886195Y-27169808D02*
X35074757Y-26981247D01*
X35074757Y-26981247D02*
X34967007Y-26873497D01*
X35074757Y-27466120D02*
X35640442Y-26900434D01*
X35640442Y-26900434D02*
X35855942Y-27115934D01*
X35855942Y-27115934D02*
X35882879Y-27196746D01*
X35882879Y-27196746D02*
X35882879Y-27250621D01*
X35882879Y-27250621D02*
X35855942Y-27331433D01*
X35855942Y-27331433D02*
X35775129Y-27412245D01*
X35775129Y-27412245D02*
X35694317Y-27439182D01*
X35694317Y-27439182D02*
X35640442Y-27439182D01*
X35640442Y-27439182D02*
X35559630Y-27412245D01*
X35559630Y-27412245D02*
X35344131Y-27196746D01*
X36125316Y-27493057D02*
X36179190Y-27493057D01*
X36179190Y-27493057D02*
X36260003Y-27519995D01*
X36260003Y-27519995D02*
X36394690Y-27654682D01*
X36394690Y-27654682D02*
X36421627Y-27735494D01*
X36421627Y-27735494D02*
X36421627Y-27789369D01*
X36421627Y-27789369D02*
X36394690Y-27870181D01*
X36394690Y-27870181D02*
X36340815Y-27924056D01*
X36340815Y-27924056D02*
X36233065Y-27977930D01*
X36233065Y-27977930D02*
X35586568Y-27977930D01*
X35586568Y-27977930D02*
X35936754Y-28328117D01*
X36852626Y-28112618D02*
X36906500Y-28166492D01*
X36906500Y-28166492D02*
X36933438Y-28247305D01*
X36933438Y-28247305D02*
X36933438Y-28301179D01*
X36933438Y-28301179D02*
X36906500Y-28381992D01*
X36906500Y-28381992D02*
X36825688Y-28516679D01*
X36825688Y-28516679D02*
X36691001Y-28651366D01*
X36691001Y-28651366D02*
X36556314Y-28732178D01*
X36556314Y-28732178D02*
X36475502Y-28759115D01*
X36475502Y-28759115D02*
X36421627Y-28759115D01*
X36421627Y-28759115D02*
X36340815Y-28732178D01*
X36340815Y-28732178D02*
X36286940Y-28678303D01*
X36286940Y-28678303D02*
X36260003Y-28597491D01*
X36260003Y-28597491D02*
X36260003Y-28543616D01*
X36260003Y-28543616D02*
X36286940Y-28462804D01*
X36286940Y-28462804D02*
X36367752Y-28328117D01*
X36367752Y-28328117D02*
X36502439Y-28193430D01*
X36502439Y-28193430D02*
X36637126Y-28112618D01*
X36637126Y-28112618D02*
X36717939Y-28085680D01*
X36717939Y-28085680D02*
X36771813Y-28085680D01*
X36771813Y-28085680D02*
X36852626Y-28112618D01*
X42964131Y-26657998D02*
X42937194Y-26577185D01*
X42937194Y-26577185D02*
X42856381Y-26496373D01*
X42856381Y-26496373D02*
X42748632Y-26442498D01*
X42748632Y-26442498D02*
X42640882Y-26442498D01*
X42640882Y-26442498D02*
X42560070Y-26469436D01*
X42560070Y-26469436D02*
X42425383Y-26550248D01*
X42425383Y-26550248D02*
X42344571Y-26631060D01*
X42344571Y-26631060D02*
X42263758Y-26765747D01*
X42263758Y-26765747D02*
X42236821Y-26846560D01*
X42236821Y-26846560D02*
X42236821Y-26954309D01*
X42236821Y-26954309D02*
X42290696Y-27062059D01*
X42290696Y-27062059D02*
X42344571Y-27115934D01*
X42344571Y-27115934D02*
X42452320Y-27169808D01*
X42452320Y-27169808D02*
X42506195Y-27169808D01*
X42506195Y-27169808D02*
X42694757Y-26981247D01*
X42694757Y-26981247D02*
X42587007Y-26873497D01*
X42694757Y-27466120D02*
X43260442Y-26900434D01*
X43260442Y-26900434D02*
X43475942Y-27115934D01*
X43475942Y-27115934D02*
X43502879Y-27196746D01*
X43502879Y-27196746D02*
X43502879Y-27250621D01*
X43502879Y-27250621D02*
X43475942Y-27331433D01*
X43475942Y-27331433D02*
X43395129Y-27412245D01*
X43395129Y-27412245D02*
X43314317Y-27439182D01*
X43314317Y-27439182D02*
X43260442Y-27439182D01*
X43260442Y-27439182D02*
X43179630Y-27412245D01*
X43179630Y-27412245D02*
X42964131Y-27196746D01*
X43745316Y-27493057D02*
X43799190Y-27493057D01*
X43799190Y-27493057D02*
X43880003Y-27519995D01*
X43880003Y-27519995D02*
X44014690Y-27654682D01*
X44014690Y-27654682D02*
X44041627Y-27735494D01*
X44041627Y-27735494D02*
X44041627Y-27789369D01*
X44041627Y-27789369D02*
X44014690Y-27870181D01*
X44014690Y-27870181D02*
X43960815Y-27924056D01*
X43960815Y-27924056D02*
X43853065Y-27977930D01*
X43853065Y-27977930D02*
X43206568Y-27977930D01*
X43206568Y-27977930D02*
X43556754Y-28328117D01*
X44284064Y-28031805D02*
X44337939Y-28031805D01*
X44337939Y-28031805D02*
X44418751Y-28058743D01*
X44418751Y-28058743D02*
X44553438Y-28193430D01*
X44553438Y-28193430D02*
X44580375Y-28274242D01*
X44580375Y-28274242D02*
X44580375Y-28328117D01*
X44580375Y-28328117D02*
X44553438Y-28408929D01*
X44553438Y-28408929D02*
X44499563Y-28462804D01*
X44499563Y-28462804D02*
X44391813Y-28516679D01*
X44391813Y-28516679D02*
X43745316Y-28516679D01*
X43745316Y-28516679D02*
X44095502Y-28866865D01*
X21289200Y-21855238D02*
X21327295Y-21740952D01*
X21327295Y-21740952D02*
X21327295Y-21550476D01*
X21327295Y-21550476D02*
X21289200Y-21474285D01*
X21289200Y-21474285D02*
X21251104Y-21436190D01*
X21251104Y-21436190D02*
X21174914Y-21398095D01*
X21174914Y-21398095D02*
X21098723Y-21398095D01*
X21098723Y-21398095D02*
X21022533Y-21436190D01*
X21022533Y-21436190D02*
X20984438Y-21474285D01*
X20984438Y-21474285D02*
X20946342Y-21550476D01*
X20946342Y-21550476D02*
X20908247Y-21702857D01*
X20908247Y-21702857D02*
X20870152Y-21779047D01*
X20870152Y-21779047D02*
X20832057Y-21817142D01*
X20832057Y-21817142D02*
X20755866Y-21855238D01*
X20755866Y-21855238D02*
X20679676Y-21855238D01*
X20679676Y-21855238D02*
X20603485Y-21817142D01*
X20603485Y-21817142D02*
X20565390Y-21779047D01*
X20565390Y-21779047D02*
X20527295Y-21702857D01*
X20527295Y-21702857D02*
X20527295Y-21512380D01*
X20527295Y-21512380D02*
X20565390Y-21398095D01*
X20527295Y-21131428D02*
X21327295Y-20940952D01*
X21327295Y-20940952D02*
X20755866Y-20788571D01*
X20755866Y-20788571D02*
X21327295Y-20636190D01*
X21327295Y-20636190D02*
X20527295Y-20445714D01*
X21327295Y-20140951D02*
X20527295Y-20140951D01*
X20527295Y-20140951D02*
X20527295Y-19950475D01*
X20527295Y-19950475D02*
X20565390Y-19836189D01*
X20565390Y-19836189D02*
X20641580Y-19759999D01*
X20641580Y-19759999D02*
X20717771Y-19721904D01*
X20717771Y-19721904D02*
X20870152Y-19683808D01*
X20870152Y-19683808D02*
X20984438Y-19683808D01*
X20984438Y-19683808D02*
X21136819Y-19721904D01*
X21136819Y-19721904D02*
X21213009Y-19759999D01*
X21213009Y-19759999D02*
X21289200Y-19836189D01*
X21289200Y-19836189D02*
X21327295Y-19950475D01*
X21327295Y-19950475D02*
X21327295Y-20140951D01*
X21327295Y-19340951D02*
X20527295Y-19340951D01*
X20527295Y-18807618D02*
X20527295Y-18655237D01*
X20527295Y-18655237D02*
X20565390Y-18579047D01*
X20565390Y-18579047D02*
X20641580Y-18502856D01*
X20641580Y-18502856D02*
X20793961Y-18464761D01*
X20793961Y-18464761D02*
X21060628Y-18464761D01*
X21060628Y-18464761D02*
X21213009Y-18502856D01*
X21213009Y-18502856D02*
X21289200Y-18579047D01*
X21289200Y-18579047D02*
X21327295Y-18655237D01*
X21327295Y-18655237D02*
X21327295Y-18807618D01*
X21327295Y-18807618D02*
X21289200Y-18883809D01*
X21289200Y-18883809D02*
X21213009Y-18959999D01*
X21213009Y-18959999D02*
X21060628Y-18998095D01*
X21060628Y-18998095D02*
X20793961Y-18998095D01*
X20793961Y-18998095D02*
X20641580Y-18959999D01*
X20641580Y-18959999D02*
X20565390Y-18883809D01*
X20565390Y-18883809D02*
X20527295Y-18807618D01*
X37884131Y-549998D02*
X37857194Y-469185D01*
X37857194Y-469185D02*
X37776381Y-388373D01*
X37776381Y-388373D02*
X37668632Y-334498D01*
X37668632Y-334498D02*
X37560882Y-334498D01*
X37560882Y-334498D02*
X37480070Y-361436D01*
X37480070Y-361436D02*
X37345383Y-442248D01*
X37345383Y-442248D02*
X37264571Y-523060D01*
X37264571Y-523060D02*
X37183758Y-657747D01*
X37183758Y-657747D02*
X37156821Y-738560D01*
X37156821Y-738560D02*
X37156821Y-846309D01*
X37156821Y-846309D02*
X37210696Y-954059D01*
X37210696Y-954059D02*
X37264571Y-1007934D01*
X37264571Y-1007934D02*
X37372320Y-1061808D01*
X37372320Y-1061808D02*
X37426195Y-1061808D01*
X37426195Y-1061808D02*
X37614757Y-873247D01*
X37614757Y-873247D02*
X37507007Y-765497D01*
X37614757Y-1358120D02*
X38180442Y-792434D01*
X38180442Y-792434D02*
X38395942Y-1007934D01*
X38395942Y-1007934D02*
X38422879Y-1088746D01*
X38422879Y-1088746D02*
X38422879Y-1142621D01*
X38422879Y-1142621D02*
X38395942Y-1223433D01*
X38395942Y-1223433D02*
X38315129Y-1304245D01*
X38315129Y-1304245D02*
X38234317Y-1331182D01*
X38234317Y-1331182D02*
X38180442Y-1331182D01*
X38180442Y-1331182D02*
X38099630Y-1304245D01*
X38099630Y-1304245D02*
X37884131Y-1088746D01*
X38476754Y-2220117D02*
X38153505Y-1896868D01*
X38315129Y-2058492D02*
X38880815Y-1492807D01*
X38880815Y-1492807D02*
X38746128Y-1519744D01*
X38746128Y-1519744D02*
X38638378Y-1519744D01*
X38638378Y-1519744D02*
X38557566Y-1492807D01*
X39392626Y-2004618D02*
X39446500Y-2058492D01*
X39446500Y-2058492D02*
X39473438Y-2139305D01*
X39473438Y-2139305D02*
X39473438Y-2193179D01*
X39473438Y-2193179D02*
X39446500Y-2273992D01*
X39446500Y-2273992D02*
X39365688Y-2408679D01*
X39365688Y-2408679D02*
X39231001Y-2543366D01*
X39231001Y-2543366D02*
X39096314Y-2624178D01*
X39096314Y-2624178D02*
X39015502Y-2651115D01*
X39015502Y-2651115D02*
X38961627Y-2651115D01*
X38961627Y-2651115D02*
X38880815Y-2624178D01*
X38880815Y-2624178D02*
X38826940Y-2570303D01*
X38826940Y-2570303D02*
X38800003Y-2489491D01*
X38800003Y-2489491D02*
X38800003Y-2435616D01*
X38800003Y-2435616D02*
X38826940Y-2354804D01*
X38826940Y-2354804D02*
X38907752Y-2220117D01*
X38907752Y-2220117D02*
X39042439Y-2085430D01*
X39042439Y-2085430D02*
X39177126Y-2004618D01*
X39177126Y-2004618D02*
X39257939Y-1977680D01*
X39257939Y-1977680D02*
X39311813Y-1977680D01*
X39311813Y-1977680D02*
X39392626Y-2004618D01*
X27966568Y-1046435D02*
X27939631Y-965623D01*
X27939631Y-965623D02*
X27858819Y-884811D01*
X27858819Y-884811D02*
X27751069Y-830936D01*
X27751069Y-830936D02*
X27643319Y-830936D01*
X27643319Y-830936D02*
X27562507Y-857873D01*
X27562507Y-857873D02*
X27427820Y-938685D01*
X27427820Y-938685D02*
X27347008Y-1019498D01*
X27347008Y-1019498D02*
X27266196Y-1154185D01*
X27266196Y-1154185D02*
X27239258Y-1234997D01*
X27239258Y-1234997D02*
X27239258Y-1342746D01*
X27239258Y-1342746D02*
X27293133Y-1450496D01*
X27293133Y-1450496D02*
X27347008Y-1504371D01*
X27347008Y-1504371D02*
X27454758Y-1558246D01*
X27454758Y-1558246D02*
X27508632Y-1558246D01*
X27508632Y-1558246D02*
X27697194Y-1369684D01*
X27697194Y-1369684D02*
X27589445Y-1261934D01*
X27697194Y-1854557D02*
X28262880Y-1288872D01*
X28262880Y-1288872D02*
X28020443Y-2177806D01*
X28020443Y-2177806D02*
X28586128Y-1612120D01*
X28289817Y-2447180D02*
X28855502Y-1881494D01*
X28855502Y-1881494D02*
X28990189Y-2016181D01*
X28990189Y-2016181D02*
X29044064Y-2123931D01*
X29044064Y-2123931D02*
X29044064Y-2231680D01*
X29044064Y-2231680D02*
X29017127Y-2312493D01*
X29017127Y-2312493D02*
X28936314Y-2447180D01*
X28936314Y-2447180D02*
X28855502Y-2527992D01*
X28855502Y-2527992D02*
X28720815Y-2608804D01*
X28720815Y-2608804D02*
X28640003Y-2635741D01*
X28640003Y-2635741D02*
X28532253Y-2635741D01*
X28532253Y-2635741D02*
X28424504Y-2581867D01*
X28424504Y-2581867D02*
X28289817Y-2447180D01*
X63553505Y-973372D02*
X63526568Y-892560D01*
X63526568Y-892560D02*
X63445756Y-811748D01*
X63445756Y-811748D02*
X63338006Y-757873D01*
X63338006Y-757873D02*
X63230257Y-757873D01*
X63230257Y-757873D02*
X63149444Y-784810D01*
X63149444Y-784810D02*
X63014757Y-865623D01*
X63014757Y-865623D02*
X62933945Y-946435D01*
X62933945Y-946435D02*
X62853133Y-1081122D01*
X62853133Y-1081122D02*
X62826196Y-1161934D01*
X62826196Y-1161934D02*
X62826196Y-1269684D01*
X62826196Y-1269684D02*
X62880070Y-1377433D01*
X62880070Y-1377433D02*
X62933945Y-1431308D01*
X62933945Y-1431308D02*
X63041695Y-1485183D01*
X63041695Y-1485183D02*
X63095570Y-1485183D01*
X63095570Y-1485183D02*
X63284131Y-1296621D01*
X63284131Y-1296621D02*
X63176382Y-1188871D01*
X63284131Y-1781494D02*
X63849817Y-1215809D01*
X63849817Y-1215809D02*
X64065316Y-1431308D01*
X64065316Y-1431308D02*
X64092253Y-1512120D01*
X64092253Y-1512120D02*
X64092253Y-1565995D01*
X64092253Y-1565995D02*
X64065316Y-1646807D01*
X64065316Y-1646807D02*
X63984504Y-1727619D01*
X63984504Y-1727619D02*
X63903692Y-1754557D01*
X63903692Y-1754557D02*
X63849817Y-1754557D01*
X63849817Y-1754557D02*
X63769005Y-1727619D01*
X63769005Y-1727619D02*
X63553505Y-1512120D01*
X64334690Y-1808432D02*
X64388565Y-1808432D01*
X64388565Y-1808432D02*
X64469377Y-1835369D01*
X64469377Y-1835369D02*
X64604064Y-1970056D01*
X64604064Y-1970056D02*
X64631001Y-2050868D01*
X64631001Y-2050868D02*
X64631001Y-2104743D01*
X64631001Y-2104743D02*
X64604064Y-2185555D01*
X64604064Y-2185555D02*
X64550189Y-2239430D01*
X64550189Y-2239430D02*
X64442440Y-2293305D01*
X64442440Y-2293305D02*
X63795942Y-2293305D01*
X63795942Y-2293305D02*
X64146128Y-2643491D01*
X66066568Y-1046435D02*
X66039631Y-965623D01*
X66039631Y-965623D02*
X65958819Y-884811D01*
X65958819Y-884811D02*
X65851069Y-830936D01*
X65851069Y-830936D02*
X65743319Y-830936D01*
X65743319Y-830936D02*
X65662507Y-857873D01*
X65662507Y-857873D02*
X65527820Y-938685D01*
X65527820Y-938685D02*
X65447008Y-1019498D01*
X65447008Y-1019498D02*
X65366196Y-1154185D01*
X65366196Y-1154185D02*
X65339258Y-1234997D01*
X65339258Y-1234997D02*
X65339258Y-1342746D01*
X65339258Y-1342746D02*
X65393133Y-1450496D01*
X65393133Y-1450496D02*
X65447008Y-1504371D01*
X65447008Y-1504371D02*
X65554758Y-1558246D01*
X65554758Y-1558246D02*
X65608632Y-1558246D01*
X65608632Y-1558246D02*
X65797194Y-1369684D01*
X65797194Y-1369684D02*
X65689445Y-1261934D01*
X65797194Y-1854557D02*
X66362880Y-1288872D01*
X66362880Y-1288872D02*
X66120443Y-2177806D01*
X66120443Y-2177806D02*
X66686128Y-1612120D01*
X66389817Y-2447180D02*
X66955502Y-1881494D01*
X66955502Y-1881494D02*
X67090189Y-2016181D01*
X67090189Y-2016181D02*
X67144064Y-2123931D01*
X67144064Y-2123931D02*
X67144064Y-2231680D01*
X67144064Y-2231680D02*
X67117127Y-2312493D01*
X67117127Y-2312493D02*
X67036314Y-2447180D01*
X67036314Y-2447180D02*
X66955502Y-2527992D01*
X66955502Y-2527992D02*
X66820815Y-2608804D01*
X66820815Y-2608804D02*
X66740003Y-2635741D01*
X66740003Y-2635741D02*
X66632253Y-2635741D01*
X66632253Y-2635741D02*
X66524504Y-2581867D01*
X66524504Y-2581867D02*
X66389817Y-2447180D01*
X71173505Y-1073372D02*
X71146568Y-992560D01*
X71146568Y-992560D02*
X71065756Y-911748D01*
X71065756Y-911748D02*
X70958006Y-857873D01*
X70958006Y-857873D02*
X70850257Y-857873D01*
X70850257Y-857873D02*
X70769444Y-884810D01*
X70769444Y-884810D02*
X70634757Y-965623D01*
X70634757Y-965623D02*
X70553945Y-1046435D01*
X70553945Y-1046435D02*
X70473133Y-1181122D01*
X70473133Y-1181122D02*
X70446196Y-1261934D01*
X70446196Y-1261934D02*
X70446196Y-1369684D01*
X70446196Y-1369684D02*
X70500070Y-1477433D01*
X70500070Y-1477433D02*
X70553945Y-1531308D01*
X70553945Y-1531308D02*
X70661695Y-1585183D01*
X70661695Y-1585183D02*
X70715570Y-1585183D01*
X70715570Y-1585183D02*
X70904131Y-1396621D01*
X70904131Y-1396621D02*
X70796382Y-1288871D01*
X70904131Y-1881494D02*
X71469817Y-1315809D01*
X71469817Y-1315809D02*
X71685316Y-1531308D01*
X71685316Y-1531308D02*
X71712253Y-1612120D01*
X71712253Y-1612120D02*
X71712253Y-1665995D01*
X71712253Y-1665995D02*
X71685316Y-1746807D01*
X71685316Y-1746807D02*
X71604504Y-1827619D01*
X71604504Y-1827619D02*
X71523692Y-1854557D01*
X71523692Y-1854557D02*
X71469817Y-1854557D01*
X71469817Y-1854557D02*
X71389005Y-1827619D01*
X71389005Y-1827619D02*
X71173505Y-1612120D01*
X72143252Y-1989244D02*
X72197127Y-2043119D01*
X72197127Y-2043119D02*
X72224064Y-2123931D01*
X72224064Y-2123931D02*
X72224064Y-2177806D01*
X72224064Y-2177806D02*
X72197127Y-2258618D01*
X72197127Y-2258618D02*
X72116314Y-2393305D01*
X72116314Y-2393305D02*
X71981627Y-2527992D01*
X71981627Y-2527992D02*
X71846940Y-2608804D01*
X71846940Y-2608804D02*
X71766128Y-2635741D01*
X71766128Y-2635741D02*
X71712253Y-2635741D01*
X71712253Y-2635741D02*
X71631441Y-2608804D01*
X71631441Y-2608804D02*
X71577566Y-2554929D01*
X71577566Y-2554929D02*
X71550629Y-2474117D01*
X71550629Y-2474117D02*
X71550629Y-2420242D01*
X71550629Y-2420242D02*
X71577566Y-2339430D01*
X71577566Y-2339430D02*
X71658379Y-2204743D01*
X71658379Y-2204743D02*
X71793066Y-2070056D01*
X71793066Y-2070056D02*
X71927753Y-1989244D01*
X71927753Y-1989244D02*
X72008565Y-1962306D01*
X72008565Y-1962306D02*
X72062440Y-1962306D01*
X72062440Y-1962306D02*
X72143252Y-1989244D01*
X27966568Y-26646435D02*
X27939631Y-26565623D01*
X27939631Y-26565623D02*
X27858819Y-26484811D01*
X27858819Y-26484811D02*
X27751069Y-26430936D01*
X27751069Y-26430936D02*
X27643319Y-26430936D01*
X27643319Y-26430936D02*
X27562507Y-26457873D01*
X27562507Y-26457873D02*
X27427820Y-26538685D01*
X27427820Y-26538685D02*
X27347008Y-26619498D01*
X27347008Y-26619498D02*
X27266196Y-26754185D01*
X27266196Y-26754185D02*
X27239258Y-26834997D01*
X27239258Y-26834997D02*
X27239258Y-26942746D01*
X27239258Y-26942746D02*
X27293133Y-27050496D01*
X27293133Y-27050496D02*
X27347008Y-27104371D01*
X27347008Y-27104371D02*
X27454758Y-27158246D01*
X27454758Y-27158246D02*
X27508632Y-27158246D01*
X27508632Y-27158246D02*
X27697194Y-26969684D01*
X27697194Y-26969684D02*
X27589445Y-26861934D01*
X27697194Y-27454557D02*
X28262880Y-26888872D01*
X28262880Y-26888872D02*
X28020443Y-27777806D01*
X28020443Y-27777806D02*
X28586128Y-27212120D01*
X28289817Y-28047180D02*
X28855502Y-27481494D01*
X28855502Y-27481494D02*
X28990189Y-27616181D01*
X28990189Y-27616181D02*
X29044064Y-27723931D01*
X29044064Y-27723931D02*
X29044064Y-27831680D01*
X29044064Y-27831680D02*
X29017127Y-27912493D01*
X29017127Y-27912493D02*
X28936314Y-28047180D01*
X28936314Y-28047180D02*
X28855502Y-28127992D01*
X28855502Y-28127992D02*
X28720815Y-28208804D01*
X28720815Y-28208804D02*
X28640003Y-28235741D01*
X28640003Y-28235741D02*
X28532253Y-28235741D01*
X28532253Y-28235741D02*
X28424504Y-28181867D01*
X28424504Y-28181867D02*
X28289817Y-28047180D01*
X40666568Y-1046435D02*
X40639631Y-965623D01*
X40639631Y-965623D02*
X40558819Y-884811D01*
X40558819Y-884811D02*
X40451069Y-830936D01*
X40451069Y-830936D02*
X40343319Y-830936D01*
X40343319Y-830936D02*
X40262507Y-857873D01*
X40262507Y-857873D02*
X40127820Y-938685D01*
X40127820Y-938685D02*
X40047008Y-1019498D01*
X40047008Y-1019498D02*
X39966196Y-1154185D01*
X39966196Y-1154185D02*
X39939258Y-1234997D01*
X39939258Y-1234997D02*
X39939258Y-1342746D01*
X39939258Y-1342746D02*
X39993133Y-1450496D01*
X39993133Y-1450496D02*
X40047008Y-1504371D01*
X40047008Y-1504371D02*
X40154758Y-1558246D01*
X40154758Y-1558246D02*
X40208632Y-1558246D01*
X40208632Y-1558246D02*
X40397194Y-1369684D01*
X40397194Y-1369684D02*
X40289445Y-1261934D01*
X40397194Y-1854557D02*
X40962880Y-1288872D01*
X40962880Y-1288872D02*
X40720443Y-2177806D01*
X40720443Y-2177806D02*
X41286128Y-1612120D01*
X40989817Y-2447180D02*
X41555502Y-1881494D01*
X41555502Y-1881494D02*
X41690189Y-2016181D01*
X41690189Y-2016181D02*
X41744064Y-2123931D01*
X41744064Y-2123931D02*
X41744064Y-2231680D01*
X41744064Y-2231680D02*
X41717127Y-2312493D01*
X41717127Y-2312493D02*
X41636314Y-2447180D01*
X41636314Y-2447180D02*
X41555502Y-2527992D01*
X41555502Y-2527992D02*
X41420815Y-2608804D01*
X41420815Y-2608804D02*
X41340003Y-2635741D01*
X41340003Y-2635741D02*
X41232253Y-2635741D01*
X41232253Y-2635741D02*
X41124504Y-2581867D01*
X41124504Y-2581867D02*
X40989817Y-2447180D01*
X68094757Y-26480749D02*
X67717633Y-27234996D01*
X67717633Y-27234996D02*
X68471881Y-26857873D01*
X68094757Y-27558245D02*
X68148632Y-27665995D01*
X68148632Y-27665995D02*
X68283319Y-27800682D01*
X68283319Y-27800682D02*
X68364131Y-27827619D01*
X68364131Y-27827619D02*
X68418006Y-27827619D01*
X68418006Y-27827619D02*
X68498818Y-27800682D01*
X68498818Y-27800682D02*
X68552693Y-27746807D01*
X68552693Y-27746807D02*
X68579630Y-27665995D01*
X68579630Y-27665995D02*
X68579630Y-27612120D01*
X68579630Y-27612120D02*
X68552693Y-27531308D01*
X68552693Y-27531308D02*
X68471881Y-27396621D01*
X68471881Y-27396621D02*
X68444943Y-27315808D01*
X68444943Y-27315808D02*
X68444943Y-27261934D01*
X68444943Y-27261934D02*
X68471881Y-27181121D01*
X68471881Y-27181121D02*
X68525755Y-27127247D01*
X68525755Y-27127247D02*
X68606568Y-27100309D01*
X68606568Y-27100309D02*
X68660442Y-27100309D01*
X68660442Y-27100309D02*
X68741255Y-27127247D01*
X68741255Y-27127247D02*
X68875942Y-27261934D01*
X68875942Y-27261934D02*
X68929816Y-27369683D01*
X69010629Y-27989244D02*
X68741255Y-28258618D01*
X69118378Y-27504370D02*
X69010629Y-27989244D01*
X69010629Y-27989244D02*
X69495502Y-27881494D01*
X69118378Y-28581866D02*
X69172253Y-28689616D01*
X69172253Y-28689616D02*
X69306940Y-28824303D01*
X69306940Y-28824303D02*
X69387752Y-28851240D01*
X69387752Y-28851240D02*
X69441627Y-28851240D01*
X69441627Y-28851240D02*
X69522439Y-28824303D01*
X69522439Y-28824303D02*
X69576314Y-28770428D01*
X69576314Y-28770428D02*
X69603251Y-28689616D01*
X69603251Y-28689616D02*
X69603251Y-28635741D01*
X69603251Y-28635741D02*
X69576314Y-28554929D01*
X69576314Y-28554929D02*
X69495502Y-28420242D01*
X69495502Y-28420242D02*
X69468564Y-28339430D01*
X69468564Y-28339430D02*
X69468564Y-28285555D01*
X69468564Y-28285555D02*
X69495502Y-28204743D01*
X69495502Y-28204743D02*
X69549377Y-28150868D01*
X69549377Y-28150868D02*
X69630189Y-28123930D01*
X69630189Y-28123930D02*
X69684064Y-28123930D01*
X69684064Y-28123930D02*
X69764876Y-28150868D01*
X69764876Y-28150868D02*
X69899563Y-28285555D01*
X69899563Y-28285555D02*
X69953438Y-28393304D01*
X50574131Y-26657998D02*
X50547194Y-26577185D01*
X50547194Y-26577185D02*
X50466381Y-26496373D01*
X50466381Y-26496373D02*
X50358632Y-26442498D01*
X50358632Y-26442498D02*
X50250882Y-26442498D01*
X50250882Y-26442498D02*
X50170070Y-26469436D01*
X50170070Y-26469436D02*
X50035383Y-26550248D01*
X50035383Y-26550248D02*
X49954571Y-26631060D01*
X49954571Y-26631060D02*
X49873758Y-26765747D01*
X49873758Y-26765747D02*
X49846821Y-26846560D01*
X49846821Y-26846560D02*
X49846821Y-26954309D01*
X49846821Y-26954309D02*
X49900696Y-27062059D01*
X49900696Y-27062059D02*
X49954571Y-27115934D01*
X49954571Y-27115934D02*
X50062320Y-27169808D01*
X50062320Y-27169808D02*
X50116195Y-27169808D01*
X50116195Y-27169808D02*
X50304757Y-26981247D01*
X50304757Y-26981247D02*
X50197007Y-26873497D01*
X50304757Y-27466120D02*
X50870442Y-26900434D01*
X50870442Y-26900434D02*
X51085942Y-27115934D01*
X51085942Y-27115934D02*
X51112879Y-27196746D01*
X51112879Y-27196746D02*
X51112879Y-27250621D01*
X51112879Y-27250621D02*
X51085942Y-27331433D01*
X51085942Y-27331433D02*
X51005129Y-27412245D01*
X51005129Y-27412245D02*
X50924317Y-27439182D01*
X50924317Y-27439182D02*
X50870442Y-27439182D01*
X50870442Y-27439182D02*
X50789630Y-27412245D01*
X50789630Y-27412245D02*
X50574131Y-27196746D01*
X51355316Y-27493057D02*
X51409190Y-27493057D01*
X51409190Y-27493057D02*
X51490003Y-27519995D01*
X51490003Y-27519995D02*
X51624690Y-27654682D01*
X51624690Y-27654682D02*
X51651627Y-27735494D01*
X51651627Y-27735494D02*
X51651627Y-27789369D01*
X51651627Y-27789369D02*
X51624690Y-27870181D01*
X51624690Y-27870181D02*
X51570815Y-27924056D01*
X51570815Y-27924056D02*
X51463065Y-27977930D01*
X51463065Y-27977930D02*
X50816568Y-27977930D01*
X50816568Y-27977930D02*
X51166754Y-28328117D01*
X51921001Y-27950993D02*
X52298125Y-28328117D01*
X52298125Y-28328117D02*
X51490003Y-28651366D01*
X21289200Y-10669524D02*
X21327295Y-10555238D01*
X21327295Y-10555238D02*
X21327295Y-10364762D01*
X21327295Y-10364762D02*
X21289200Y-10288571D01*
X21289200Y-10288571D02*
X21251104Y-10250476D01*
X21251104Y-10250476D02*
X21174914Y-10212381D01*
X21174914Y-10212381D02*
X21098723Y-10212381D01*
X21098723Y-10212381D02*
X21022533Y-10250476D01*
X21022533Y-10250476D02*
X20984438Y-10288571D01*
X20984438Y-10288571D02*
X20946342Y-10364762D01*
X20946342Y-10364762D02*
X20908247Y-10517143D01*
X20908247Y-10517143D02*
X20870152Y-10593333D01*
X20870152Y-10593333D02*
X20832057Y-10631428D01*
X20832057Y-10631428D02*
X20755866Y-10669524D01*
X20755866Y-10669524D02*
X20679676Y-10669524D01*
X20679676Y-10669524D02*
X20603485Y-10631428D01*
X20603485Y-10631428D02*
X20565390Y-10593333D01*
X20565390Y-10593333D02*
X20527295Y-10517143D01*
X20527295Y-10517143D02*
X20527295Y-10326666D01*
X20527295Y-10326666D02*
X20565390Y-10212381D01*
X20527295Y-9945714D02*
X21327295Y-9755238D01*
X21327295Y-9755238D02*
X20755866Y-9602857D01*
X20755866Y-9602857D02*
X21327295Y-9450476D01*
X21327295Y-9450476D02*
X20527295Y-9260000D01*
X21251104Y-8498094D02*
X21289200Y-8536190D01*
X21289200Y-8536190D02*
X21327295Y-8650475D01*
X21327295Y-8650475D02*
X21327295Y-8726666D01*
X21327295Y-8726666D02*
X21289200Y-8840952D01*
X21289200Y-8840952D02*
X21213009Y-8917142D01*
X21213009Y-8917142D02*
X21136819Y-8955237D01*
X21136819Y-8955237D02*
X20984438Y-8993333D01*
X20984438Y-8993333D02*
X20870152Y-8993333D01*
X20870152Y-8993333D02*
X20717771Y-8955237D01*
X20717771Y-8955237D02*
X20641580Y-8917142D01*
X20641580Y-8917142D02*
X20565390Y-8840952D01*
X20565390Y-8840952D02*
X20527295Y-8726666D01*
X20527295Y-8726666D02*
X20527295Y-8650475D01*
X20527295Y-8650475D02*
X20565390Y-8536190D01*
X20565390Y-8536190D02*
X20603485Y-8498094D01*
X21327295Y-7774285D02*
X21327295Y-8155237D01*
X21327295Y-8155237D02*
X20527295Y-8155237D01*
X21327295Y-7507618D02*
X20527295Y-7507618D01*
X21327295Y-7050475D02*
X20870152Y-7393333D01*
X20527295Y-7050475D02*
X20984438Y-7507618D01*
X55918131Y-26657998D02*
X55891194Y-26577185D01*
X55891194Y-26577185D02*
X55810381Y-26496373D01*
X55810381Y-26496373D02*
X55702632Y-26442498D01*
X55702632Y-26442498D02*
X55594882Y-26442498D01*
X55594882Y-26442498D02*
X55514070Y-26469436D01*
X55514070Y-26469436D02*
X55379383Y-26550248D01*
X55379383Y-26550248D02*
X55298571Y-26631060D01*
X55298571Y-26631060D02*
X55217758Y-26765747D01*
X55217758Y-26765747D02*
X55190821Y-26846560D01*
X55190821Y-26846560D02*
X55190821Y-26954309D01*
X55190821Y-26954309D02*
X55244696Y-27062059D01*
X55244696Y-27062059D02*
X55298571Y-27115934D01*
X55298571Y-27115934D02*
X55406320Y-27169808D01*
X55406320Y-27169808D02*
X55460195Y-27169808D01*
X55460195Y-27169808D02*
X55648757Y-26981247D01*
X55648757Y-26981247D02*
X55541007Y-26873497D01*
X55648757Y-27466120D02*
X56214442Y-26900434D01*
X56214442Y-26900434D02*
X56429942Y-27115934D01*
X56429942Y-27115934D02*
X56456879Y-27196746D01*
X56456879Y-27196746D02*
X56456879Y-27250621D01*
X56456879Y-27250621D02*
X56429942Y-27331433D01*
X56429942Y-27331433D02*
X56349129Y-27412245D01*
X56349129Y-27412245D02*
X56268317Y-27439182D01*
X56268317Y-27439182D02*
X56214442Y-27439182D01*
X56214442Y-27439182D02*
X56133630Y-27412245D01*
X56133630Y-27412245D02*
X55918131Y-27196746D01*
X56699316Y-27493057D02*
X56753190Y-27493057D01*
X56753190Y-27493057D02*
X56834003Y-27519995D01*
X56834003Y-27519995D02*
X56968690Y-27654682D01*
X56968690Y-27654682D02*
X56995627Y-27735494D01*
X56995627Y-27735494D02*
X56995627Y-27789369D01*
X56995627Y-27789369D02*
X56968690Y-27870181D01*
X56968690Y-27870181D02*
X56914815Y-27924056D01*
X56914815Y-27924056D02*
X56807065Y-27977930D01*
X56807065Y-27977930D02*
X56160568Y-27977930D01*
X56160568Y-27977930D02*
X56510754Y-28328117D01*
X57157252Y-28328117D02*
X57130314Y-28247305D01*
X57130314Y-28247305D02*
X57130314Y-28193430D01*
X57130314Y-28193430D02*
X57157252Y-28112618D01*
X57157252Y-28112618D02*
X57184189Y-28085680D01*
X57184189Y-28085680D02*
X57265001Y-28058743D01*
X57265001Y-28058743D02*
X57318876Y-28058743D01*
X57318876Y-28058743D02*
X57399688Y-28085680D01*
X57399688Y-28085680D02*
X57507438Y-28193430D01*
X57507438Y-28193430D02*
X57534375Y-28274242D01*
X57534375Y-28274242D02*
X57534375Y-28328117D01*
X57534375Y-28328117D02*
X57507438Y-28408929D01*
X57507438Y-28408929D02*
X57480500Y-28435866D01*
X57480500Y-28435866D02*
X57399688Y-28462804D01*
X57399688Y-28462804D02*
X57345813Y-28462804D01*
X57345813Y-28462804D02*
X57265001Y-28435866D01*
X57265001Y-28435866D02*
X57157252Y-28328117D01*
X57157252Y-28328117D02*
X57076439Y-28301179D01*
X57076439Y-28301179D02*
X57022565Y-28301179D01*
X57022565Y-28301179D02*
X56941752Y-28328117D01*
X56941752Y-28328117D02*
X56834003Y-28435866D01*
X56834003Y-28435866D02*
X56807065Y-28516679D01*
X56807065Y-28516679D02*
X56807065Y-28570553D01*
X56807065Y-28570553D02*
X56834003Y-28651366D01*
X56834003Y-28651366D02*
X56941752Y-28759115D01*
X56941752Y-28759115D02*
X57022565Y-28786053D01*
X57022565Y-28786053D02*
X57076439Y-28786053D01*
X57076439Y-28786053D02*
X57157252Y-28759115D01*
X57157252Y-28759115D02*
X57265001Y-28651366D01*
X57265001Y-28651366D02*
X57291939Y-28570553D01*
X57291939Y-28570553D02*
X57291939Y-28516679D01*
X57291939Y-28516679D02*
X57265001Y-28435866D01*
X48343505Y-1173372D02*
X48316568Y-1092560D01*
X48316568Y-1092560D02*
X48235756Y-1011748D01*
X48235756Y-1011748D02*
X48128006Y-957873D01*
X48128006Y-957873D02*
X48020257Y-957873D01*
X48020257Y-957873D02*
X47939444Y-984810D01*
X47939444Y-984810D02*
X47804757Y-1065623D01*
X47804757Y-1065623D02*
X47723945Y-1146435D01*
X47723945Y-1146435D02*
X47643133Y-1281122D01*
X47643133Y-1281122D02*
X47616196Y-1361934D01*
X47616196Y-1361934D02*
X47616196Y-1469684D01*
X47616196Y-1469684D02*
X47670070Y-1577433D01*
X47670070Y-1577433D02*
X47723945Y-1631308D01*
X47723945Y-1631308D02*
X47831695Y-1685183D01*
X47831695Y-1685183D02*
X47885570Y-1685183D01*
X47885570Y-1685183D02*
X48074131Y-1496621D01*
X48074131Y-1496621D02*
X47966382Y-1388871D01*
X48074131Y-1981494D02*
X48639817Y-1415809D01*
X48639817Y-1415809D02*
X48855316Y-1631308D01*
X48855316Y-1631308D02*
X48882253Y-1712120D01*
X48882253Y-1712120D02*
X48882253Y-1765995D01*
X48882253Y-1765995D02*
X48855316Y-1846807D01*
X48855316Y-1846807D02*
X48774504Y-1927619D01*
X48774504Y-1927619D02*
X48693692Y-1954557D01*
X48693692Y-1954557D02*
X48639817Y-1954557D01*
X48639817Y-1954557D02*
X48559005Y-1927619D01*
X48559005Y-1927619D02*
X48343505Y-1712120D01*
X49151627Y-1927619D02*
X49528751Y-2304743D01*
X49528751Y-2304743D02*
X48720629Y-2627992D01*
X45221289Y-27398651D02*
X45302101Y-26940716D01*
X44898040Y-27075403D02*
X45463725Y-26509717D01*
X45463725Y-26509717D02*
X45679224Y-26725216D01*
X45679224Y-26725216D02*
X45706162Y-26806029D01*
X45706162Y-26806029D02*
X45706162Y-26859903D01*
X45706162Y-26859903D02*
X45679224Y-26940716D01*
X45679224Y-26940716D02*
X45598412Y-27021528D01*
X45598412Y-27021528D02*
X45517600Y-27048465D01*
X45517600Y-27048465D02*
X45463725Y-27048465D01*
X45463725Y-27048465D02*
X45382913Y-27021528D01*
X45382913Y-27021528D02*
X45167414Y-26806029D01*
X46029411Y-27075403D02*
X45571475Y-27533338D01*
X45571475Y-27533338D02*
X45544537Y-27614151D01*
X45544537Y-27614151D02*
X45544537Y-27668025D01*
X45544537Y-27668025D02*
X45571475Y-27748838D01*
X45571475Y-27748838D02*
X45679224Y-27856587D01*
X45679224Y-27856587D02*
X45760037Y-27883525D01*
X45760037Y-27883525D02*
X45813911Y-27883525D01*
X45813911Y-27883525D02*
X45894724Y-27856587D01*
X45894724Y-27856587D02*
X46352659Y-27398651D01*
X46056348Y-28233711D02*
X46622033Y-27668025D01*
X46622033Y-27668025D02*
X46379597Y-28556959D01*
X46379597Y-28556959D02*
X46945282Y-27991274D01*
X25184131Y-26657998D02*
X25157194Y-26577185D01*
X25157194Y-26577185D02*
X25076381Y-26496373D01*
X25076381Y-26496373D02*
X24968632Y-26442498D01*
X24968632Y-26442498D02*
X24860882Y-26442498D01*
X24860882Y-26442498D02*
X24780070Y-26469436D01*
X24780070Y-26469436D02*
X24645383Y-26550248D01*
X24645383Y-26550248D02*
X24564571Y-26631060D01*
X24564571Y-26631060D02*
X24483758Y-26765747D01*
X24483758Y-26765747D02*
X24456821Y-26846560D01*
X24456821Y-26846560D02*
X24456821Y-26954309D01*
X24456821Y-26954309D02*
X24510696Y-27062059D01*
X24510696Y-27062059D02*
X24564571Y-27115934D01*
X24564571Y-27115934D02*
X24672320Y-27169808D01*
X24672320Y-27169808D02*
X24726195Y-27169808D01*
X24726195Y-27169808D02*
X24914757Y-26981247D01*
X24914757Y-26981247D02*
X24807007Y-26873497D01*
X24914757Y-27466120D02*
X25480442Y-26900434D01*
X25480442Y-26900434D02*
X25695942Y-27115934D01*
X25695942Y-27115934D02*
X25722879Y-27196746D01*
X25722879Y-27196746D02*
X25722879Y-27250621D01*
X25722879Y-27250621D02*
X25695942Y-27331433D01*
X25695942Y-27331433D02*
X25615129Y-27412245D01*
X25615129Y-27412245D02*
X25534317Y-27439182D01*
X25534317Y-27439182D02*
X25480442Y-27439182D01*
X25480442Y-27439182D02*
X25399630Y-27412245D01*
X25399630Y-27412245D02*
X25184131Y-27196746D01*
X25776754Y-28328117D02*
X25453505Y-28004868D01*
X25615129Y-28166492D02*
X26180815Y-27600807D01*
X26180815Y-27600807D02*
X26046128Y-27627744D01*
X26046128Y-27627744D02*
X25938378Y-27627744D01*
X25938378Y-27627744D02*
X25857566Y-27600807D01*
X26531001Y-27950993D02*
X26908125Y-28328117D01*
X26908125Y-28328117D02*
X26100003Y-28651366D01*
X43233505Y-1073372D02*
X43206568Y-992560D01*
X43206568Y-992560D02*
X43125756Y-911748D01*
X43125756Y-911748D02*
X43018006Y-857873D01*
X43018006Y-857873D02*
X42910257Y-857873D01*
X42910257Y-857873D02*
X42829444Y-884810D01*
X42829444Y-884810D02*
X42694757Y-965623D01*
X42694757Y-965623D02*
X42613945Y-1046435D01*
X42613945Y-1046435D02*
X42533133Y-1181122D01*
X42533133Y-1181122D02*
X42506196Y-1261934D01*
X42506196Y-1261934D02*
X42506196Y-1369684D01*
X42506196Y-1369684D02*
X42560070Y-1477433D01*
X42560070Y-1477433D02*
X42613945Y-1531308D01*
X42613945Y-1531308D02*
X42721695Y-1585183D01*
X42721695Y-1585183D02*
X42775570Y-1585183D01*
X42775570Y-1585183D02*
X42964131Y-1396621D01*
X42964131Y-1396621D02*
X42856382Y-1288871D01*
X42964131Y-1881494D02*
X43529817Y-1315809D01*
X43529817Y-1315809D02*
X43745316Y-1531308D01*
X43745316Y-1531308D02*
X43772253Y-1612120D01*
X43772253Y-1612120D02*
X43772253Y-1665995D01*
X43772253Y-1665995D02*
X43745316Y-1746807D01*
X43745316Y-1746807D02*
X43664504Y-1827619D01*
X43664504Y-1827619D02*
X43583692Y-1854557D01*
X43583692Y-1854557D02*
X43529817Y-1854557D01*
X43529817Y-1854557D02*
X43449005Y-1827619D01*
X43449005Y-1827619D02*
X43233505Y-1612120D01*
X43556754Y-2474117D02*
X43664504Y-2581867D01*
X43664504Y-2581867D02*
X43745316Y-2608804D01*
X43745316Y-2608804D02*
X43799191Y-2608804D01*
X43799191Y-2608804D02*
X43933878Y-2581867D01*
X43933878Y-2581867D02*
X44068565Y-2501054D01*
X44068565Y-2501054D02*
X44284064Y-2285555D01*
X44284064Y-2285555D02*
X44311001Y-2204743D01*
X44311001Y-2204743D02*
X44311001Y-2150868D01*
X44311001Y-2150868D02*
X44284064Y-2070056D01*
X44284064Y-2070056D02*
X44176314Y-1962306D01*
X44176314Y-1962306D02*
X44095502Y-1935369D01*
X44095502Y-1935369D02*
X44041627Y-1935369D01*
X44041627Y-1935369D02*
X43960815Y-1962306D01*
X43960815Y-1962306D02*
X43826128Y-2096993D01*
X43826128Y-2096993D02*
X43799191Y-2177806D01*
X43799191Y-2177806D02*
X43799191Y-2231680D01*
X43799191Y-2231680D02*
X43826128Y-2312493D01*
X43826128Y-2312493D02*
X43933878Y-2420242D01*
X43933878Y-2420242D02*
X44014690Y-2447180D01*
X44014690Y-2447180D02*
X44068565Y-2447180D01*
X44068565Y-2447180D02*
X44149377Y-2420242D01*
X22644131Y-549998D02*
X22617194Y-469185D01*
X22617194Y-469185D02*
X22536381Y-388373D01*
X22536381Y-388373D02*
X22428632Y-334498D01*
X22428632Y-334498D02*
X22320882Y-334498D01*
X22320882Y-334498D02*
X22240070Y-361436D01*
X22240070Y-361436D02*
X22105383Y-442248D01*
X22105383Y-442248D02*
X22024571Y-523060D01*
X22024571Y-523060D02*
X21943758Y-657747D01*
X21943758Y-657747D02*
X21916821Y-738560D01*
X21916821Y-738560D02*
X21916821Y-846309D01*
X21916821Y-846309D02*
X21970696Y-954059D01*
X21970696Y-954059D02*
X22024571Y-1007934D01*
X22024571Y-1007934D02*
X22132320Y-1061808D01*
X22132320Y-1061808D02*
X22186195Y-1061808D01*
X22186195Y-1061808D02*
X22374757Y-873247D01*
X22374757Y-873247D02*
X22267007Y-765497D01*
X22374757Y-1358120D02*
X22940442Y-792434D01*
X22940442Y-792434D02*
X23155942Y-1007934D01*
X23155942Y-1007934D02*
X23182879Y-1088746D01*
X23182879Y-1088746D02*
X23182879Y-1142621D01*
X23182879Y-1142621D02*
X23155942Y-1223433D01*
X23155942Y-1223433D02*
X23075129Y-1304245D01*
X23075129Y-1304245D02*
X22994317Y-1331182D01*
X22994317Y-1331182D02*
X22940442Y-1331182D01*
X22940442Y-1331182D02*
X22859630Y-1304245D01*
X22859630Y-1304245D02*
X22644131Y-1088746D01*
X23236754Y-2220117D02*
X22913505Y-1896868D01*
X23075129Y-2058492D02*
X23640815Y-1492807D01*
X23640815Y-1492807D02*
X23506128Y-1519744D01*
X23506128Y-1519744D02*
X23398378Y-1519744D01*
X23398378Y-1519744D02*
X23317566Y-1492807D01*
X24314250Y-2166242D02*
X24044876Y-1896868D01*
X24044876Y-1896868D02*
X23748565Y-2139305D01*
X23748565Y-2139305D02*
X23802439Y-2139305D01*
X23802439Y-2139305D02*
X23883252Y-2166242D01*
X23883252Y-2166242D02*
X24017939Y-2300929D01*
X24017939Y-2300929D02*
X24044876Y-2381741D01*
X24044876Y-2381741D02*
X24044876Y-2435616D01*
X24044876Y-2435616D02*
X24017939Y-2516428D01*
X24017939Y-2516428D02*
X23883252Y-2651115D01*
X23883252Y-2651115D02*
X23802439Y-2678053D01*
X23802439Y-2678053D02*
X23748565Y-2678053D01*
X23748565Y-2678053D02*
X23667752Y-2651115D01*
X23667752Y-2651115D02*
X23533065Y-2516428D01*
X23533065Y-2516428D02*
X23506128Y-2435616D01*
X23506128Y-2435616D02*
X23506128Y-2381741D01*
X40666568Y-26646435D02*
X40639631Y-26565623D01*
X40639631Y-26565623D02*
X40558819Y-26484811D01*
X40558819Y-26484811D02*
X40451069Y-26430936D01*
X40451069Y-26430936D02*
X40343319Y-26430936D01*
X40343319Y-26430936D02*
X40262507Y-26457873D01*
X40262507Y-26457873D02*
X40127820Y-26538685D01*
X40127820Y-26538685D02*
X40047008Y-26619498D01*
X40047008Y-26619498D02*
X39966196Y-26754185D01*
X39966196Y-26754185D02*
X39939258Y-26834997D01*
X39939258Y-26834997D02*
X39939258Y-26942746D01*
X39939258Y-26942746D02*
X39993133Y-27050496D01*
X39993133Y-27050496D02*
X40047008Y-27104371D01*
X40047008Y-27104371D02*
X40154758Y-27158246D01*
X40154758Y-27158246D02*
X40208632Y-27158246D01*
X40208632Y-27158246D02*
X40397194Y-26969684D01*
X40397194Y-26969684D02*
X40289445Y-26861934D01*
X40397194Y-27454557D02*
X40962880Y-26888872D01*
X40962880Y-26888872D02*
X40720443Y-27777806D01*
X40720443Y-27777806D02*
X41286128Y-27212120D01*
X40989817Y-28047180D02*
X41555502Y-27481494D01*
X41555502Y-27481494D02*
X41690189Y-27616181D01*
X41690189Y-27616181D02*
X41744064Y-27723931D01*
X41744064Y-27723931D02*
X41744064Y-27831680D01*
X41744064Y-27831680D02*
X41717127Y-27912493D01*
X41717127Y-27912493D02*
X41636314Y-28047180D01*
X41636314Y-28047180D02*
X41555502Y-28127992D01*
X41555502Y-28127992D02*
X41420815Y-28208804D01*
X41420815Y-28208804D02*
X41340003Y-28235741D01*
X41340003Y-28235741D02*
X41232253Y-28235741D01*
X41232253Y-28235741D02*
X41124504Y-28181867D01*
X41124504Y-28181867D02*
X40989817Y-28047180D01*
X53366568Y-1046435D02*
X53339631Y-965623D01*
X53339631Y-965623D02*
X53258819Y-884811D01*
X53258819Y-884811D02*
X53151069Y-830936D01*
X53151069Y-830936D02*
X53043319Y-830936D01*
X53043319Y-830936D02*
X52962507Y-857873D01*
X52962507Y-857873D02*
X52827820Y-938685D01*
X52827820Y-938685D02*
X52747008Y-1019498D01*
X52747008Y-1019498D02*
X52666196Y-1154185D01*
X52666196Y-1154185D02*
X52639258Y-1234997D01*
X52639258Y-1234997D02*
X52639258Y-1342746D01*
X52639258Y-1342746D02*
X52693133Y-1450496D01*
X52693133Y-1450496D02*
X52747008Y-1504371D01*
X52747008Y-1504371D02*
X52854758Y-1558246D01*
X52854758Y-1558246D02*
X52908632Y-1558246D01*
X52908632Y-1558246D02*
X53097194Y-1369684D01*
X53097194Y-1369684D02*
X52989445Y-1261934D01*
X53097194Y-1854557D02*
X53662880Y-1288872D01*
X53662880Y-1288872D02*
X53420443Y-2177806D01*
X53420443Y-2177806D02*
X53986128Y-1612120D01*
X53689817Y-2447180D02*
X54255502Y-1881494D01*
X54255502Y-1881494D02*
X54390189Y-2016181D01*
X54390189Y-2016181D02*
X54444064Y-2123931D01*
X54444064Y-2123931D02*
X54444064Y-2231680D01*
X54444064Y-2231680D02*
X54417127Y-2312493D01*
X54417127Y-2312493D02*
X54336314Y-2447180D01*
X54336314Y-2447180D02*
X54255502Y-2527992D01*
X54255502Y-2527992D02*
X54120815Y-2608804D01*
X54120815Y-2608804D02*
X54040003Y-2635741D01*
X54040003Y-2635741D02*
X53932253Y-2635741D01*
X53932253Y-2635741D02*
X53824504Y-2581867D01*
X53824504Y-2581867D02*
X53689817Y-2447180D01*
X63206415Y-26482407D02*
X63556601Y-26832593D01*
X63556601Y-26832593D02*
X63152540Y-26859531D01*
X63152540Y-26859531D02*
X63233353Y-26940343D01*
X63233353Y-26940343D02*
X63260290Y-27021155D01*
X63260290Y-27021155D02*
X63260290Y-27075030D01*
X63260290Y-27075030D02*
X63233353Y-27155842D01*
X63233353Y-27155842D02*
X63098666Y-27290529D01*
X63098666Y-27290529D02*
X63017853Y-27317467D01*
X63017853Y-27317467D02*
X62963979Y-27317467D01*
X62963979Y-27317467D02*
X62883166Y-27290529D01*
X62883166Y-27290529D02*
X62721542Y-27128905D01*
X62721542Y-27128905D02*
X62694605Y-27048093D01*
X62694605Y-27048093D02*
X62694605Y-26994218D01*
X63718226Y-26994218D02*
X63341102Y-27748465D01*
X63341102Y-27748465D02*
X64095350Y-27371342D01*
X64230036Y-27506028D02*
X64580223Y-27856215D01*
X64580223Y-27856215D02*
X64176162Y-27883152D01*
X64176162Y-27883152D02*
X64256974Y-27963964D01*
X64256974Y-27963964D02*
X64283911Y-28044776D01*
X64283911Y-28044776D02*
X64283911Y-28098651D01*
X64283911Y-28098651D02*
X64256974Y-28179464D01*
X64256974Y-28179464D02*
X64122287Y-28314151D01*
X64122287Y-28314151D02*
X64041475Y-28341088D01*
X64041475Y-28341088D02*
X63987600Y-28341088D01*
X63987600Y-28341088D02*
X63906788Y-28314151D01*
X63906788Y-28314151D02*
X63745163Y-28152526D01*
X63745163Y-28152526D02*
X63718226Y-28071714D01*
X63718226Y-28071714D02*
X63718226Y-28017839D01*
X64068412Y-28583525D02*
X64499411Y-29014523D01*
X64984284Y-28799024D02*
X65172846Y-28987586D01*
X64957347Y-29364709D02*
X64687973Y-29095335D01*
X64687973Y-29095335D02*
X65253658Y-28529650D01*
X65253658Y-28529650D02*
X65523032Y-28799024D01*
X65199784Y-29607146D02*
X65765469Y-29041461D01*
X65765469Y-29041461D02*
X65523032Y-29930395D01*
X65523032Y-29930395D02*
X66088718Y-29364710D01*
X32804131Y-26657998D02*
X32777194Y-26577185D01*
X32777194Y-26577185D02*
X32696381Y-26496373D01*
X32696381Y-26496373D02*
X32588632Y-26442498D01*
X32588632Y-26442498D02*
X32480882Y-26442498D01*
X32480882Y-26442498D02*
X32400070Y-26469436D01*
X32400070Y-26469436D02*
X32265383Y-26550248D01*
X32265383Y-26550248D02*
X32184571Y-26631060D01*
X32184571Y-26631060D02*
X32103758Y-26765747D01*
X32103758Y-26765747D02*
X32076821Y-26846560D01*
X32076821Y-26846560D02*
X32076821Y-26954309D01*
X32076821Y-26954309D02*
X32130696Y-27062059D01*
X32130696Y-27062059D02*
X32184571Y-27115934D01*
X32184571Y-27115934D02*
X32292320Y-27169808D01*
X32292320Y-27169808D02*
X32346195Y-27169808D01*
X32346195Y-27169808D02*
X32534757Y-26981247D01*
X32534757Y-26981247D02*
X32427007Y-26873497D01*
X32534757Y-27466120D02*
X33100442Y-26900434D01*
X33100442Y-26900434D02*
X33315942Y-27115934D01*
X33315942Y-27115934D02*
X33342879Y-27196746D01*
X33342879Y-27196746D02*
X33342879Y-27250621D01*
X33342879Y-27250621D02*
X33315942Y-27331433D01*
X33315942Y-27331433D02*
X33235129Y-27412245D01*
X33235129Y-27412245D02*
X33154317Y-27439182D01*
X33154317Y-27439182D02*
X33100442Y-27439182D01*
X33100442Y-27439182D02*
X33019630Y-27412245D01*
X33019630Y-27412245D02*
X32804131Y-27196746D01*
X33396754Y-28328117D02*
X33073505Y-28004868D01*
X33235129Y-28166492D02*
X33800815Y-27600807D01*
X33800815Y-27600807D02*
X33666128Y-27627744D01*
X33666128Y-27627744D02*
X33558378Y-27627744D01*
X33558378Y-27627744D02*
X33477566Y-27600807D01*
X33666128Y-28597491D02*
X33773878Y-28705240D01*
X33773878Y-28705240D02*
X33854690Y-28732178D01*
X33854690Y-28732178D02*
X33908565Y-28732178D01*
X33908565Y-28732178D02*
X34043252Y-28705240D01*
X34043252Y-28705240D02*
X34177939Y-28624428D01*
X34177939Y-28624428D02*
X34393438Y-28408929D01*
X34393438Y-28408929D02*
X34420375Y-28328117D01*
X34420375Y-28328117D02*
X34420375Y-28274242D01*
X34420375Y-28274242D02*
X34393438Y-28193430D01*
X34393438Y-28193430D02*
X34285688Y-28085680D01*
X34285688Y-28085680D02*
X34204876Y-28058743D01*
X34204876Y-28058743D02*
X34151001Y-28058743D01*
X34151001Y-28058743D02*
X34070189Y-28085680D01*
X34070189Y-28085680D02*
X33935502Y-28220367D01*
X33935502Y-28220367D02*
X33908565Y-28301179D01*
X33908565Y-28301179D02*
X33908565Y-28355054D01*
X33908565Y-28355054D02*
X33935502Y-28435866D01*
X33935502Y-28435866D02*
X34043252Y-28543616D01*
X34043252Y-28543616D02*
X34124064Y-28570553D01*
X34124064Y-28570553D02*
X34177939Y-28570553D01*
X34177939Y-28570553D02*
X34258751Y-28543616D01*
X61013505Y-1073372D02*
X60986568Y-992560D01*
X60986568Y-992560D02*
X60905756Y-911748D01*
X60905756Y-911748D02*
X60798006Y-857873D01*
X60798006Y-857873D02*
X60690257Y-857873D01*
X60690257Y-857873D02*
X60609444Y-884810D01*
X60609444Y-884810D02*
X60474757Y-965623D01*
X60474757Y-965623D02*
X60393945Y-1046435D01*
X60393945Y-1046435D02*
X60313133Y-1181122D01*
X60313133Y-1181122D02*
X60286196Y-1261934D01*
X60286196Y-1261934D02*
X60286196Y-1369684D01*
X60286196Y-1369684D02*
X60340070Y-1477433D01*
X60340070Y-1477433D02*
X60393945Y-1531308D01*
X60393945Y-1531308D02*
X60501695Y-1585183D01*
X60501695Y-1585183D02*
X60555570Y-1585183D01*
X60555570Y-1585183D02*
X60744131Y-1396621D01*
X60744131Y-1396621D02*
X60636382Y-1288871D01*
X60744131Y-1881494D02*
X61309817Y-1315809D01*
X61309817Y-1315809D02*
X61525316Y-1531308D01*
X61525316Y-1531308D02*
X61552253Y-1612120D01*
X61552253Y-1612120D02*
X61552253Y-1665995D01*
X61552253Y-1665995D02*
X61525316Y-1746807D01*
X61525316Y-1746807D02*
X61444504Y-1827619D01*
X61444504Y-1827619D02*
X61363692Y-1854557D01*
X61363692Y-1854557D02*
X61309817Y-1854557D01*
X61309817Y-1854557D02*
X61229005Y-1827619D01*
X61229005Y-1827619D02*
X61013505Y-1612120D01*
X61821627Y-1827619D02*
X62171814Y-2177806D01*
X62171814Y-2177806D02*
X61767753Y-2204743D01*
X61767753Y-2204743D02*
X61848565Y-2285555D01*
X61848565Y-2285555D02*
X61875502Y-2366367D01*
X61875502Y-2366367D02*
X61875502Y-2420242D01*
X61875502Y-2420242D02*
X61848565Y-2501054D01*
X61848565Y-2501054D02*
X61713878Y-2635741D01*
X61713878Y-2635741D02*
X61633066Y-2662679D01*
X61633066Y-2662679D02*
X61579191Y-2662679D01*
X61579191Y-2662679D02*
X61498379Y-2635741D01*
X61498379Y-2635741D02*
X61336754Y-2474117D01*
X61336754Y-2474117D02*
X61309817Y-2393305D01*
X61309817Y-2393305D02*
X61309817Y-2339430D01*
X68643505Y-973372D02*
X68616568Y-892560D01*
X68616568Y-892560D02*
X68535756Y-811748D01*
X68535756Y-811748D02*
X68428006Y-757873D01*
X68428006Y-757873D02*
X68320257Y-757873D01*
X68320257Y-757873D02*
X68239444Y-784810D01*
X68239444Y-784810D02*
X68104757Y-865623D01*
X68104757Y-865623D02*
X68023945Y-946435D01*
X68023945Y-946435D02*
X67943133Y-1081122D01*
X67943133Y-1081122D02*
X67916196Y-1161934D01*
X67916196Y-1161934D02*
X67916196Y-1269684D01*
X67916196Y-1269684D02*
X67970070Y-1377433D01*
X67970070Y-1377433D02*
X68023945Y-1431308D01*
X68023945Y-1431308D02*
X68131695Y-1485183D01*
X68131695Y-1485183D02*
X68185570Y-1485183D01*
X68185570Y-1485183D02*
X68374131Y-1296621D01*
X68374131Y-1296621D02*
X68266382Y-1188871D01*
X68374131Y-1781494D02*
X68939817Y-1215809D01*
X68939817Y-1215809D02*
X69155316Y-1431308D01*
X69155316Y-1431308D02*
X69182253Y-1512120D01*
X69182253Y-1512120D02*
X69182253Y-1565995D01*
X69182253Y-1565995D02*
X69155316Y-1646807D01*
X69155316Y-1646807D02*
X69074504Y-1727619D01*
X69074504Y-1727619D02*
X68993692Y-1754557D01*
X68993692Y-1754557D02*
X68939817Y-1754557D01*
X68939817Y-1754557D02*
X68859005Y-1727619D01*
X68859005Y-1727619D02*
X68643505Y-1512120D01*
X69236128Y-2643491D02*
X68912879Y-2320242D01*
X69074504Y-2481867D02*
X69640189Y-1916181D01*
X69640189Y-1916181D02*
X69505502Y-1943119D01*
X69505502Y-1943119D02*
X69397753Y-1943119D01*
X69397753Y-1943119D02*
X69316940Y-1916181D01*
X57630950Y-26715064D02*
X57900324Y-26984438D01*
X57415450Y-26822813D02*
X58169698Y-26445690D01*
X58169698Y-26445690D02*
X57792574Y-27199937D01*
X57981136Y-27388499D02*
X58546821Y-26822813D01*
X58546821Y-26822813D02*
X58681508Y-26957500D01*
X58681508Y-26957500D02*
X58735383Y-27065250D01*
X58735383Y-27065250D02*
X58735383Y-27172999D01*
X58735383Y-27172999D02*
X58708446Y-27253812D01*
X58708446Y-27253812D02*
X58627633Y-27388499D01*
X58627633Y-27388499D02*
X58546821Y-27469311D01*
X58546821Y-27469311D02*
X58412134Y-27550123D01*
X58412134Y-27550123D02*
X58331322Y-27577060D01*
X58331322Y-27577060D02*
X58223572Y-27577060D01*
X58223572Y-27577060D02*
X58115823Y-27523186D01*
X58115823Y-27523186D02*
X57981136Y-27388499D01*
X58923945Y-28223558D02*
X58870070Y-28223558D01*
X58870070Y-28223558D02*
X58762320Y-28169683D01*
X58762320Y-28169683D02*
X58708446Y-28115808D01*
X58708446Y-28115808D02*
X58654571Y-28008059D01*
X58654571Y-28008059D02*
X58654571Y-27900309D01*
X58654571Y-27900309D02*
X58681508Y-27819497D01*
X58681508Y-27819497D02*
X58762320Y-27684810D01*
X58762320Y-27684810D02*
X58843133Y-27603998D01*
X58843133Y-27603998D02*
X58977820Y-27523186D01*
X58977820Y-27523186D02*
X59058632Y-27496248D01*
X59058632Y-27496248D02*
X59166381Y-27496248D01*
X59166381Y-27496248D02*
X59274131Y-27550123D01*
X59274131Y-27550123D02*
X59328006Y-27603998D01*
X59328006Y-27603998D02*
X59381881Y-27711747D01*
X59381881Y-27711747D02*
X59381881Y-27765622D01*
X58923945Y-28439057D02*
X59354943Y-28870056D01*
X60028378Y-28304370D02*
X59651255Y-29058618D01*
X59651255Y-29058618D02*
X60405502Y-28681494D01*
X60351627Y-29758990D02*
X60432439Y-29301054D01*
X60028378Y-29435741D02*
X60594064Y-28870056D01*
X60594064Y-28870056D02*
X60809563Y-29085555D01*
X60809563Y-29085555D02*
X60836500Y-29166367D01*
X60836500Y-29166367D02*
X60836500Y-29220242D01*
X60836500Y-29220242D02*
X60809563Y-29301054D01*
X60809563Y-29301054D02*
X60728751Y-29381866D01*
X60728751Y-29381866D02*
X60647938Y-29408804D01*
X60647938Y-29408804D02*
X60594064Y-29408804D01*
X60594064Y-29408804D02*
X60513251Y-29381866D01*
X60513251Y-29381866D02*
X60297752Y-29166367D01*
X60890375Y-29705115D02*
X61078937Y-29893677D01*
X60863438Y-30270800D02*
X60594064Y-30001426D01*
X60594064Y-30001426D02*
X61159749Y-29435741D01*
X61159749Y-29435741D02*
X61429123Y-29705115D01*
X61590748Y-30405488D02*
X61402186Y-30216926D01*
X61105874Y-30513237D02*
X61671560Y-29947552D01*
X61671560Y-29947552D02*
X61940934Y-30216926D01*
X58473505Y-1073372D02*
X58446568Y-992560D01*
X58446568Y-992560D02*
X58365756Y-911748D01*
X58365756Y-911748D02*
X58258006Y-857873D01*
X58258006Y-857873D02*
X58150257Y-857873D01*
X58150257Y-857873D02*
X58069444Y-884810D01*
X58069444Y-884810D02*
X57934757Y-965623D01*
X57934757Y-965623D02*
X57853945Y-1046435D01*
X57853945Y-1046435D02*
X57773133Y-1181122D01*
X57773133Y-1181122D02*
X57746196Y-1261934D01*
X57746196Y-1261934D02*
X57746196Y-1369684D01*
X57746196Y-1369684D02*
X57800070Y-1477433D01*
X57800070Y-1477433D02*
X57853945Y-1531308D01*
X57853945Y-1531308D02*
X57961695Y-1585183D01*
X57961695Y-1585183D02*
X58015570Y-1585183D01*
X58015570Y-1585183D02*
X58204131Y-1396621D01*
X58204131Y-1396621D02*
X58096382Y-1288871D01*
X58204131Y-1881494D02*
X58769817Y-1315809D01*
X58769817Y-1315809D02*
X58985316Y-1531308D01*
X58985316Y-1531308D02*
X59012253Y-1612120D01*
X59012253Y-1612120D02*
X59012253Y-1665995D01*
X59012253Y-1665995D02*
X58985316Y-1746807D01*
X58985316Y-1746807D02*
X58904504Y-1827619D01*
X58904504Y-1827619D02*
X58823692Y-1854557D01*
X58823692Y-1854557D02*
X58769817Y-1854557D01*
X58769817Y-1854557D02*
X58689005Y-1827619D01*
X58689005Y-1827619D02*
X58473505Y-1612120D01*
X59389377Y-2312493D02*
X59012253Y-2689616D01*
X59470189Y-1962306D02*
X58931441Y-2231680D01*
X58931441Y-2231680D02*
X59281627Y-2581867D01*
X55933505Y-1073372D02*
X55906568Y-992560D01*
X55906568Y-992560D02*
X55825756Y-911748D01*
X55825756Y-911748D02*
X55718006Y-857873D01*
X55718006Y-857873D02*
X55610257Y-857873D01*
X55610257Y-857873D02*
X55529444Y-884810D01*
X55529444Y-884810D02*
X55394757Y-965623D01*
X55394757Y-965623D02*
X55313945Y-1046435D01*
X55313945Y-1046435D02*
X55233133Y-1181122D01*
X55233133Y-1181122D02*
X55206196Y-1261934D01*
X55206196Y-1261934D02*
X55206196Y-1369684D01*
X55206196Y-1369684D02*
X55260070Y-1477433D01*
X55260070Y-1477433D02*
X55313945Y-1531308D01*
X55313945Y-1531308D02*
X55421695Y-1585183D01*
X55421695Y-1585183D02*
X55475570Y-1585183D01*
X55475570Y-1585183D02*
X55664131Y-1396621D01*
X55664131Y-1396621D02*
X55556382Y-1288871D01*
X55664131Y-1881494D02*
X56229817Y-1315809D01*
X56229817Y-1315809D02*
X56445316Y-1531308D01*
X56445316Y-1531308D02*
X56472253Y-1612120D01*
X56472253Y-1612120D02*
X56472253Y-1665995D01*
X56472253Y-1665995D02*
X56445316Y-1746807D01*
X56445316Y-1746807D02*
X56364504Y-1827619D01*
X56364504Y-1827619D02*
X56283692Y-1854557D01*
X56283692Y-1854557D02*
X56229817Y-1854557D01*
X56229817Y-1854557D02*
X56149005Y-1827619D01*
X56149005Y-1827619D02*
X55933505Y-1612120D01*
X57064876Y-2150868D02*
X56795502Y-1881494D01*
X56795502Y-1881494D02*
X56499191Y-2123931D01*
X56499191Y-2123931D02*
X56553066Y-2123931D01*
X56553066Y-2123931D02*
X56633878Y-2150868D01*
X56633878Y-2150868D02*
X56768565Y-2285555D01*
X56768565Y-2285555D02*
X56795502Y-2366367D01*
X56795502Y-2366367D02*
X56795502Y-2420242D01*
X56795502Y-2420242D02*
X56768565Y-2501054D01*
X56768565Y-2501054D02*
X56633878Y-2635741D01*
X56633878Y-2635741D02*
X56553066Y-2662679D01*
X56553066Y-2662679D02*
X56499191Y-2662679D01*
X56499191Y-2662679D02*
X56418379Y-2635741D01*
X56418379Y-2635741D02*
X56283692Y-2501054D01*
X56283692Y-2501054D02*
X56256754Y-2420242D01*
X56256754Y-2420242D02*
X56256754Y-2366367D01*
X52423759Y-26711873D02*
X52693133Y-26981247D01*
X52208260Y-26819623D02*
X52962507Y-26442499D01*
X52962507Y-26442499D02*
X52585384Y-27196746D01*
X53609005Y-27142871D02*
X53582067Y-27062059D01*
X53582067Y-27062059D02*
X53501255Y-26981247D01*
X53501255Y-26981247D02*
X53393505Y-26927372D01*
X53393505Y-26927372D02*
X53285756Y-26927372D01*
X53285756Y-26927372D02*
X53204944Y-26954310D01*
X53204944Y-26954310D02*
X53070257Y-27035122D01*
X53070257Y-27035122D02*
X52989444Y-27115934D01*
X52989444Y-27115934D02*
X52908632Y-27250621D01*
X52908632Y-27250621D02*
X52881695Y-27331433D01*
X52881695Y-27331433D02*
X52881695Y-27439183D01*
X52881695Y-27439183D02*
X52935570Y-27546932D01*
X52935570Y-27546932D02*
X52989444Y-27600807D01*
X52989444Y-27600807D02*
X53097194Y-27654682D01*
X53097194Y-27654682D02*
X53151069Y-27654682D01*
X53151069Y-27654682D02*
X53339631Y-27466120D01*
X53339631Y-27466120D02*
X53231881Y-27358371D01*
X53339631Y-27950993D02*
X53905316Y-27385308D01*
X53905316Y-27385308D02*
X53662879Y-28274242D01*
X53662879Y-28274242D02*
X54228565Y-27708557D01*
X53932253Y-28543616D02*
X54497939Y-27977931D01*
X54497939Y-27977931D02*
X54632626Y-28112618D01*
X54632626Y-28112618D02*
X54686501Y-28220367D01*
X54686501Y-28220367D02*
X54686501Y-28328117D01*
X54686501Y-28328117D02*
X54659563Y-28408929D01*
X54659563Y-28408929D02*
X54578751Y-28543616D01*
X54578751Y-28543616D02*
X54497939Y-28624428D01*
X54497939Y-28624428D02*
X54363252Y-28705241D01*
X54363252Y-28705241D02*
X54282439Y-28732178D01*
X54282439Y-28732178D02*
X54174690Y-28732178D01*
X54174690Y-28732178D02*
X54066940Y-28678303D01*
X54066940Y-28678303D02*
X53932253Y-28543616D01*
X50853505Y-1073372D02*
X50826568Y-992560D01*
X50826568Y-992560D02*
X50745756Y-911748D01*
X50745756Y-911748D02*
X50638006Y-857873D01*
X50638006Y-857873D02*
X50530257Y-857873D01*
X50530257Y-857873D02*
X50449444Y-884810D01*
X50449444Y-884810D02*
X50314757Y-965623D01*
X50314757Y-965623D02*
X50233945Y-1046435D01*
X50233945Y-1046435D02*
X50153133Y-1181122D01*
X50153133Y-1181122D02*
X50126196Y-1261934D01*
X50126196Y-1261934D02*
X50126196Y-1369684D01*
X50126196Y-1369684D02*
X50180070Y-1477433D01*
X50180070Y-1477433D02*
X50233945Y-1531308D01*
X50233945Y-1531308D02*
X50341695Y-1585183D01*
X50341695Y-1585183D02*
X50395570Y-1585183D01*
X50395570Y-1585183D02*
X50584131Y-1396621D01*
X50584131Y-1396621D02*
X50476382Y-1288871D01*
X50584131Y-1881494D02*
X51149817Y-1315809D01*
X51149817Y-1315809D02*
X51365316Y-1531308D01*
X51365316Y-1531308D02*
X51392253Y-1612120D01*
X51392253Y-1612120D02*
X51392253Y-1665995D01*
X51392253Y-1665995D02*
X51365316Y-1746807D01*
X51365316Y-1746807D02*
X51284504Y-1827619D01*
X51284504Y-1827619D02*
X51203692Y-1854557D01*
X51203692Y-1854557D02*
X51149817Y-1854557D01*
X51149817Y-1854557D02*
X51069005Y-1827619D01*
X51069005Y-1827619D02*
X50853505Y-1612120D01*
X51957939Y-2123931D02*
X51850189Y-2016181D01*
X51850189Y-2016181D02*
X51769377Y-1989244D01*
X51769377Y-1989244D02*
X51715502Y-1989244D01*
X51715502Y-1989244D02*
X51580815Y-2016181D01*
X51580815Y-2016181D02*
X51446128Y-2096993D01*
X51446128Y-2096993D02*
X51230629Y-2312493D01*
X51230629Y-2312493D02*
X51203692Y-2393305D01*
X51203692Y-2393305D02*
X51203692Y-2447180D01*
X51203692Y-2447180D02*
X51230629Y-2527992D01*
X51230629Y-2527992D02*
X51338379Y-2635741D01*
X51338379Y-2635741D02*
X51419191Y-2662679D01*
X51419191Y-2662679D02*
X51473066Y-2662679D01*
X51473066Y-2662679D02*
X51553878Y-2635741D01*
X51553878Y-2635741D02*
X51688565Y-2501054D01*
X51688565Y-2501054D02*
X51715502Y-2420242D01*
X51715502Y-2420242D02*
X51715502Y-2366367D01*
X51715502Y-2366367D02*
X51688565Y-2285555D01*
X51688565Y-2285555D02*
X51580815Y-2177806D01*
X51580815Y-2177806D02*
X51500003Y-2150868D01*
X51500003Y-2150868D02*
X51446128Y-2150868D01*
X51446128Y-2150868D02*
X51365316Y-2177806D01*
X22644131Y-26657998D02*
X22617194Y-26577185D01*
X22617194Y-26577185D02*
X22536381Y-26496373D01*
X22536381Y-26496373D02*
X22428632Y-26442498D01*
X22428632Y-26442498D02*
X22320882Y-26442498D01*
X22320882Y-26442498D02*
X22240070Y-26469436D01*
X22240070Y-26469436D02*
X22105383Y-26550248D01*
X22105383Y-26550248D02*
X22024571Y-26631060D01*
X22024571Y-26631060D02*
X21943758Y-26765747D01*
X21943758Y-26765747D02*
X21916821Y-26846560D01*
X21916821Y-26846560D02*
X21916821Y-26954309D01*
X21916821Y-26954309D02*
X21970696Y-27062059D01*
X21970696Y-27062059D02*
X22024571Y-27115934D01*
X22024571Y-27115934D02*
X22132320Y-27169808D01*
X22132320Y-27169808D02*
X22186195Y-27169808D01*
X22186195Y-27169808D02*
X22374757Y-26981247D01*
X22374757Y-26981247D02*
X22267007Y-26873497D01*
X22374757Y-27466120D02*
X22940442Y-26900434D01*
X22940442Y-26900434D02*
X23155942Y-27115934D01*
X23155942Y-27115934D02*
X23182879Y-27196746D01*
X23182879Y-27196746D02*
X23182879Y-27250621D01*
X23182879Y-27250621D02*
X23155942Y-27331433D01*
X23155942Y-27331433D02*
X23075129Y-27412245D01*
X23075129Y-27412245D02*
X22994317Y-27439182D01*
X22994317Y-27439182D02*
X22940442Y-27439182D01*
X22940442Y-27439182D02*
X22859630Y-27412245D01*
X22859630Y-27412245D02*
X22644131Y-27196746D01*
X23236754Y-28328117D02*
X22913505Y-28004868D01*
X23075129Y-28166492D02*
X23640815Y-27600807D01*
X23640815Y-27600807D02*
X23506128Y-27627744D01*
X23506128Y-27627744D02*
X23398378Y-27627744D01*
X23398378Y-27627744D02*
X23317566Y-27600807D01*
X24287313Y-28247305D02*
X24179563Y-28139555D01*
X24179563Y-28139555D02*
X24098751Y-28112618D01*
X24098751Y-28112618D02*
X24044876Y-28112618D01*
X24044876Y-28112618D02*
X23910189Y-28139555D01*
X23910189Y-28139555D02*
X23775502Y-28220367D01*
X23775502Y-28220367D02*
X23560003Y-28435866D01*
X23560003Y-28435866D02*
X23533065Y-28516679D01*
X23533065Y-28516679D02*
X23533065Y-28570553D01*
X23533065Y-28570553D02*
X23560003Y-28651366D01*
X23560003Y-28651366D02*
X23667752Y-28759115D01*
X23667752Y-28759115D02*
X23748565Y-28786053D01*
X23748565Y-28786053D02*
X23802439Y-28786053D01*
X23802439Y-28786053D02*
X23883252Y-28759115D01*
X23883252Y-28759115D02*
X24017939Y-28624428D01*
X24017939Y-28624428D02*
X24044876Y-28543616D01*
X24044876Y-28543616D02*
X24044876Y-28489741D01*
X24044876Y-28489741D02*
X24017939Y-28408929D01*
X24017939Y-28408929D02*
X23910189Y-28301179D01*
X23910189Y-28301179D02*
X23829377Y-28274242D01*
X23829377Y-28274242D02*
X23775502Y-28274242D01*
X23775502Y-28274242D02*
X23694690Y-28301179D01*
X30264131Y-549998D02*
X30237194Y-469185D01*
X30237194Y-469185D02*
X30156381Y-388373D01*
X30156381Y-388373D02*
X30048632Y-334498D01*
X30048632Y-334498D02*
X29940882Y-334498D01*
X29940882Y-334498D02*
X29860070Y-361436D01*
X29860070Y-361436D02*
X29725383Y-442248D01*
X29725383Y-442248D02*
X29644571Y-523060D01*
X29644571Y-523060D02*
X29563758Y-657747D01*
X29563758Y-657747D02*
X29536821Y-738560D01*
X29536821Y-738560D02*
X29536821Y-846309D01*
X29536821Y-846309D02*
X29590696Y-954059D01*
X29590696Y-954059D02*
X29644571Y-1007934D01*
X29644571Y-1007934D02*
X29752320Y-1061808D01*
X29752320Y-1061808D02*
X29806195Y-1061808D01*
X29806195Y-1061808D02*
X29994757Y-873247D01*
X29994757Y-873247D02*
X29887007Y-765497D01*
X29994757Y-1358120D02*
X30560442Y-792434D01*
X30560442Y-792434D02*
X30775942Y-1007934D01*
X30775942Y-1007934D02*
X30802879Y-1088746D01*
X30802879Y-1088746D02*
X30802879Y-1142621D01*
X30802879Y-1142621D02*
X30775942Y-1223433D01*
X30775942Y-1223433D02*
X30695129Y-1304245D01*
X30695129Y-1304245D02*
X30614317Y-1331182D01*
X30614317Y-1331182D02*
X30560442Y-1331182D01*
X30560442Y-1331182D02*
X30479630Y-1304245D01*
X30479630Y-1304245D02*
X30264131Y-1088746D01*
X30856754Y-2220117D02*
X30533505Y-1896868D01*
X30695129Y-2058492D02*
X31260815Y-1492807D01*
X31260815Y-1492807D02*
X31126128Y-1519744D01*
X31126128Y-1519744D02*
X31018378Y-1519744D01*
X31018378Y-1519744D02*
X30937566Y-1492807D01*
X31611001Y-1842993D02*
X31961187Y-2193179D01*
X31961187Y-2193179D02*
X31557126Y-2220117D01*
X31557126Y-2220117D02*
X31637939Y-2300929D01*
X31637939Y-2300929D02*
X31664876Y-2381741D01*
X31664876Y-2381741D02*
X31664876Y-2435616D01*
X31664876Y-2435616D02*
X31637939Y-2516428D01*
X31637939Y-2516428D02*
X31503252Y-2651115D01*
X31503252Y-2651115D02*
X31422439Y-2678053D01*
X31422439Y-2678053D02*
X31368565Y-2678053D01*
X31368565Y-2678053D02*
X31287752Y-2651115D01*
X31287752Y-2651115D02*
X31126128Y-2489491D01*
X31126128Y-2489491D02*
X31099191Y-2408679D01*
X31099191Y-2408679D02*
X31099191Y-2354804D01*
X30264131Y-26657998D02*
X30237194Y-26577185D01*
X30237194Y-26577185D02*
X30156381Y-26496373D01*
X30156381Y-26496373D02*
X30048632Y-26442498D01*
X30048632Y-26442498D02*
X29940882Y-26442498D01*
X29940882Y-26442498D02*
X29860070Y-26469436D01*
X29860070Y-26469436D02*
X29725383Y-26550248D01*
X29725383Y-26550248D02*
X29644571Y-26631060D01*
X29644571Y-26631060D02*
X29563758Y-26765747D01*
X29563758Y-26765747D02*
X29536821Y-26846560D01*
X29536821Y-26846560D02*
X29536821Y-26954309D01*
X29536821Y-26954309D02*
X29590696Y-27062059D01*
X29590696Y-27062059D02*
X29644571Y-27115934D01*
X29644571Y-27115934D02*
X29752320Y-27169808D01*
X29752320Y-27169808D02*
X29806195Y-27169808D01*
X29806195Y-27169808D02*
X29994757Y-26981247D01*
X29994757Y-26981247D02*
X29887007Y-26873497D01*
X29994757Y-27466120D02*
X30560442Y-26900434D01*
X30560442Y-26900434D02*
X30775942Y-27115934D01*
X30775942Y-27115934D02*
X30802879Y-27196746D01*
X30802879Y-27196746D02*
X30802879Y-27250621D01*
X30802879Y-27250621D02*
X30775942Y-27331433D01*
X30775942Y-27331433D02*
X30695129Y-27412245D01*
X30695129Y-27412245D02*
X30614317Y-27439182D01*
X30614317Y-27439182D02*
X30560442Y-27439182D01*
X30560442Y-27439182D02*
X30479630Y-27412245D01*
X30479630Y-27412245D02*
X30264131Y-27196746D01*
X30856754Y-28328117D02*
X30533505Y-28004868D01*
X30695129Y-28166492D02*
X31260815Y-27600807D01*
X31260815Y-27600807D02*
X31126128Y-27627744D01*
X31126128Y-27627744D02*
X31018378Y-27627744D01*
X31018378Y-27627744D02*
X30937566Y-27600807D01*
X31503252Y-28328117D02*
X31476314Y-28247305D01*
X31476314Y-28247305D02*
X31476314Y-28193430D01*
X31476314Y-28193430D02*
X31503252Y-28112618D01*
X31503252Y-28112618D02*
X31530189Y-28085680D01*
X31530189Y-28085680D02*
X31611001Y-28058743D01*
X31611001Y-28058743D02*
X31664876Y-28058743D01*
X31664876Y-28058743D02*
X31745688Y-28085680D01*
X31745688Y-28085680D02*
X31853438Y-28193430D01*
X31853438Y-28193430D02*
X31880375Y-28274242D01*
X31880375Y-28274242D02*
X31880375Y-28328117D01*
X31880375Y-28328117D02*
X31853438Y-28408929D01*
X31853438Y-28408929D02*
X31826500Y-28435866D01*
X31826500Y-28435866D02*
X31745688Y-28462804D01*
X31745688Y-28462804D02*
X31691813Y-28462804D01*
X31691813Y-28462804D02*
X31611001Y-28435866D01*
X31611001Y-28435866D02*
X31503252Y-28328117D01*
X31503252Y-28328117D02*
X31422439Y-28301179D01*
X31422439Y-28301179D02*
X31368565Y-28301179D01*
X31368565Y-28301179D02*
X31287752Y-28328117D01*
X31287752Y-28328117D02*
X31180003Y-28435866D01*
X31180003Y-28435866D02*
X31153065Y-28516679D01*
X31153065Y-28516679D02*
X31153065Y-28570553D01*
X31153065Y-28570553D02*
X31180003Y-28651366D01*
X31180003Y-28651366D02*
X31287752Y-28759115D01*
X31287752Y-28759115D02*
X31368565Y-28786053D01*
X31368565Y-28786053D02*
X31422439Y-28786053D01*
X31422439Y-28786053D02*
X31503252Y-28759115D01*
X31503252Y-28759115D02*
X31611001Y-28651366D01*
X31611001Y-28651366D02*
X31637939Y-28570553D01*
X31637939Y-28570553D02*
X31637939Y-28516679D01*
X31637939Y-28516679D02*
X31611001Y-28435866D01*
X32804131Y-403998D02*
X32777194Y-323185D01*
X32777194Y-323185D02*
X32696381Y-242373D01*
X32696381Y-242373D02*
X32588632Y-188498D01*
X32588632Y-188498D02*
X32480882Y-188498D01*
X32480882Y-188498D02*
X32400070Y-215436D01*
X32400070Y-215436D02*
X32265383Y-296248D01*
X32265383Y-296248D02*
X32184571Y-377060D01*
X32184571Y-377060D02*
X32103758Y-511747D01*
X32103758Y-511747D02*
X32076821Y-592560D01*
X32076821Y-592560D02*
X32076821Y-700309D01*
X32076821Y-700309D02*
X32130696Y-808059D01*
X32130696Y-808059D02*
X32184571Y-861934D01*
X32184571Y-861934D02*
X32292320Y-915808D01*
X32292320Y-915808D02*
X32346195Y-915808D01*
X32346195Y-915808D02*
X32534757Y-727247D01*
X32534757Y-727247D02*
X32427007Y-619497D01*
X32534757Y-1212120D02*
X33100442Y-646434D01*
X33100442Y-646434D02*
X33315942Y-861934D01*
X33315942Y-861934D02*
X33342879Y-942746D01*
X33342879Y-942746D02*
X33342879Y-996621D01*
X33342879Y-996621D02*
X33315942Y-1077433D01*
X33315942Y-1077433D02*
X33235129Y-1158245D01*
X33235129Y-1158245D02*
X33154317Y-1185182D01*
X33154317Y-1185182D02*
X33100442Y-1185182D01*
X33100442Y-1185182D02*
X33019630Y-1158245D01*
X33019630Y-1158245D02*
X32804131Y-942746D01*
X33396754Y-2074117D02*
X33073505Y-1750868D01*
X33235129Y-1912492D02*
X33800815Y-1346807D01*
X33800815Y-1346807D02*
X33666128Y-1373744D01*
X33666128Y-1373744D02*
X33558378Y-1373744D01*
X33558378Y-1373744D02*
X33477566Y-1346807D01*
X34124064Y-1777805D02*
X34177939Y-1777805D01*
X34177939Y-1777805D02*
X34258751Y-1804743D01*
X34258751Y-1804743D02*
X34393438Y-1939430D01*
X34393438Y-1939430D02*
X34420375Y-2020242D01*
X34420375Y-2020242D02*
X34420375Y-2074117D01*
X34420375Y-2074117D02*
X34393438Y-2154929D01*
X34393438Y-2154929D02*
X34339563Y-2208804D01*
X34339563Y-2208804D02*
X34231813Y-2262679D01*
X34231813Y-2262679D02*
X33585316Y-2262679D01*
X33585316Y-2262679D02*
X33935502Y-2612865D01*
X4371666Y-4379819D02*
X4371666Y-5094104D01*
X4371666Y-5094104D02*
X4324047Y-5236961D01*
X4324047Y-5236961D02*
X4228809Y-5332200D01*
X4228809Y-5332200D02*
X4085952Y-5379819D01*
X4085952Y-5379819D02*
X3990714Y-5379819D01*
X5371666Y-5379819D02*
X4800238Y-5379819D01*
X5085952Y-5379819D02*
X5085952Y-4379819D01*
X5085952Y-4379819D02*
X4990714Y-4522676D01*
X4990714Y-4522676D02*
X4895476Y-4617914D01*
X4895476Y-4617914D02*
X4800238Y-4665533D01*
X46872142Y-8359819D02*
X46538809Y-7883628D01*
X46300714Y-8359819D02*
X46300714Y-7359819D01*
X46300714Y-7359819D02*
X46681666Y-7359819D01*
X46681666Y-7359819D02*
X46776904Y-7407438D01*
X46776904Y-7407438D02*
X46824523Y-7455057D01*
X46824523Y-7455057D02*
X46872142Y-7550295D01*
X46872142Y-7550295D02*
X46872142Y-7693152D01*
X46872142Y-7693152D02*
X46824523Y-7788390D01*
X46824523Y-7788390D02*
X46776904Y-7836009D01*
X46776904Y-7836009D02*
X46681666Y-7883628D01*
X46681666Y-7883628D02*
X46300714Y-7883628D01*
X47253095Y-7455057D02*
X47300714Y-7407438D01*
X47300714Y-7407438D02*
X47395952Y-7359819D01*
X47395952Y-7359819D02*
X47634047Y-7359819D01*
X47634047Y-7359819D02*
X47729285Y-7407438D01*
X47729285Y-7407438D02*
X47776904Y-7455057D01*
X47776904Y-7455057D02*
X47824523Y-7550295D01*
X47824523Y-7550295D02*
X47824523Y-7645533D01*
X47824523Y-7645533D02*
X47776904Y-7788390D01*
X47776904Y-7788390D02*
X47205476Y-8359819D01*
X47205476Y-8359819D02*
X47824523Y-8359819D01*
X48205476Y-7455057D02*
X48253095Y-7407438D01*
X48253095Y-7407438D02*
X48348333Y-7359819D01*
X48348333Y-7359819D02*
X48586428Y-7359819D01*
X48586428Y-7359819D02*
X48681666Y-7407438D01*
X48681666Y-7407438D02*
X48729285Y-7455057D01*
X48729285Y-7455057D02*
X48776904Y-7550295D01*
X48776904Y-7550295D02*
X48776904Y-7645533D01*
X48776904Y-7645533D02*
X48729285Y-7788390D01*
X48729285Y-7788390D02*
X48157857Y-8359819D01*
X48157857Y-8359819D02*
X48776904Y-8359819D01*
X30958333Y-18224819D02*
X30625000Y-17748628D01*
X30386905Y-18224819D02*
X30386905Y-17224819D01*
X30386905Y-17224819D02*
X30767857Y-17224819D01*
X30767857Y-17224819D02*
X30863095Y-17272438D01*
X30863095Y-17272438D02*
X30910714Y-17320057D01*
X30910714Y-17320057D02*
X30958333Y-17415295D01*
X30958333Y-17415295D02*
X30958333Y-17558152D01*
X30958333Y-17558152D02*
X30910714Y-17653390D01*
X30910714Y-17653390D02*
X30863095Y-17701009D01*
X30863095Y-17701009D02*
X30767857Y-17748628D01*
X30767857Y-17748628D02*
X30386905Y-17748628D01*
X31815476Y-17224819D02*
X31625000Y-17224819D01*
X31625000Y-17224819D02*
X31529762Y-17272438D01*
X31529762Y-17272438D02*
X31482143Y-17320057D01*
X31482143Y-17320057D02*
X31386905Y-17462914D01*
X31386905Y-17462914D02*
X31339286Y-17653390D01*
X31339286Y-17653390D02*
X31339286Y-18034342D01*
X31339286Y-18034342D02*
X31386905Y-18129580D01*
X31386905Y-18129580D02*
X31434524Y-18177200D01*
X31434524Y-18177200D02*
X31529762Y-18224819D01*
X31529762Y-18224819D02*
X31720238Y-18224819D01*
X31720238Y-18224819D02*
X31815476Y-18177200D01*
X31815476Y-18177200D02*
X31863095Y-18129580D01*
X31863095Y-18129580D02*
X31910714Y-18034342D01*
X31910714Y-18034342D02*
X31910714Y-17796247D01*
X31910714Y-17796247D02*
X31863095Y-17701009D01*
X31863095Y-17701009D02*
X31815476Y-17653390D01*
X31815476Y-17653390D02*
X31720238Y-17605771D01*
X31720238Y-17605771D02*
X31529762Y-17605771D01*
X31529762Y-17605771D02*
X31434524Y-17653390D01*
X31434524Y-17653390D02*
X31386905Y-17701009D01*
X31386905Y-17701009D02*
X31339286Y-17796247D01*
X32608333Y-20199819D02*
X32275000Y-19723628D01*
X32036905Y-20199819D02*
X32036905Y-19199819D01*
X32036905Y-19199819D02*
X32417857Y-19199819D01*
X32417857Y-19199819D02*
X32513095Y-19247438D01*
X32513095Y-19247438D02*
X32560714Y-19295057D01*
X32560714Y-19295057D02*
X32608333Y-19390295D01*
X32608333Y-19390295D02*
X32608333Y-19533152D01*
X32608333Y-19533152D02*
X32560714Y-19628390D01*
X32560714Y-19628390D02*
X32513095Y-19676009D01*
X32513095Y-19676009D02*
X32417857Y-19723628D01*
X32417857Y-19723628D02*
X32036905Y-19723628D01*
X32941667Y-19199819D02*
X33608333Y-19199819D01*
X33608333Y-19199819D02*
X33179762Y-20199819D01*
X12586905Y-11004819D02*
X12586905Y-10004819D01*
X12586905Y-10004819D02*
X12825000Y-10004819D01*
X12825000Y-10004819D02*
X12967857Y-10052438D01*
X12967857Y-10052438D02*
X13063095Y-10147676D01*
X13063095Y-10147676D02*
X13110714Y-10242914D01*
X13110714Y-10242914D02*
X13158333Y-10433390D01*
X13158333Y-10433390D02*
X13158333Y-10576247D01*
X13158333Y-10576247D02*
X13110714Y-10766723D01*
X13110714Y-10766723D02*
X13063095Y-10861961D01*
X13063095Y-10861961D02*
X12967857Y-10957200D01*
X12967857Y-10957200D02*
X12825000Y-11004819D01*
X12825000Y-11004819D02*
X12586905Y-11004819D01*
X13539286Y-10100057D02*
X13586905Y-10052438D01*
X13586905Y-10052438D02*
X13682143Y-10004819D01*
X13682143Y-10004819D02*
X13920238Y-10004819D01*
X13920238Y-10004819D02*
X14015476Y-10052438D01*
X14015476Y-10052438D02*
X14063095Y-10100057D01*
X14063095Y-10100057D02*
X14110714Y-10195295D01*
X14110714Y-10195295D02*
X14110714Y-10290533D01*
X14110714Y-10290533D02*
X14063095Y-10433390D01*
X14063095Y-10433390D02*
X13491667Y-11004819D01*
X13491667Y-11004819D02*
X14110714Y-11004819D01*
X9193095Y-6004819D02*
X9193095Y-5004819D01*
X9764523Y-6004819D02*
X9335952Y-5433390D01*
X9764523Y-5004819D02*
X9193095Y-5576247D01*
X23572142Y-37374819D02*
X23238809Y-36898628D01*
X23000714Y-37374819D02*
X23000714Y-36374819D01*
X23000714Y-36374819D02*
X23381666Y-36374819D01*
X23381666Y-36374819D02*
X23476904Y-36422438D01*
X23476904Y-36422438D02*
X23524523Y-36470057D01*
X23524523Y-36470057D02*
X23572142Y-36565295D01*
X23572142Y-36565295D02*
X23572142Y-36708152D01*
X23572142Y-36708152D02*
X23524523Y-36803390D01*
X23524523Y-36803390D02*
X23476904Y-36851009D01*
X23476904Y-36851009D02*
X23381666Y-36898628D01*
X23381666Y-36898628D02*
X23000714Y-36898628D01*
X23953095Y-36470057D02*
X24000714Y-36422438D01*
X24000714Y-36422438D02*
X24095952Y-36374819D01*
X24095952Y-36374819D02*
X24334047Y-36374819D01*
X24334047Y-36374819D02*
X24429285Y-36422438D01*
X24429285Y-36422438D02*
X24476904Y-36470057D01*
X24476904Y-36470057D02*
X24524523Y-36565295D01*
X24524523Y-36565295D02*
X24524523Y-36660533D01*
X24524523Y-36660533D02*
X24476904Y-36803390D01*
X24476904Y-36803390D02*
X23905476Y-37374819D01*
X23905476Y-37374819D02*
X24524523Y-37374819D01*
X25381666Y-36374819D02*
X25191190Y-36374819D01*
X25191190Y-36374819D02*
X25095952Y-36422438D01*
X25095952Y-36422438D02*
X25048333Y-36470057D01*
X25048333Y-36470057D02*
X24953095Y-36612914D01*
X24953095Y-36612914D02*
X24905476Y-36803390D01*
X24905476Y-36803390D02*
X24905476Y-37184342D01*
X24905476Y-37184342D02*
X24953095Y-37279580D01*
X24953095Y-37279580D02*
X25000714Y-37327200D01*
X25000714Y-37327200D02*
X25095952Y-37374819D01*
X25095952Y-37374819D02*
X25286428Y-37374819D01*
X25286428Y-37374819D02*
X25381666Y-37327200D01*
X25381666Y-37327200D02*
X25429285Y-37279580D01*
X25429285Y-37279580D02*
X25476904Y-37184342D01*
X25476904Y-37184342D02*
X25476904Y-36946247D01*
X25476904Y-36946247D02*
X25429285Y-36851009D01*
X25429285Y-36851009D02*
X25381666Y-36803390D01*
X25381666Y-36803390D02*
X25286428Y-36755771D01*
X25286428Y-36755771D02*
X25095952Y-36755771D01*
X25095952Y-36755771D02*
X25000714Y-36803390D01*
X25000714Y-36803390D02*
X24953095Y-36851009D01*
X24953095Y-36851009D02*
X24905476Y-36946247D01*
X54827380Y-51981009D02*
X54970237Y-52028628D01*
X54970237Y-52028628D02*
X55017856Y-52076247D01*
X55017856Y-52076247D02*
X55065475Y-52171485D01*
X55065475Y-52171485D02*
X55065475Y-52314342D01*
X55065475Y-52314342D02*
X55017856Y-52409580D01*
X55017856Y-52409580D02*
X54970237Y-52457200D01*
X54970237Y-52457200D02*
X54874999Y-52504819D01*
X54874999Y-52504819D02*
X54494047Y-52504819D01*
X54494047Y-52504819D02*
X54494047Y-51504819D01*
X54494047Y-51504819D02*
X54827380Y-51504819D01*
X54827380Y-51504819D02*
X54922618Y-51552438D01*
X54922618Y-51552438D02*
X54970237Y-51600057D01*
X54970237Y-51600057D02*
X55017856Y-51695295D01*
X55017856Y-51695295D02*
X55017856Y-51790533D01*
X55017856Y-51790533D02*
X54970237Y-51885771D01*
X54970237Y-51885771D02*
X54922618Y-51933390D01*
X54922618Y-51933390D02*
X54827380Y-51981009D01*
X54827380Y-51981009D02*
X54494047Y-51981009D01*
X55970237Y-52504819D02*
X55494047Y-52504819D01*
X55494047Y-52504819D02*
X55494047Y-51504819D01*
X56065476Y-52600057D02*
X56827380Y-52600057D01*
X57541666Y-52504819D02*
X57065476Y-52504819D01*
X57065476Y-52504819D02*
X57065476Y-51504819D01*
X57875000Y-51981009D02*
X58208333Y-51981009D01*
X58351190Y-52504819D02*
X57875000Y-52504819D01*
X57875000Y-52504819D02*
X57875000Y-51504819D01*
X57875000Y-51504819D02*
X58351190Y-51504819D01*
X58779762Y-52504819D02*
X58779762Y-51504819D01*
X58779762Y-51504819D02*
X59017857Y-51504819D01*
X59017857Y-51504819D02*
X59160714Y-51552438D01*
X59160714Y-51552438D02*
X59255952Y-51647676D01*
X59255952Y-51647676D02*
X59303571Y-51742914D01*
X59303571Y-51742914D02*
X59351190Y-51933390D01*
X59351190Y-51933390D02*
X59351190Y-52076247D01*
X59351190Y-52076247D02*
X59303571Y-52266723D01*
X59303571Y-52266723D02*
X59255952Y-52361961D01*
X59255952Y-52361961D02*
X59160714Y-52457200D01*
X59160714Y-52457200D02*
X59017857Y-52504819D01*
X59017857Y-52504819D02*
X58779762Y-52504819D01*
X60303571Y-52504819D02*
X59732143Y-52504819D01*
X60017857Y-52504819D02*
X60017857Y-51504819D01*
X60017857Y-51504819D02*
X59922619Y-51647676D01*
X59922619Y-51647676D02*
X59827381Y-51742914D01*
X59827381Y-51742914D02*
X59732143Y-51790533D01*
X17067142Y-32954819D02*
X16733809Y-32478628D01*
X16495714Y-32954819D02*
X16495714Y-31954819D01*
X16495714Y-31954819D02*
X16876666Y-31954819D01*
X16876666Y-31954819D02*
X16971904Y-32002438D01*
X16971904Y-32002438D02*
X17019523Y-32050057D01*
X17019523Y-32050057D02*
X17067142Y-32145295D01*
X17067142Y-32145295D02*
X17067142Y-32288152D01*
X17067142Y-32288152D02*
X17019523Y-32383390D01*
X17019523Y-32383390D02*
X16971904Y-32431009D01*
X16971904Y-32431009D02*
X16876666Y-32478628D01*
X16876666Y-32478628D02*
X16495714Y-32478628D01*
X17448095Y-32050057D02*
X17495714Y-32002438D01*
X17495714Y-32002438D02*
X17590952Y-31954819D01*
X17590952Y-31954819D02*
X17829047Y-31954819D01*
X17829047Y-31954819D02*
X17924285Y-32002438D01*
X17924285Y-32002438D02*
X17971904Y-32050057D01*
X17971904Y-32050057D02*
X18019523Y-32145295D01*
X18019523Y-32145295D02*
X18019523Y-32240533D01*
X18019523Y-32240533D02*
X17971904Y-32383390D01*
X17971904Y-32383390D02*
X17400476Y-32954819D01*
X17400476Y-32954819D02*
X18019523Y-32954819D01*
X18924285Y-31954819D02*
X18448095Y-31954819D01*
X18448095Y-31954819D02*
X18400476Y-32431009D01*
X18400476Y-32431009D02*
X18448095Y-32383390D01*
X18448095Y-32383390D02*
X18543333Y-32335771D01*
X18543333Y-32335771D02*
X18781428Y-32335771D01*
X18781428Y-32335771D02*
X18876666Y-32383390D01*
X18876666Y-32383390D02*
X18924285Y-32431009D01*
X18924285Y-32431009D02*
X18971904Y-32526247D01*
X18971904Y-32526247D02*
X18971904Y-32764342D01*
X18971904Y-32764342D02*
X18924285Y-32859580D01*
X18924285Y-32859580D02*
X18876666Y-32907200D01*
X18876666Y-32907200D02*
X18781428Y-32954819D01*
X18781428Y-32954819D02*
X18543333Y-32954819D01*
X18543333Y-32954819D02*
X18448095Y-32907200D01*
X18448095Y-32907200D02*
X18400476Y-32859580D01*
X48745237Y-52529819D02*
X48411904Y-52053628D01*
X48173809Y-52529819D02*
X48173809Y-51529819D01*
X48173809Y-51529819D02*
X48554761Y-51529819D01*
X48554761Y-51529819D02*
X48649999Y-51577438D01*
X48649999Y-51577438D02*
X48697618Y-51625057D01*
X48697618Y-51625057D02*
X48745237Y-51720295D01*
X48745237Y-51720295D02*
X48745237Y-51863152D01*
X48745237Y-51863152D02*
X48697618Y-51958390D01*
X48697618Y-51958390D02*
X48649999Y-52006009D01*
X48649999Y-52006009D02*
X48554761Y-52053628D01*
X48554761Y-52053628D02*
X48173809Y-52053628D01*
X49173809Y-52529819D02*
X49173809Y-51529819D01*
X49173809Y-51529819D02*
X49411904Y-51529819D01*
X49411904Y-51529819D02*
X49554761Y-51577438D01*
X49554761Y-51577438D02*
X49649999Y-51672676D01*
X49649999Y-51672676D02*
X49697618Y-51767914D01*
X49697618Y-51767914D02*
X49745237Y-51958390D01*
X49745237Y-51958390D02*
X49745237Y-52101247D01*
X49745237Y-52101247D02*
X49697618Y-52291723D01*
X49697618Y-52291723D02*
X49649999Y-52386961D01*
X49649999Y-52386961D02*
X49554761Y-52482200D01*
X49554761Y-52482200D02*
X49411904Y-52529819D01*
X49411904Y-52529819D02*
X49173809Y-52529819D01*
X49935714Y-52625057D02*
X50697618Y-52625057D01*
X51411904Y-52529819D02*
X50935714Y-52529819D01*
X50935714Y-52529819D02*
X50935714Y-51529819D01*
X51745238Y-52006009D02*
X52078571Y-52006009D01*
X52221428Y-52529819D02*
X51745238Y-52529819D01*
X51745238Y-52529819D02*
X51745238Y-51529819D01*
X51745238Y-51529819D02*
X52221428Y-51529819D01*
X52650000Y-52529819D02*
X52650000Y-51529819D01*
X52650000Y-51529819D02*
X52888095Y-51529819D01*
X52888095Y-51529819D02*
X53030952Y-51577438D01*
X53030952Y-51577438D02*
X53126190Y-51672676D01*
X53126190Y-51672676D02*
X53173809Y-51767914D01*
X53173809Y-51767914D02*
X53221428Y-51958390D01*
X53221428Y-51958390D02*
X53221428Y-52101247D01*
X53221428Y-52101247D02*
X53173809Y-52291723D01*
X53173809Y-52291723D02*
X53126190Y-52386961D01*
X53126190Y-52386961D02*
X53030952Y-52482200D01*
X53030952Y-52482200D02*
X52888095Y-52529819D01*
X52888095Y-52529819D02*
X52650000Y-52529819D01*
X54173809Y-52529819D02*
X53602381Y-52529819D01*
X53888095Y-52529819D02*
X53888095Y-51529819D01*
X53888095Y-51529819D02*
X53792857Y-51672676D01*
X53792857Y-51672676D02*
X53697619Y-51767914D01*
X53697619Y-51767914D02*
X53602381Y-51815533D01*
X64991812Y-38471844D02*
X64991812Y-38928987D01*
X64991812Y-38928987D02*
X64961335Y-39020415D01*
X64961335Y-39020415D02*
X64900383Y-39081368D01*
X64900383Y-39081368D02*
X64808954Y-39111844D01*
X64808954Y-39111844D02*
X64748002Y-39111844D01*
X65570859Y-38685177D02*
X65570859Y-39111844D01*
X65418478Y-38441368D02*
X65266097Y-38898510D01*
X65266097Y-38898510D02*
X65662288Y-38898510D01*
X8644761Y-30080057D02*
X8549523Y-30032438D01*
X8549523Y-30032438D02*
X8454285Y-29937200D01*
X8454285Y-29937200D02*
X8311428Y-29794342D01*
X8311428Y-29794342D02*
X8216190Y-29746723D01*
X8216190Y-29746723D02*
X8120952Y-29746723D01*
X8168571Y-29984819D02*
X8073333Y-29937200D01*
X8073333Y-29937200D02*
X7978095Y-29841961D01*
X7978095Y-29841961D02*
X7930476Y-29651485D01*
X7930476Y-29651485D02*
X7930476Y-29318152D01*
X7930476Y-29318152D02*
X7978095Y-29127676D01*
X7978095Y-29127676D02*
X8073333Y-29032438D01*
X8073333Y-29032438D02*
X8168571Y-28984819D01*
X8168571Y-28984819D02*
X8359047Y-28984819D01*
X8359047Y-28984819D02*
X8454285Y-29032438D01*
X8454285Y-29032438D02*
X8549523Y-29127676D01*
X8549523Y-29127676D02*
X8597142Y-29318152D01*
X8597142Y-29318152D02*
X8597142Y-29651485D01*
X8597142Y-29651485D02*
X8549523Y-29841961D01*
X8549523Y-29841961D02*
X8454285Y-29937200D01*
X8454285Y-29937200D02*
X8359047Y-29984819D01*
X8359047Y-29984819D02*
X8168571Y-29984819D01*
X8930476Y-28984819D02*
X9549523Y-28984819D01*
X9549523Y-28984819D02*
X9216190Y-29365771D01*
X9216190Y-29365771D02*
X9359047Y-29365771D01*
X9359047Y-29365771D02*
X9454285Y-29413390D01*
X9454285Y-29413390D02*
X9501904Y-29461009D01*
X9501904Y-29461009D02*
X9549523Y-29556247D01*
X9549523Y-29556247D02*
X9549523Y-29794342D01*
X9549523Y-29794342D02*
X9501904Y-29889580D01*
X9501904Y-29889580D02*
X9454285Y-29937200D01*
X9454285Y-29937200D02*
X9359047Y-29984819D01*
X9359047Y-29984819D02*
X9073333Y-29984819D01*
X9073333Y-29984819D02*
X8978095Y-29937200D01*
X8978095Y-29937200D02*
X8930476Y-29889580D01*
X16870714Y-38279819D02*
X16870714Y-37279819D01*
X16870714Y-37279819D02*
X17108809Y-37279819D01*
X17108809Y-37279819D02*
X17251666Y-37327438D01*
X17251666Y-37327438D02*
X17346904Y-37422676D01*
X17346904Y-37422676D02*
X17394523Y-37517914D01*
X17394523Y-37517914D02*
X17442142Y-37708390D01*
X17442142Y-37708390D02*
X17442142Y-37851247D01*
X17442142Y-37851247D02*
X17394523Y-38041723D01*
X17394523Y-38041723D02*
X17346904Y-38136961D01*
X17346904Y-38136961D02*
X17251666Y-38232200D01*
X17251666Y-38232200D02*
X17108809Y-38279819D01*
X17108809Y-38279819D02*
X16870714Y-38279819D01*
X18394523Y-38279819D02*
X17823095Y-38279819D01*
X18108809Y-38279819D02*
X18108809Y-37279819D01*
X18108809Y-37279819D02*
X18013571Y-37422676D01*
X18013571Y-37422676D02*
X17918333Y-37517914D01*
X17918333Y-37517914D02*
X17823095Y-37565533D01*
X19346904Y-38279819D02*
X18775476Y-38279819D01*
X19061190Y-38279819D02*
X19061190Y-37279819D01*
X19061190Y-37279819D02*
X18965952Y-37422676D01*
X18965952Y-37422676D02*
X18870714Y-37517914D01*
X18870714Y-37517914D02*
X18775476Y-37565533D01*
X19598095Y-36504819D02*
X19598095Y-35504819D01*
X20169523Y-36504819D02*
X19740952Y-35933390D01*
X20169523Y-35504819D02*
X19598095Y-36076247D01*
X49950714Y-15904819D02*
X49950714Y-14904819D01*
X49950714Y-14904819D02*
X50188809Y-14904819D01*
X50188809Y-14904819D02*
X50331666Y-14952438D01*
X50331666Y-14952438D02*
X50426904Y-15047676D01*
X50426904Y-15047676D02*
X50474523Y-15142914D01*
X50474523Y-15142914D02*
X50522142Y-15333390D01*
X50522142Y-15333390D02*
X50522142Y-15476247D01*
X50522142Y-15476247D02*
X50474523Y-15666723D01*
X50474523Y-15666723D02*
X50426904Y-15761961D01*
X50426904Y-15761961D02*
X50331666Y-15857200D01*
X50331666Y-15857200D02*
X50188809Y-15904819D01*
X50188809Y-15904819D02*
X49950714Y-15904819D01*
X51474523Y-15904819D02*
X50903095Y-15904819D01*
X51188809Y-15904819D02*
X51188809Y-14904819D01*
X51188809Y-14904819D02*
X51093571Y-15047676D01*
X51093571Y-15047676D02*
X50998333Y-15142914D01*
X50998333Y-15142914D02*
X50903095Y-15190533D01*
X52331666Y-15238152D02*
X52331666Y-15904819D01*
X52093571Y-14857200D02*
X51855476Y-15571485D01*
X51855476Y-15571485D02*
X52474523Y-15571485D01*
X53618095Y-13529819D02*
X53618095Y-12529819D01*
X54189523Y-13529819D02*
X53760952Y-12958390D01*
X54189523Y-12529819D02*
X53618095Y-13101247D01*
X45274819Y-32408333D02*
X45989104Y-32408333D01*
X45989104Y-32408333D02*
X46131961Y-32455952D01*
X46131961Y-32455952D02*
X46227200Y-32551190D01*
X46227200Y-32551190D02*
X46274819Y-32694047D01*
X46274819Y-32694047D02*
X46274819Y-32789285D01*
X45274819Y-32027380D02*
X45274819Y-31408333D01*
X45274819Y-31408333D02*
X45655771Y-31741666D01*
X45655771Y-31741666D02*
X45655771Y-31598809D01*
X45655771Y-31598809D02*
X45703390Y-31503571D01*
X45703390Y-31503571D02*
X45751009Y-31455952D01*
X45751009Y-31455952D02*
X45846247Y-31408333D01*
X45846247Y-31408333D02*
X46084342Y-31408333D01*
X46084342Y-31408333D02*
X46179580Y-31455952D01*
X46179580Y-31455952D02*
X46227200Y-31503571D01*
X46227200Y-31503571D02*
X46274819Y-31598809D01*
X46274819Y-31598809D02*
X46274819Y-31884523D01*
X46274819Y-31884523D02*
X46227200Y-31979761D01*
X46227200Y-31979761D02*
X46179580Y-32027380D01*
X70864700Y-36596428D02*
X70912319Y-36453571D01*
X70912319Y-36453571D02*
X70912319Y-36215476D01*
X70912319Y-36215476D02*
X70864700Y-36120238D01*
X70864700Y-36120238D02*
X70817080Y-36072619D01*
X70817080Y-36072619D02*
X70721842Y-36025000D01*
X70721842Y-36025000D02*
X70626604Y-36025000D01*
X70626604Y-36025000D02*
X70531366Y-36072619D01*
X70531366Y-36072619D02*
X70483747Y-36120238D01*
X70483747Y-36120238D02*
X70436128Y-36215476D01*
X70436128Y-36215476D02*
X70388509Y-36405952D01*
X70388509Y-36405952D02*
X70340890Y-36501190D01*
X70340890Y-36501190D02*
X70293271Y-36548809D01*
X70293271Y-36548809D02*
X70198033Y-36596428D01*
X70198033Y-36596428D02*
X70102795Y-36596428D01*
X70102795Y-36596428D02*
X70007557Y-36548809D01*
X70007557Y-36548809D02*
X69959938Y-36501190D01*
X69959938Y-36501190D02*
X69912319Y-36405952D01*
X69912319Y-36405952D02*
X69912319Y-36167857D01*
X69912319Y-36167857D02*
X69959938Y-36025000D01*
X69912319Y-35691666D02*
X70912319Y-35453571D01*
X70912319Y-35453571D02*
X70198033Y-35263095D01*
X70198033Y-35263095D02*
X70912319Y-35072619D01*
X70912319Y-35072619D02*
X69912319Y-34834524D01*
X71007557Y-34691667D02*
X71007557Y-33929762D01*
X70912319Y-33120238D02*
X70436128Y-33453571D01*
X70912319Y-33691666D02*
X69912319Y-33691666D01*
X69912319Y-33691666D02*
X69912319Y-33310714D01*
X69912319Y-33310714D02*
X69959938Y-33215476D01*
X69959938Y-33215476D02*
X70007557Y-33167857D01*
X70007557Y-33167857D02*
X70102795Y-33120238D01*
X70102795Y-33120238D02*
X70245652Y-33120238D01*
X70245652Y-33120238D02*
X70340890Y-33167857D01*
X70340890Y-33167857D02*
X70388509Y-33215476D01*
X70388509Y-33215476D02*
X70436128Y-33310714D01*
X70436128Y-33310714D02*
X70436128Y-33691666D01*
X70864700Y-32739285D02*
X70912319Y-32596428D01*
X70912319Y-32596428D02*
X70912319Y-32358333D01*
X70912319Y-32358333D02*
X70864700Y-32263095D01*
X70864700Y-32263095D02*
X70817080Y-32215476D01*
X70817080Y-32215476D02*
X70721842Y-32167857D01*
X70721842Y-32167857D02*
X70626604Y-32167857D01*
X70626604Y-32167857D02*
X70531366Y-32215476D01*
X70531366Y-32215476D02*
X70483747Y-32263095D01*
X70483747Y-32263095D02*
X70436128Y-32358333D01*
X70436128Y-32358333D02*
X70388509Y-32548809D01*
X70388509Y-32548809D02*
X70340890Y-32644047D01*
X70340890Y-32644047D02*
X70293271Y-32691666D01*
X70293271Y-32691666D02*
X70198033Y-32739285D01*
X70198033Y-32739285D02*
X70102795Y-32739285D01*
X70102795Y-32739285D02*
X70007557Y-32691666D01*
X70007557Y-32691666D02*
X69959938Y-32644047D01*
X69959938Y-32644047D02*
X69912319Y-32548809D01*
X69912319Y-32548809D02*
X69912319Y-32310714D01*
X69912319Y-32310714D02*
X69959938Y-32167857D01*
X69912319Y-31882142D02*
X69912319Y-31310714D01*
X70912319Y-31596428D02*
X69912319Y-31596428D01*
X70912319Y-30453571D02*
X70912319Y-31024999D01*
X70912319Y-30739285D02*
X69912319Y-30739285D01*
X69912319Y-30739285D02*
X70055176Y-30834523D01*
X70055176Y-30834523D02*
X70150414Y-30929761D01*
X70150414Y-30929761D02*
X70198033Y-31024999D01*
X37198333Y-12349819D02*
X36865000Y-11873628D01*
X36626905Y-12349819D02*
X36626905Y-11349819D01*
X36626905Y-11349819D02*
X37007857Y-11349819D01*
X37007857Y-11349819D02*
X37103095Y-11397438D01*
X37103095Y-11397438D02*
X37150714Y-11445057D01*
X37150714Y-11445057D02*
X37198333Y-11540295D01*
X37198333Y-11540295D02*
X37198333Y-11683152D01*
X37198333Y-11683152D02*
X37150714Y-11778390D01*
X37150714Y-11778390D02*
X37103095Y-11826009D01*
X37103095Y-11826009D02*
X37007857Y-11873628D01*
X37007857Y-11873628D02*
X36626905Y-11873628D01*
X37769762Y-11778390D02*
X37674524Y-11730771D01*
X37674524Y-11730771D02*
X37626905Y-11683152D01*
X37626905Y-11683152D02*
X37579286Y-11587914D01*
X37579286Y-11587914D02*
X37579286Y-11540295D01*
X37579286Y-11540295D02*
X37626905Y-11445057D01*
X37626905Y-11445057D02*
X37674524Y-11397438D01*
X37674524Y-11397438D02*
X37769762Y-11349819D01*
X37769762Y-11349819D02*
X37960238Y-11349819D01*
X37960238Y-11349819D02*
X38055476Y-11397438D01*
X38055476Y-11397438D02*
X38103095Y-11445057D01*
X38103095Y-11445057D02*
X38150714Y-11540295D01*
X38150714Y-11540295D02*
X38150714Y-11587914D01*
X38150714Y-11587914D02*
X38103095Y-11683152D01*
X38103095Y-11683152D02*
X38055476Y-11730771D01*
X38055476Y-11730771D02*
X37960238Y-11778390D01*
X37960238Y-11778390D02*
X37769762Y-11778390D01*
X37769762Y-11778390D02*
X37674524Y-11826009D01*
X37674524Y-11826009D02*
X37626905Y-11873628D01*
X37626905Y-11873628D02*
X37579286Y-11968866D01*
X37579286Y-11968866D02*
X37579286Y-12159342D01*
X37579286Y-12159342D02*
X37626905Y-12254580D01*
X37626905Y-12254580D02*
X37674524Y-12302200D01*
X37674524Y-12302200D02*
X37769762Y-12349819D01*
X37769762Y-12349819D02*
X37960238Y-12349819D01*
X37960238Y-12349819D02*
X38055476Y-12302200D01*
X38055476Y-12302200D02*
X38103095Y-12254580D01*
X38103095Y-12254580D02*
X38150714Y-12159342D01*
X38150714Y-12159342D02*
X38150714Y-11968866D01*
X38150714Y-11968866D02*
X38103095Y-11873628D01*
X38103095Y-11873628D02*
X38055476Y-11826009D01*
X38055476Y-11826009D02*
X37960238Y-11778390D01*
X19117319Y-16204404D02*
X19926842Y-16204404D01*
X19926842Y-16204404D02*
X20022080Y-16156785D01*
X20022080Y-16156785D02*
X20069700Y-16109166D01*
X20069700Y-16109166D02*
X20117319Y-16013928D01*
X20117319Y-16013928D02*
X20117319Y-15823452D01*
X20117319Y-15823452D02*
X20069700Y-15728214D01*
X20069700Y-15728214D02*
X20022080Y-15680595D01*
X20022080Y-15680595D02*
X19926842Y-15632976D01*
X19926842Y-15632976D02*
X19117319Y-15632976D01*
X19212557Y-15204404D02*
X19164938Y-15156785D01*
X19164938Y-15156785D02*
X19117319Y-15061547D01*
X19117319Y-15061547D02*
X19117319Y-14823452D01*
X19117319Y-14823452D02*
X19164938Y-14728214D01*
X19164938Y-14728214D02*
X19212557Y-14680595D01*
X19212557Y-14680595D02*
X19307795Y-14632976D01*
X19307795Y-14632976D02*
X19403033Y-14632976D01*
X19403033Y-14632976D02*
X19545890Y-14680595D01*
X19545890Y-14680595D02*
X20117319Y-15252023D01*
X20117319Y-15252023D02*
X20117319Y-14632976D01*
X70247142Y-20604819D02*
X69913809Y-20128628D01*
X69675714Y-20604819D02*
X69675714Y-19604819D01*
X69675714Y-19604819D02*
X70056666Y-19604819D01*
X70056666Y-19604819D02*
X70151904Y-19652438D01*
X70151904Y-19652438D02*
X70199523Y-19700057D01*
X70199523Y-19700057D02*
X70247142Y-19795295D01*
X70247142Y-19795295D02*
X70247142Y-19938152D01*
X70247142Y-19938152D02*
X70199523Y-20033390D01*
X70199523Y-20033390D02*
X70151904Y-20081009D01*
X70151904Y-20081009D02*
X70056666Y-20128628D01*
X70056666Y-20128628D02*
X69675714Y-20128628D01*
X70628095Y-19700057D02*
X70675714Y-19652438D01*
X70675714Y-19652438D02*
X70770952Y-19604819D01*
X70770952Y-19604819D02*
X71009047Y-19604819D01*
X71009047Y-19604819D02*
X71104285Y-19652438D01*
X71104285Y-19652438D02*
X71151904Y-19700057D01*
X71151904Y-19700057D02*
X71199523Y-19795295D01*
X71199523Y-19795295D02*
X71199523Y-19890533D01*
X71199523Y-19890533D02*
X71151904Y-20033390D01*
X71151904Y-20033390D02*
X70580476Y-20604819D01*
X70580476Y-20604819D02*
X71199523Y-20604819D01*
X72151904Y-20604819D02*
X71580476Y-20604819D01*
X71866190Y-20604819D02*
X71866190Y-19604819D01*
X71866190Y-19604819D02*
X71770952Y-19747676D01*
X71770952Y-19747676D02*
X71675714Y-19842914D01*
X71675714Y-19842914D02*
X71580476Y-19890533D01*
X23453571Y-57032200D02*
X23596428Y-57079819D01*
X23596428Y-57079819D02*
X23834523Y-57079819D01*
X23834523Y-57079819D02*
X23929761Y-57032200D01*
X23929761Y-57032200D02*
X23977380Y-56984580D01*
X23977380Y-56984580D02*
X24024999Y-56889342D01*
X24024999Y-56889342D02*
X24024999Y-56794104D01*
X24024999Y-56794104D02*
X23977380Y-56698866D01*
X23977380Y-56698866D02*
X23929761Y-56651247D01*
X23929761Y-56651247D02*
X23834523Y-56603628D01*
X23834523Y-56603628D02*
X23644047Y-56556009D01*
X23644047Y-56556009D02*
X23548809Y-56508390D01*
X23548809Y-56508390D02*
X23501190Y-56460771D01*
X23501190Y-56460771D02*
X23453571Y-56365533D01*
X23453571Y-56365533D02*
X23453571Y-56270295D01*
X23453571Y-56270295D02*
X23501190Y-56175057D01*
X23501190Y-56175057D02*
X23548809Y-56127438D01*
X23548809Y-56127438D02*
X23644047Y-56079819D01*
X23644047Y-56079819D02*
X23882142Y-56079819D01*
X23882142Y-56079819D02*
X24024999Y-56127438D01*
X24358333Y-56079819D02*
X24596428Y-57079819D01*
X24596428Y-57079819D02*
X24786904Y-56365533D01*
X24786904Y-56365533D02*
X24977380Y-57079819D01*
X24977380Y-57079819D02*
X25215476Y-56079819D01*
X25358333Y-57175057D02*
X26120237Y-57175057D01*
X26358333Y-56556009D02*
X26691666Y-56556009D01*
X26834523Y-57079819D02*
X26358333Y-57079819D01*
X26358333Y-57079819D02*
X26358333Y-56079819D01*
X26358333Y-56079819D02*
X26834523Y-56079819D01*
X27263095Y-57079819D02*
X27263095Y-56079819D01*
X27263095Y-56079819D02*
X27834523Y-57079819D01*
X27834523Y-57079819D02*
X27834523Y-56079819D01*
X28167857Y-56079819D02*
X28739285Y-56079819D01*
X28453571Y-57079819D02*
X28453571Y-56079819D01*
X29596428Y-57079819D02*
X29025000Y-57079819D01*
X29310714Y-57079819D02*
X29310714Y-56079819D01*
X29310714Y-56079819D02*
X29215476Y-56222676D01*
X29215476Y-56222676D02*
X29120238Y-56317914D01*
X29120238Y-56317914D02*
X29025000Y-56365533D01*
X52450714Y-10429819D02*
X52450714Y-9429819D01*
X52450714Y-9429819D02*
X52688809Y-9429819D01*
X52688809Y-9429819D02*
X52831666Y-9477438D01*
X52831666Y-9477438D02*
X52926904Y-9572676D01*
X52926904Y-9572676D02*
X52974523Y-9667914D01*
X52974523Y-9667914D02*
X53022142Y-9858390D01*
X53022142Y-9858390D02*
X53022142Y-10001247D01*
X53022142Y-10001247D02*
X52974523Y-10191723D01*
X52974523Y-10191723D02*
X52926904Y-10286961D01*
X52926904Y-10286961D02*
X52831666Y-10382200D01*
X52831666Y-10382200D02*
X52688809Y-10429819D01*
X52688809Y-10429819D02*
X52450714Y-10429819D01*
X53974523Y-10429819D02*
X53403095Y-10429819D01*
X53688809Y-10429819D02*
X53688809Y-9429819D01*
X53688809Y-9429819D02*
X53593571Y-9572676D01*
X53593571Y-9572676D02*
X53498333Y-9667914D01*
X53498333Y-9667914D02*
X53403095Y-9715533D01*
X54879285Y-9429819D02*
X54403095Y-9429819D01*
X54403095Y-9429819D02*
X54355476Y-9906009D01*
X54355476Y-9906009D02*
X54403095Y-9858390D01*
X54403095Y-9858390D02*
X54498333Y-9810771D01*
X54498333Y-9810771D02*
X54736428Y-9810771D01*
X54736428Y-9810771D02*
X54831666Y-9858390D01*
X54831666Y-9858390D02*
X54879285Y-9906009D01*
X54879285Y-9906009D02*
X54926904Y-10001247D01*
X54926904Y-10001247D02*
X54926904Y-10239342D01*
X54926904Y-10239342D02*
X54879285Y-10334580D01*
X54879285Y-10334580D02*
X54831666Y-10382200D01*
X54831666Y-10382200D02*
X54736428Y-10429819D01*
X54736428Y-10429819D02*
X54498333Y-10429819D01*
X54498333Y-10429819D02*
X54403095Y-10382200D01*
X54403095Y-10382200D02*
X54355476Y-10334580D01*
X56118095Y-8579819D02*
X56118095Y-7579819D01*
X56689523Y-8579819D02*
X56260952Y-8008390D01*
X56689523Y-7579819D02*
X56118095Y-8151247D01*
X42422618Y-51627438D02*
X42327380Y-51579819D01*
X42327380Y-51579819D02*
X42184523Y-51579819D01*
X42184523Y-51579819D02*
X42041666Y-51627438D01*
X42041666Y-51627438D02*
X41946428Y-51722676D01*
X41946428Y-51722676D02*
X41898809Y-51817914D01*
X41898809Y-51817914D02*
X41851190Y-52008390D01*
X41851190Y-52008390D02*
X41851190Y-52151247D01*
X41851190Y-52151247D02*
X41898809Y-52341723D01*
X41898809Y-52341723D02*
X41946428Y-52436961D01*
X41946428Y-52436961D02*
X42041666Y-52532200D01*
X42041666Y-52532200D02*
X42184523Y-52579819D01*
X42184523Y-52579819D02*
X42279761Y-52579819D01*
X42279761Y-52579819D02*
X42422618Y-52532200D01*
X42422618Y-52532200D02*
X42470237Y-52484580D01*
X42470237Y-52484580D02*
X42470237Y-52151247D01*
X42470237Y-52151247D02*
X42279761Y-52151247D01*
X43470237Y-52579819D02*
X43136904Y-52103628D01*
X42898809Y-52579819D02*
X42898809Y-51579819D01*
X42898809Y-51579819D02*
X43279761Y-51579819D01*
X43279761Y-51579819D02*
X43374999Y-51627438D01*
X43374999Y-51627438D02*
X43422618Y-51675057D01*
X43422618Y-51675057D02*
X43470237Y-51770295D01*
X43470237Y-51770295D02*
X43470237Y-51913152D01*
X43470237Y-51913152D02*
X43422618Y-52008390D01*
X43422618Y-52008390D02*
X43374999Y-52056009D01*
X43374999Y-52056009D02*
X43279761Y-52103628D01*
X43279761Y-52103628D02*
X42898809Y-52103628D01*
X43660714Y-52675057D02*
X44422618Y-52675057D01*
X45136904Y-52579819D02*
X44660714Y-52579819D01*
X44660714Y-52579819D02*
X44660714Y-51579819D01*
X45470238Y-52056009D02*
X45803571Y-52056009D01*
X45946428Y-52579819D02*
X45470238Y-52579819D01*
X45470238Y-52579819D02*
X45470238Y-51579819D01*
X45470238Y-51579819D02*
X45946428Y-51579819D01*
X46375000Y-52579819D02*
X46375000Y-51579819D01*
X46375000Y-51579819D02*
X46613095Y-51579819D01*
X46613095Y-51579819D02*
X46755952Y-51627438D01*
X46755952Y-51627438D02*
X46851190Y-51722676D01*
X46851190Y-51722676D02*
X46898809Y-51817914D01*
X46898809Y-51817914D02*
X46946428Y-52008390D01*
X46946428Y-52008390D02*
X46946428Y-52151247D01*
X46946428Y-52151247D02*
X46898809Y-52341723D01*
X46898809Y-52341723D02*
X46851190Y-52436961D01*
X46851190Y-52436961D02*
X46755952Y-52532200D01*
X46755952Y-52532200D02*
X46613095Y-52579819D01*
X46613095Y-52579819D02*
X46375000Y-52579819D01*
X47898809Y-52579819D02*
X47327381Y-52579819D01*
X47613095Y-52579819D02*
X47613095Y-51579819D01*
X47613095Y-51579819D02*
X47517857Y-51722676D01*
X47517857Y-51722676D02*
X47422619Y-51817914D01*
X47422619Y-51817914D02*
X47327381Y-51865533D01*
X12536905Y-2579819D02*
X12536905Y-1579819D01*
X12536905Y-1579819D02*
X12775000Y-1579819D01*
X12775000Y-1579819D02*
X12917857Y-1627438D01*
X12917857Y-1627438D02*
X13013095Y-1722676D01*
X13013095Y-1722676D02*
X13060714Y-1817914D01*
X13060714Y-1817914D02*
X13108333Y-2008390D01*
X13108333Y-2008390D02*
X13108333Y-2151247D01*
X13108333Y-2151247D02*
X13060714Y-2341723D01*
X13060714Y-2341723D02*
X13013095Y-2436961D01*
X13013095Y-2436961D02*
X12917857Y-2532200D01*
X12917857Y-2532200D02*
X12775000Y-2579819D01*
X12775000Y-2579819D02*
X12536905Y-2579819D01*
X14060714Y-2579819D02*
X13489286Y-2579819D01*
X13775000Y-2579819D02*
X13775000Y-1579819D01*
X13775000Y-1579819D02*
X13679762Y-1722676D01*
X13679762Y-1722676D02*
X13584524Y-1817914D01*
X13584524Y-1817914D02*
X13489286Y-1865533D01*
X9193095Y-2729819D02*
X9193095Y-1729819D01*
X9764523Y-2729819D02*
X9335952Y-2158390D01*
X9764523Y-1729819D02*
X9193095Y-2301247D01*
X12929762Y-57182200D02*
X13072619Y-57229819D01*
X13072619Y-57229819D02*
X13310714Y-57229819D01*
X13310714Y-57229819D02*
X13405952Y-57182200D01*
X13405952Y-57182200D02*
X13453571Y-57134580D01*
X13453571Y-57134580D02*
X13501190Y-57039342D01*
X13501190Y-57039342D02*
X13501190Y-56944104D01*
X13501190Y-56944104D02*
X13453571Y-56848866D01*
X13453571Y-56848866D02*
X13405952Y-56801247D01*
X13405952Y-56801247D02*
X13310714Y-56753628D01*
X13310714Y-56753628D02*
X13120238Y-56706009D01*
X13120238Y-56706009D02*
X13025000Y-56658390D01*
X13025000Y-56658390D02*
X12977381Y-56610771D01*
X12977381Y-56610771D02*
X12929762Y-56515533D01*
X12929762Y-56515533D02*
X12929762Y-56420295D01*
X12929762Y-56420295D02*
X12977381Y-56325057D01*
X12977381Y-56325057D02*
X13025000Y-56277438D01*
X13025000Y-56277438D02*
X13120238Y-56229819D01*
X13120238Y-56229819D02*
X13358333Y-56229819D01*
X13358333Y-56229819D02*
X13501190Y-56277438D01*
X13834524Y-56229819D02*
X14072619Y-57229819D01*
X14072619Y-57229819D02*
X14263095Y-56515533D01*
X14263095Y-56515533D02*
X14453571Y-57229819D01*
X14453571Y-57229819D02*
X14691667Y-56229819D01*
X14834524Y-57325057D02*
X15596428Y-57325057D01*
X15834524Y-57229819D02*
X15834524Y-56229819D01*
X15834524Y-56229819D02*
X16405952Y-57229819D01*
X16405952Y-57229819D02*
X16405952Y-56229819D01*
X16786905Y-56229819D02*
X17453571Y-57229819D01*
X17453571Y-56229819D02*
X16786905Y-57229819D01*
X17691667Y-56229819D02*
X18263095Y-56229819D01*
X17977381Y-57229819D02*
X17977381Y-56229819D01*
X19120238Y-57229819D02*
X18548810Y-57229819D01*
X18834524Y-57229819D02*
X18834524Y-56229819D01*
X18834524Y-56229819D02*
X18739286Y-56372676D01*
X18739286Y-56372676D02*
X18644048Y-56467914D01*
X18644048Y-56467914D02*
X18548810Y-56515533D01*
X45185714Y-19554819D02*
X45185714Y-18554819D01*
X45185714Y-18554819D02*
X45423809Y-18554819D01*
X45423809Y-18554819D02*
X45566666Y-18602438D01*
X45566666Y-18602438D02*
X45661904Y-18697676D01*
X45661904Y-18697676D02*
X45709523Y-18792914D01*
X45709523Y-18792914D02*
X45757142Y-18983390D01*
X45757142Y-18983390D02*
X45757142Y-19126247D01*
X45757142Y-19126247D02*
X45709523Y-19316723D01*
X45709523Y-19316723D02*
X45661904Y-19411961D01*
X45661904Y-19411961D02*
X45566666Y-19507200D01*
X45566666Y-19507200D02*
X45423809Y-19554819D01*
X45423809Y-19554819D02*
X45185714Y-19554819D01*
X46709523Y-19554819D02*
X46138095Y-19554819D01*
X46423809Y-19554819D02*
X46423809Y-18554819D01*
X46423809Y-18554819D02*
X46328571Y-18697676D01*
X46328571Y-18697676D02*
X46233333Y-18792914D01*
X46233333Y-18792914D02*
X46138095Y-18840533D01*
X47090476Y-18650057D02*
X47138095Y-18602438D01*
X47138095Y-18602438D02*
X47233333Y-18554819D01*
X47233333Y-18554819D02*
X47471428Y-18554819D01*
X47471428Y-18554819D02*
X47566666Y-18602438D01*
X47566666Y-18602438D02*
X47614285Y-18650057D01*
X47614285Y-18650057D02*
X47661904Y-18745295D01*
X47661904Y-18745295D02*
X47661904Y-18840533D01*
X47661904Y-18840533D02*
X47614285Y-18983390D01*
X47614285Y-18983390D02*
X47042857Y-19554819D01*
X47042857Y-19554819D02*
X47661904Y-19554819D01*
X48703095Y-17704819D02*
X48703095Y-16704819D01*
X49274523Y-17704819D02*
X48845952Y-17133390D01*
X49274523Y-16704819D02*
X48703095Y-17276247D01*
X1982143Y-56982200D02*
X2125000Y-57029819D01*
X2125000Y-57029819D02*
X2363095Y-57029819D01*
X2363095Y-57029819D02*
X2458333Y-56982200D01*
X2458333Y-56982200D02*
X2505952Y-56934580D01*
X2505952Y-56934580D02*
X2553571Y-56839342D01*
X2553571Y-56839342D02*
X2553571Y-56744104D01*
X2553571Y-56744104D02*
X2505952Y-56648866D01*
X2505952Y-56648866D02*
X2458333Y-56601247D01*
X2458333Y-56601247D02*
X2363095Y-56553628D01*
X2363095Y-56553628D02*
X2172619Y-56506009D01*
X2172619Y-56506009D02*
X2077381Y-56458390D01*
X2077381Y-56458390D02*
X2029762Y-56410771D01*
X2029762Y-56410771D02*
X1982143Y-56315533D01*
X1982143Y-56315533D02*
X1982143Y-56220295D01*
X1982143Y-56220295D02*
X2029762Y-56125057D01*
X2029762Y-56125057D02*
X2077381Y-56077438D01*
X2077381Y-56077438D02*
X2172619Y-56029819D01*
X2172619Y-56029819D02*
X2410714Y-56029819D01*
X2410714Y-56029819D02*
X2553571Y-56077438D01*
X2886905Y-56029819D02*
X3125000Y-57029819D01*
X3125000Y-57029819D02*
X3315476Y-56315533D01*
X3315476Y-56315533D02*
X3505952Y-57029819D01*
X3505952Y-57029819D02*
X3744048Y-56029819D01*
X3886905Y-57125057D02*
X4648809Y-57125057D01*
X4886905Y-57029819D02*
X4886905Y-56029819D01*
X4886905Y-56029819D02*
X5267857Y-56029819D01*
X5267857Y-56029819D02*
X5363095Y-56077438D01*
X5363095Y-56077438D02*
X5410714Y-56125057D01*
X5410714Y-56125057D02*
X5458333Y-56220295D01*
X5458333Y-56220295D02*
X5458333Y-56363152D01*
X5458333Y-56363152D02*
X5410714Y-56458390D01*
X5410714Y-56458390D02*
X5363095Y-56506009D01*
X5363095Y-56506009D02*
X5267857Y-56553628D01*
X5267857Y-56553628D02*
X4886905Y-56553628D01*
X6458333Y-57029819D02*
X6125000Y-56553628D01*
X5886905Y-57029819D02*
X5886905Y-56029819D01*
X5886905Y-56029819D02*
X6267857Y-56029819D01*
X6267857Y-56029819D02*
X6363095Y-56077438D01*
X6363095Y-56077438D02*
X6410714Y-56125057D01*
X6410714Y-56125057D02*
X6458333Y-56220295D01*
X6458333Y-56220295D02*
X6458333Y-56363152D01*
X6458333Y-56363152D02*
X6410714Y-56458390D01*
X6410714Y-56458390D02*
X6363095Y-56506009D01*
X6363095Y-56506009D02*
X6267857Y-56553628D01*
X6267857Y-56553628D02*
X5886905Y-56553628D01*
X6744048Y-56029819D02*
X7077381Y-57029819D01*
X7077381Y-57029819D02*
X7410714Y-56029819D01*
X8267857Y-57029819D02*
X7696429Y-57029819D01*
X7982143Y-57029819D02*
X7982143Y-56029819D01*
X7982143Y-56029819D02*
X7886905Y-56172676D01*
X7886905Y-56172676D02*
X7791667Y-56267914D01*
X7791667Y-56267914D02*
X7696429Y-56315533D01*
X33610714Y-57157200D02*
X33753571Y-57204819D01*
X33753571Y-57204819D02*
X33991666Y-57204819D01*
X33991666Y-57204819D02*
X34086904Y-57157200D01*
X34086904Y-57157200D02*
X34134523Y-57109580D01*
X34134523Y-57109580D02*
X34182142Y-57014342D01*
X34182142Y-57014342D02*
X34182142Y-56919104D01*
X34182142Y-56919104D02*
X34134523Y-56823866D01*
X34134523Y-56823866D02*
X34086904Y-56776247D01*
X34086904Y-56776247D02*
X33991666Y-56728628D01*
X33991666Y-56728628D02*
X33801190Y-56681009D01*
X33801190Y-56681009D02*
X33705952Y-56633390D01*
X33705952Y-56633390D02*
X33658333Y-56585771D01*
X33658333Y-56585771D02*
X33610714Y-56490533D01*
X33610714Y-56490533D02*
X33610714Y-56395295D01*
X33610714Y-56395295D02*
X33658333Y-56300057D01*
X33658333Y-56300057D02*
X33705952Y-56252438D01*
X33705952Y-56252438D02*
X33801190Y-56204819D01*
X33801190Y-56204819D02*
X34039285Y-56204819D01*
X34039285Y-56204819D02*
X34182142Y-56252438D01*
X34515476Y-56204819D02*
X34753571Y-57204819D01*
X34753571Y-57204819D02*
X34944047Y-56490533D01*
X34944047Y-56490533D02*
X35134523Y-57204819D01*
X35134523Y-57204819D02*
X35372619Y-56204819D01*
X35515476Y-57300057D02*
X36277380Y-57300057D01*
X36848809Y-56681009D02*
X36991666Y-56728628D01*
X36991666Y-56728628D02*
X37039285Y-56776247D01*
X37039285Y-56776247D02*
X37086904Y-56871485D01*
X37086904Y-56871485D02*
X37086904Y-57014342D01*
X37086904Y-57014342D02*
X37039285Y-57109580D01*
X37039285Y-57109580D02*
X36991666Y-57157200D01*
X36991666Y-57157200D02*
X36896428Y-57204819D01*
X36896428Y-57204819D02*
X36515476Y-57204819D01*
X36515476Y-57204819D02*
X36515476Y-56204819D01*
X36515476Y-56204819D02*
X36848809Y-56204819D01*
X36848809Y-56204819D02*
X36944047Y-56252438D01*
X36944047Y-56252438D02*
X36991666Y-56300057D01*
X36991666Y-56300057D02*
X37039285Y-56395295D01*
X37039285Y-56395295D02*
X37039285Y-56490533D01*
X37039285Y-56490533D02*
X36991666Y-56585771D01*
X36991666Y-56585771D02*
X36944047Y-56633390D01*
X36944047Y-56633390D02*
X36848809Y-56681009D01*
X36848809Y-56681009D02*
X36515476Y-56681009D01*
X38086904Y-57109580D02*
X38039285Y-57157200D01*
X38039285Y-57157200D02*
X37896428Y-57204819D01*
X37896428Y-57204819D02*
X37801190Y-57204819D01*
X37801190Y-57204819D02*
X37658333Y-57157200D01*
X37658333Y-57157200D02*
X37563095Y-57061961D01*
X37563095Y-57061961D02*
X37515476Y-56966723D01*
X37515476Y-56966723D02*
X37467857Y-56776247D01*
X37467857Y-56776247D02*
X37467857Y-56633390D01*
X37467857Y-56633390D02*
X37515476Y-56442914D01*
X37515476Y-56442914D02*
X37563095Y-56347676D01*
X37563095Y-56347676D02*
X37658333Y-56252438D01*
X37658333Y-56252438D02*
X37801190Y-56204819D01*
X37801190Y-56204819D02*
X37896428Y-56204819D01*
X37896428Y-56204819D02*
X38039285Y-56252438D01*
X38039285Y-56252438D02*
X38086904Y-56300057D01*
X38515476Y-57204819D02*
X38515476Y-56204819D01*
X39086904Y-57204819D02*
X38658333Y-56633390D01*
X39086904Y-56204819D02*
X38515476Y-56776247D01*
X40039285Y-57204819D02*
X39467857Y-57204819D01*
X39753571Y-57204819D02*
X39753571Y-56204819D01*
X39753571Y-56204819D02*
X39658333Y-56347676D01*
X39658333Y-56347676D02*
X39563095Y-56442914D01*
X39563095Y-56442914D02*
X39467857Y-56490533D01*
D11*
%TO.C,J2*%
X3475000Y-30030000D02*
X2145000Y-30030000D01*
X7345000Y-30030000D02*
X7345000Y-27370000D01*
X4745000Y-30030000D02*
X7345000Y-30030000D01*
X4745000Y-30030000D02*
X4745000Y-27370000D01*
X2145000Y-30030000D02*
X2145000Y-28700000D01*
X4745000Y-27370000D02*
X7345000Y-27370000D01*
%TO.C,BZ1*%
X55400000Y-43600000D02*
G75*
G03*
X55400000Y-43600000I-6100000J0D01*
G01*
%TO.C,U1*%
X72665000Y-4060000D02*
X72365000Y-4060000D01*
X72665000Y-4060000D02*
X72665000Y-25060000D01*
X70265000Y-4060000D02*
X69865000Y-4060000D01*
X69998000Y-4060000D02*
X69998000Y-7067000D01*
X67665000Y-4060000D02*
X67265000Y-4060000D01*
X65165000Y-4060000D02*
X64765000Y-4060000D01*
X62565000Y-4060000D02*
X62165000Y-4060000D01*
X60065000Y-4060000D02*
X59665000Y-4060000D01*
X57565000Y-4060000D02*
X57165000Y-4060000D01*
X54965000Y-4060000D02*
X54565000Y-4060000D01*
X52465000Y-4060000D02*
X52065000Y-4060000D01*
X49865000Y-4060000D02*
X49465000Y-4060000D01*
X47365000Y-4060000D02*
X46965000Y-4060000D01*
X44865000Y-4060000D02*
X44465000Y-4060000D01*
X42265000Y-4060000D02*
X41865000Y-4060000D01*
X39765000Y-4060000D02*
X39365000Y-4060000D01*
X37165000Y-4060000D02*
X36765000Y-4060000D01*
X34665000Y-4060000D02*
X34265000Y-4060000D01*
X32065000Y-4060000D02*
X31665000Y-4060000D01*
X29565000Y-4060000D02*
X29165000Y-4060000D01*
X27065000Y-4060000D02*
X26665000Y-4060000D01*
X24465000Y-4060000D02*
X24065000Y-4060000D01*
X69998000Y-7067000D02*
X72665000Y-7067000D01*
X21665000Y-10860000D02*
X21665000Y-4060000D01*
X21665000Y-13060000D02*
X21665000Y-13460000D01*
X21665000Y-15660000D02*
X21665000Y-16060000D01*
X72665000Y-25060000D02*
X72365000Y-25060000D01*
X70265000Y-25060000D02*
X69865000Y-25060000D01*
X67665000Y-25060000D02*
X67265000Y-25060000D01*
X65165000Y-25060000D02*
X64765000Y-25060000D01*
X62565000Y-25060000D02*
X62165000Y-25060000D01*
X60065000Y-25060000D02*
X59665000Y-25060000D01*
X57565000Y-25060000D02*
X57165000Y-25060000D01*
X54965000Y-25060000D02*
X54565000Y-25060000D01*
X52465000Y-25060000D02*
X52065000Y-25060000D01*
X49865000Y-25060000D02*
X49465000Y-25060000D01*
X47365000Y-25060000D02*
X46965000Y-25060000D01*
X44865000Y-25060000D02*
X44465000Y-25060000D01*
X42265000Y-25060000D02*
X41865000Y-25060000D01*
X39765000Y-25060000D02*
X39365000Y-25060000D01*
X37165000Y-25060000D02*
X36765000Y-25060000D01*
X34665000Y-25060000D02*
X34265000Y-25060000D01*
X32065000Y-25060000D02*
X31665000Y-25060000D01*
X29565000Y-25060000D02*
X29165000Y-25060000D01*
X27065000Y-25060000D02*
X26665000Y-25060000D01*
X24465000Y-25060000D02*
X24065000Y-25060000D01*
X21665000Y-25060000D02*
X21665000Y-18260000D01*
%TO.C,J1*%
X2105000Y-5925000D02*
X3435000Y-5925000D01*
X2105000Y-7255000D02*
X2105000Y-5925000D01*
X2105000Y-8525000D02*
X2105000Y-26365000D01*
X2105000Y-8525000D02*
X4705000Y-8525000D01*
X2105000Y-26365000D02*
X7305000Y-26365000D01*
X4705000Y-5925000D02*
X7305000Y-5925000D01*
X4705000Y-8525000D02*
X4705000Y-5925000D01*
X7305000Y-5925000D02*
X7305000Y-26365000D01*
%TO.C,R22*%
X44645000Y-9825000D02*
X45595000Y-9825000D01*
X45595000Y-8905000D02*
X45595000Y-10745000D01*
X45595000Y-10745000D02*
X49435000Y-10745000D01*
X49435000Y-8905000D02*
X45595000Y-8905000D01*
X49435000Y-10745000D02*
X49435000Y-8905000D01*
X50385000Y-9825000D02*
X49435000Y-9825000D01*
%TO.C,R6*%
X33995000Y-15850000D02*
X33045000Y-15850000D01*
X33045000Y-16770000D02*
X33045000Y-14930000D01*
X33045000Y-14930000D02*
X29205000Y-14930000D01*
X29205000Y-16770000D02*
X33045000Y-16770000D01*
X29205000Y-14930000D02*
X29205000Y-16770000D01*
X28255000Y-15850000D02*
X29205000Y-15850000D01*
%TO.C,R7*%
X37670000Y-12850000D02*
X36720000Y-12850000D01*
X36720000Y-13770000D02*
X36720000Y-11930000D01*
X36720000Y-11930000D02*
X32880000Y-11930000D01*
X32880000Y-13770000D02*
X36720000Y-13770000D01*
X32880000Y-11930000D02*
X32880000Y-13770000D01*
X31930000Y-12850000D02*
X32880000Y-12850000D01*
%TO.C,D2*%
X10495000Y-7350000D02*
X11145000Y-7350000D01*
X11145000Y-6230000D02*
X11145000Y-8470000D01*
X11145000Y-8470000D02*
X15385000Y-8470000D01*
X11745000Y-6230000D02*
X11745000Y-8470000D01*
X11865000Y-6230000D02*
X11865000Y-8470000D01*
X11985000Y-6230000D02*
X11985000Y-8470000D01*
X15385000Y-6230000D02*
X11145000Y-6230000D01*
X15385000Y-8470000D02*
X15385000Y-6230000D01*
X16035000Y-7350000D02*
X15385000Y-7350000D01*
%TO.C,R26*%
X27085000Y-35000000D02*
X26135000Y-35000000D01*
X26135000Y-35920000D02*
X26135000Y-34080000D01*
X26135000Y-34080000D02*
X22295000Y-34080000D01*
X22295000Y-35920000D02*
X26135000Y-35920000D01*
X22295000Y-34080000D02*
X22295000Y-35920000D01*
X21345000Y-35000000D02*
X22295000Y-35000000D01*
%TO.C,BL_LED1*%
X55185000Y-53626500D02*
X55185000Y-53782500D01*
X55185000Y-55942500D02*
X55185000Y-56098500D01*
X58417334Y-53783892D02*
G75*
G03*
X55185001Y-53626985I-1672334J-1078608D01*
G01*
X57786129Y-53782664D02*
G75*
G03*
X55704040Y-53782501I-1041129J-1079836D01*
G01*
X55704040Y-55942499D02*
G75*
G03*
X57786129Y-55942336I1040960J1079999D01*
G01*
X55185001Y-56098015D02*
G75*
G03*
X58417334Y-55941108I1559999J1235515D01*
G01*
%TO.C,R25*%
X21270000Y-32500000D02*
X22220000Y-32500000D01*
X22220000Y-31580000D02*
X22220000Y-33420000D01*
X22220000Y-33420000D02*
X26060000Y-33420000D01*
X26060000Y-31580000D02*
X22220000Y-31580000D01*
X26060000Y-33420000D02*
X26060000Y-31580000D01*
X27010000Y-32500000D02*
X26060000Y-32500000D01*
%TO.C,RD_LED1*%
X49485000Y-53626500D02*
X49485000Y-53782500D01*
X49485000Y-55942500D02*
X49485000Y-56098500D01*
X52717334Y-53783892D02*
G75*
G03*
X49485001Y-53626985I-1672334J-1078608D01*
G01*
X52086129Y-53782664D02*
G75*
G03*
X50004040Y-53782501I-1041129J-1079836D01*
G01*
X50004040Y-55942499D02*
G75*
G03*
X52086129Y-55942336I1040960J1079999D01*
G01*
X49485001Y-56098015D02*
G75*
G03*
X52717334Y-55941108I1559999J1235515D01*
G01*
D10*
%TO.C,J4*%
X75328145Y-39775000D02*
X72828145Y-39775000D01*
X72828145Y-39775000D02*
X72350000Y-39775000D01*
X69600000Y-39775000D02*
X62350000Y-39775000D01*
X72828145Y-41175000D02*
X72828145Y-39775000D01*
X60850000Y-41275000D02*
X60850000Y-44025000D01*
X75328145Y-42575000D02*
X75328145Y-39775000D01*
X75328145Y-48009968D02*
X75328145Y-42509968D01*
X74128145Y-48009968D02*
X75328145Y-48009968D01*
X72828145Y-53259968D02*
X72828145Y-54525000D01*
X75328145Y-53509968D02*
X75328145Y-48009968D01*
X75328145Y-54525000D02*
X75328145Y-53509968D01*
X75328145Y-54525000D02*
X72828145Y-54525000D01*
X72839073Y-54525000D02*
X72360928Y-54525000D01*
X69600000Y-54525000D02*
X62350000Y-54525000D01*
D11*
%TO.C,Q3*%
X4074144Y-31461961D02*
X4965098Y-32352916D01*
X4851961Y-30684144D02*
X4074144Y-31461961D01*
X5742916Y-31575098D02*
X4851961Y-30684144D01*
X4965327Y-32352629D02*
G75*
G03*
X5742916Y-31575099I3774673J-2997371D01*
G01*
%TO.C,D11*%
X21440000Y-37775000D02*
X22090000Y-37775000D01*
X22090000Y-36655000D02*
X22090000Y-38895000D01*
X22090000Y-38895000D02*
X26330000Y-38895000D01*
X22690000Y-36655000D02*
X22690000Y-38895000D01*
X22810000Y-36655000D02*
X22810000Y-38895000D01*
X22930000Y-36655000D02*
X22930000Y-38895000D01*
X26330000Y-36655000D02*
X22090000Y-36655000D01*
X26330000Y-38895000D02*
X26330000Y-36655000D01*
X26980000Y-37775000D02*
X26330000Y-37775000D01*
%TO.C,D14*%
X54920000Y-14875000D02*
X55570000Y-14875000D01*
X55570000Y-13755000D02*
X55570000Y-15995000D01*
X55570000Y-15995000D02*
X59810000Y-15995000D01*
X56170000Y-13755000D02*
X56170000Y-15995000D01*
X56290000Y-13755000D02*
X56290000Y-15995000D01*
X56410000Y-13755000D02*
X56410000Y-15995000D01*
X59810000Y-13755000D02*
X55570000Y-13755000D01*
X59810000Y-15995000D02*
X59810000Y-13755000D01*
X60460000Y-14875000D02*
X59810000Y-14875000D01*
%TO.C,J3*%
X44820000Y-30745000D02*
X44820000Y-32075000D01*
X43490000Y-30745000D02*
X44820000Y-30745000D01*
X42220000Y-30745000D02*
X34540000Y-30745000D01*
X42220000Y-30745000D02*
X42220000Y-33405000D01*
X34540000Y-30745000D02*
X34540000Y-33405000D01*
X42220000Y-33405000D02*
X34540000Y-33405000D01*
%TO.C,SW_RST1*%
X74837500Y-29665000D02*
X70937500Y-29665000D01*
X74837500Y-29665000D02*
X74837500Y-37385000D01*
X68337500Y-29665000D02*
X67827500Y-29665000D01*
X67827500Y-29665000D02*
X67827500Y-30185000D01*
X71167500Y-30185000D02*
X70937500Y-30185000D01*
X71167500Y-30185000D02*
X71167500Y-30725000D01*
X68337500Y-30185000D02*
X67827500Y-30185000D01*
X71167500Y-31825000D02*
X71167500Y-35225000D01*
X71167500Y-36325000D02*
X71167500Y-36865000D01*
X71167500Y-36865000D02*
X70937500Y-36865000D01*
X68337500Y-36865000D02*
X67827500Y-36865000D01*
X67827500Y-36865000D02*
X67827500Y-37385000D01*
X74837500Y-37385000D02*
X70937500Y-37385000D01*
X68337500Y-37385000D02*
X67827500Y-37385000D01*
%TO.C,R8*%
X40235000Y-9975000D02*
X39285000Y-9975000D01*
X39285000Y-10895000D02*
X39285000Y-9055000D01*
X39285000Y-9055000D02*
X35445000Y-9055000D01*
X35445000Y-10895000D02*
X39285000Y-10895000D01*
X35445000Y-9055000D02*
X35445000Y-10895000D01*
X34495000Y-9975000D02*
X35445000Y-9975000D01*
%TO.C,U2*%
X12952500Y-13192500D02*
X10502500Y-13192500D01*
X10502500Y-13192500D02*
X10502500Y-15522500D01*
X18682500Y-13522500D02*
X18682500Y-25462500D01*
X10832500Y-13522500D02*
X18682500Y-13522500D01*
X18682500Y-25462500D02*
X10832500Y-25462500D01*
X10832500Y-25462500D02*
X10832500Y-13522500D01*
%TO.C,R21*%
X67660000Y-20100000D02*
X66710000Y-20100000D01*
X66710000Y-21020000D02*
X66710000Y-19180000D01*
X66710000Y-19180000D02*
X62870000Y-19180000D01*
X62870000Y-21020000D02*
X66710000Y-21020000D01*
X62870000Y-19180000D02*
X62870000Y-21020000D01*
X61920000Y-20100000D02*
X62870000Y-20100000D01*
%TO.C,SW_ENT1*%
X30050000Y-51750000D02*
X30050000Y-50250000D01*
X28800000Y-47750000D02*
X24300000Y-47750000D01*
X24300000Y-54250000D02*
X28800000Y-54250000D01*
X23050000Y-50250000D02*
X23050000Y-51750000D01*
%TO.C,D15*%
X57420000Y-9925000D02*
X58070000Y-9925000D01*
X58070000Y-8805000D02*
X58070000Y-11045000D01*
X58070000Y-11045000D02*
X62310000Y-11045000D01*
X58670000Y-8805000D02*
X58670000Y-11045000D01*
X58790000Y-8805000D02*
X58790000Y-11045000D01*
X58910000Y-8805000D02*
X58910000Y-11045000D01*
X62310000Y-8805000D02*
X58070000Y-8805000D01*
X62310000Y-11045000D02*
X62310000Y-8805000D01*
X62960000Y-9925000D02*
X62310000Y-9925000D01*
%TO.C,GR_LED1*%
X43720000Y-53651500D02*
X43720000Y-53807500D01*
X43720000Y-55967500D02*
X43720000Y-56123500D01*
X46952334Y-53808892D02*
G75*
G03*
X43720001Y-53651985I-1672334J-1078608D01*
G01*
X46321129Y-53807664D02*
G75*
G03*
X44239040Y-53807501I-1041129J-1079836D01*
G01*
X44239040Y-55967499D02*
G75*
G03*
X46321129Y-55967336I1040960J1079999D01*
G01*
X43720001Y-56123015D02*
G75*
G03*
X46952334Y-55966108I1559999J1235515D01*
G01*
%TO.C,D1*%
X10495000Y-4075000D02*
X11145000Y-4075000D01*
X11145000Y-2955000D02*
X11145000Y-5195000D01*
X11145000Y-5195000D02*
X15385000Y-5195000D01*
X11745000Y-2955000D02*
X11745000Y-5195000D01*
X11865000Y-2955000D02*
X11865000Y-5195000D01*
X11985000Y-2955000D02*
X11985000Y-5195000D01*
X15385000Y-2955000D02*
X11145000Y-2955000D01*
X15385000Y-5195000D02*
X15385000Y-2955000D01*
X16035000Y-4075000D02*
X15385000Y-4075000D01*
%TO.C,SW_NXT1*%
X19875000Y-51750000D02*
X19875000Y-50250000D01*
X18625000Y-47750000D02*
X14125000Y-47750000D01*
X14125000Y-54250000D02*
X18625000Y-54250000D01*
X12875000Y-50250000D02*
X12875000Y-51750000D01*
%TO.C,D12*%
X50005000Y-19050000D02*
X50655000Y-19050000D01*
X50655000Y-17930000D02*
X50655000Y-20170000D01*
X50655000Y-20170000D02*
X54895000Y-20170000D01*
X51255000Y-17930000D02*
X51255000Y-20170000D01*
X51375000Y-17930000D02*
X51375000Y-20170000D01*
X51495000Y-17930000D02*
X51495000Y-20170000D01*
X54895000Y-17930000D02*
X50655000Y-17930000D01*
X54895000Y-20170000D02*
X54895000Y-17930000D01*
X55545000Y-19050000D02*
X54895000Y-19050000D01*
%TO.C,SW_PRV1*%
X9550000Y-51750000D02*
X9550000Y-50250000D01*
X8300000Y-47750000D02*
X3800000Y-47750000D01*
X3800000Y-54250000D02*
X8300000Y-54250000D01*
X2550000Y-50250000D02*
X2550000Y-51750000D01*
%TO.C,SW_BCK1*%
X40175000Y-51800000D02*
X40175000Y-50300000D01*
X38925000Y-47800000D02*
X34425000Y-47800000D01*
X34425000Y-54300000D02*
X38925000Y-54300000D01*
X33175000Y-50300000D02*
X33175000Y-51800000D01*
%TD*%
M02*
