%TF.GenerationSoftware,KiCad,Pcbnew,7.0.8*%
%TF.CreationDate,2024-02-04T18:47:10+02:00*%
%TF.ProjectId,QL_MDV_Control,514c5f4d-4456-45f4-936f-6e74726f6c2e,rev?*%
%TF.SameCoordinates,PX62a23e8PY5bc46e8*%
%TF.FileFunction,Copper,L1,Top*%
%TF.FilePolarity,Positive*%
%FSLAX46Y46*%
G04 Gerber Fmt 4.6, Leading zero omitted, Abs format (unit mm)*
G04 Created by KiCad (PCBNEW 7.0.8) date 2024-02-04 18:47:10*
%MOMM*%
%LPD*%
G01*
G04 APERTURE LIST*
G04 Aperture macros list*
%AMRoundRect*
0 Rectangle with rounded corners*
0 $1 Rounding radius*
0 $2 $3 $4 $5 $6 $7 $8 $9 X,Y pos of 4 corners*
0 Add a 4 corners polygon primitive as box body*
4,1,4,$2,$3,$4,$5,$6,$7,$8,$9,$2,$3,0*
0 Add four circle primitives for the rounded corners*
1,1,$1+$1,$2,$3*
1,1,$1+$1,$4,$5*
1,1,$1+$1,$6,$7*
1,1,$1+$1,$8,$9*
0 Add four rect primitives between the rounded corners*
20,1,$1+$1,$2,$3,$4,$5,0*
20,1,$1+$1,$4,$5,$6,$7,0*
20,1,$1+$1,$6,$7,$8,$9,0*
20,1,$1+$1,$8,$9,$2,$3,0*%
G04 Aperture macros list end*
%TA.AperFunction,SMDPad,CuDef*%
%ADD10RoundRect,0.250000X0.450000X-0.262500X0.450000X0.262500X-0.450000X0.262500X-0.450000X-0.262500X0*%
%TD*%
%TA.AperFunction,SMDPad,CuDef*%
%ADD11RoundRect,0.150000X0.150000X-0.825000X0.150000X0.825000X-0.150000X0.825000X-0.150000X-0.825000X0*%
%TD*%
%TA.AperFunction,ComponentPad*%
%ADD12R,2.000000X2.000000*%
%TD*%
%TA.AperFunction,SMDPad,CuDef*%
%ADD13RoundRect,0.250000X0.262500X0.450000X-0.262500X0.450000X-0.262500X-0.450000X0.262500X-0.450000X0*%
%TD*%
%TA.AperFunction,ComponentPad*%
%ADD14R,1.600000X1.800000*%
%TD*%
%TA.AperFunction,ComponentPad*%
%ADD15O,1.600000X2.300000*%
%TD*%
%TA.AperFunction,ComponentPad*%
%ADD16O,1.800000X2.300000*%
%TD*%
%TA.AperFunction,ComponentPad*%
%ADD17O,1.900000X2.300000*%
%TD*%
%TA.AperFunction,ComponentPad*%
%ADD18R,1.700000X2.000000*%
%TD*%
%TA.AperFunction,ComponentPad*%
%ADD19O,1.700000X2.300000*%
%TD*%
%TA.AperFunction,ViaPad*%
%ADD20C,0.800000*%
%TD*%
%TA.AperFunction,Conductor*%
%ADD21C,0.250000*%
%TD*%
%TA.AperFunction,Conductor*%
%ADD22C,0.500000*%
%TD*%
%TA.AperFunction,Conductor*%
%ADD23C,0.450000*%
%TD*%
G04 APERTURE END LIST*
D10*
%TO.P,R1,1*%
%TO.N,Net-(U1G-VCC)*%
X2377500Y-11187500D03*
%TO.P,R1,2*%
%TO.N,Net-(J2-Pin_1)*%
X2377500Y-9362500D03*
%TD*%
D11*
%TO.P,U2,1*%
%TO.N,Net-(U1-Pad2)*%
X4442500Y-9012500D03*
%TO.P,U2,2*%
%TO.N,Net-(J2-TOQL1-Pin_1)*%
X5712500Y-9012500D03*
%TO.P,U2,3*%
%TO.N,Net-(J1-TOMDV1-Pin_1)*%
X6982500Y-9012500D03*
%TO.P,U2,4*%
%TO.N,Net-(U1-Pad2)*%
X8252500Y-9012500D03*
%TO.P,U2,5*%
%TO.N,Net-(J1-TOMDV1-Pin_2)*%
X9522500Y-9012500D03*
%TO.P,U2,6*%
%TO.N,Net-(J2-TOQL1-Pin_2)*%
X10792500Y-9012500D03*
%TO.P,U2,7,GND*%
%TO.N,Net-(J1-TOMDV1-Pin_7)*%
X12062500Y-9012500D03*
%TO.P,U2,8*%
%TO.N,Net-(J1-TOMDV1-Pin_3)*%
X12062500Y-4062500D03*
%TO.P,U2,9*%
%TO.N,Net-(J2-TOQL1-Pin_3)*%
X10792500Y-4062500D03*
%TO.P,U2,10*%
%TO.N,Net-(U1-Pad2)*%
X9522500Y-4062500D03*
%TO.P,U2,11*%
%TO.N,Net-(J2-TOQL1-Pin_2)*%
X8252500Y-4062500D03*
%TO.P,U2,12*%
%TO.N,Net-(J2-TOQL1-Pin_1)*%
X6982500Y-4062500D03*
%TO.P,U2,13*%
%TO.N,Net-(J2-Pin_1)*%
X5712500Y-4062500D03*
%TO.P,U2,14,VCC*%
%TO.N,Net-(U1G-VCC)*%
X4442500Y-4062500D03*
%TD*%
D12*
%TO.P,J2,1,Pin_1*%
%TO.N,Net-(J2-Pin_1)*%
X2950000Y-13950000D03*
%TD*%
D13*
%TO.P,R2,1*%
%TO.N,Net-(J1-TOMDV1-Pin_7)*%
X16627500Y-10862500D03*
%TO.P,R2,2*%
%TO.N,Net-(J1-TOMDV1-Pin_2)*%
X14802500Y-10862500D03*
%TD*%
D11*
%TO.P,U1,1*%
%TO.N,Net-(J2-Pin_1)*%
X14337500Y-7787500D03*
%TO.P,U1,2*%
%TO.N,Net-(U1-Pad2)*%
X15607500Y-7787500D03*
%TO.P,U1,3*%
%TO.N,N/C*%
X16877500Y-7787500D03*
%TO.P,U1,4*%
X18147500Y-7787500D03*
%TO.P,U1,5*%
X19417500Y-7787500D03*
%TO.P,U1,6*%
X20687500Y-7787500D03*
%TO.P,U1,7,GND*%
%TO.N,Net-(J1-TOMDV1-Pin_7)*%
X21957500Y-7787500D03*
%TO.P,U1,8*%
%TO.N,N/C*%
X21957500Y-2837500D03*
%TO.P,U1,9*%
X20687500Y-2837500D03*
%TO.P,U1,10*%
X19417500Y-2837500D03*
%TO.P,U1,11*%
X18147500Y-2837500D03*
%TO.P,U1,12*%
X16877500Y-2837500D03*
%TO.P,U1,13*%
X15607500Y-2837500D03*
%TO.P,U1,14,VCC*%
%TO.N,Net-(U1G-VCC)*%
X14337500Y-2837500D03*
%TD*%
D14*
%TO.P,J2-TOQL1,1,Pin_1*%
%TO.N,Net-(J2-TOQL1-Pin_1)*%
X7790000Y-18175000D03*
D15*
%TO.P,J2-TOQL1,2,Pin_2*%
%TO.N,Net-(J2-TOQL1-Pin_2)*%
X10330000Y-18175000D03*
D16*
%TO.P,J2-TOQL1,3,Pin_3*%
%TO.N,Net-(J2-TOQL1-Pin_3)*%
X12870000Y-18175000D03*
D17*
%TO.P,J2-TOQL1,4,Pin_4*%
%TO.N,Net-(J1-TOMDV1-Pin_4)*%
X15410000Y-18175000D03*
%TO.P,J2-TOQL1,5,Pin_5*%
%TO.N,Net-(J1-TOMDV1-Pin_5)*%
X17950000Y-18175000D03*
%TO.P,J2-TOQL1,6,Pin_6*%
%TO.N,Net-(J1-TOMDV1-Pin_6)*%
X20490000Y-18175000D03*
%TO.P,J2-TOQL1,7,Pin_7*%
%TO.N,Net-(J1-TOMDV1-Pin_7)*%
X23030000Y-18175000D03*
%TD*%
D18*
%TO.P,J1-TOMDV1,1,Pin_1*%
%TO.N,Net-(J1-TOMDV1-Pin_1)*%
X7795000Y-13800000D03*
D15*
%TO.P,J1-TOMDV1,2,Pin_2*%
%TO.N,Net-(J1-TOMDV1-Pin_2)*%
X10335000Y-13800000D03*
%TO.P,J1-TOMDV1,3,Pin_3*%
%TO.N,Net-(J1-TOMDV1-Pin_3)*%
X12875000Y-13800000D03*
D19*
%TO.P,J1-TOMDV1,4,Pin_4*%
%TO.N,Net-(J1-TOMDV1-Pin_4)*%
X15415000Y-13800000D03*
%TO.P,J1-TOMDV1,5,Pin_5*%
%TO.N,Net-(J1-TOMDV1-Pin_5)*%
X17955000Y-13800000D03*
%TO.P,J1-TOMDV1,6,Pin_6*%
%TO.N,Net-(J1-TOMDV1-Pin_6)*%
X20495000Y-13800000D03*
%TO.P,J1-TOMDV1,7,Pin_7*%
%TO.N,Net-(J1-TOMDV1-Pin_7)*%
X23035000Y-13800000D03*
%TD*%
D20*
%TO.N,Net-(J1-TOMDV1-Pin_2)*%
X13625000Y-10975000D03*
X10925000Y-11000000D03*
%TO.N,Net-(J1-TOMDV1-Pin_3)*%
X13025000Y-10150000D03*
X13152500Y-8262500D03*
%TO.N,Net-(J1-TOMDV1-Pin_7)*%
X23302500Y-10662500D03*
X16125000Y-9312500D03*
%TO.N,Net-(J2-Pin_1)*%
X5727500Y-6437500D03*
X14277500Y-6337500D03*
X2452500Y-8000000D03*
%TO.N,Net-(U1-Pad2)*%
X4850000Y-7750000D03*
X8077500Y-7162000D03*
%TO.N,Net-(U1G-VCC)*%
X17202500Y-5837500D03*
%TD*%
D21*
%TO.N,Net-(J1-TOMDV1-Pin_1)*%
X7797500Y-11932500D02*
X6982500Y-11117500D01*
X7795000Y-11935000D02*
X7795000Y-13800000D01*
X7797500Y-11932500D02*
X7795000Y-11935000D01*
X6982500Y-11117500D02*
X6982500Y-9012500D01*
D22*
X7795000Y-13800000D02*
X7750000Y-13755000D01*
D21*
%TO.N,Net-(J1-TOMDV1-Pin_2)*%
X14802500Y-10862500D02*
X14802500Y-11212500D01*
X14690000Y-10975000D02*
X14802500Y-10862500D01*
X10902750Y-11127750D02*
X9447250Y-9672250D01*
X10335000Y-13800000D02*
X10335000Y-11590000D01*
X10790000Y-13345000D02*
X10335000Y-13800000D01*
X9522500Y-9857500D02*
X9522500Y-9012500D01*
X9402500Y-9132500D02*
X9522500Y-9012500D01*
X10335000Y-11590000D02*
X10925000Y-11000000D01*
X13575000Y-10975000D02*
X14690000Y-10975000D01*
%TO.N,Net-(J1-TOMDV1-Pin_3)*%
X13152500Y-8262500D02*
X12062500Y-7172500D01*
X13025000Y-10150000D02*
X13025000Y-10499695D01*
X12950000Y-14250000D02*
X12950000Y-10650000D01*
X12062500Y-7172500D02*
X12062500Y-4062500D01*
D23*
%TO.N,Net-(J1-TOMDV1-Pin_7)*%
X16125000Y-9312500D02*
X17027500Y-9312500D01*
X12362500Y-9312500D02*
X16125000Y-9312500D01*
D22*
X22677500Y-10037500D02*
X23302500Y-10662500D01*
D21*
X12062500Y-9012500D02*
X12362500Y-9312500D01*
X16627500Y-9712500D02*
X17027500Y-9312500D01*
D22*
X22677500Y-8507500D02*
X21957500Y-7787500D01*
D21*
X16627500Y-10862500D02*
X16627500Y-9712500D01*
D23*
X21407500Y-9312500D02*
X21957500Y-8762500D01*
X17027500Y-9312500D02*
X21407500Y-9312500D01*
D21*
X21957500Y-8762500D02*
X21957500Y-7787500D01*
D22*
X22677500Y-8507500D02*
X22677500Y-10037500D01*
D21*
%TO.N,Net-(J2-TOQL1-Pin_1)*%
X6982500Y-6207805D02*
X6982500Y-4062500D01*
X7790000Y-18175000D02*
X5710000Y-16095000D01*
X5710000Y-16095000D02*
X5710000Y-8425000D01*
X5712500Y-7477805D02*
X6982500Y-6207805D01*
X5712500Y-9012500D02*
X5712500Y-7477805D01*
%TO.N,Net-(J2-TOQL1-Pin_2)*%
X8970000Y-16815000D02*
X10330000Y-18175000D01*
X9965000Y-6750000D02*
X10792500Y-7577500D01*
X8897500Y-7817500D02*
X8897500Y-11327500D01*
X8970000Y-11400000D02*
X8970000Y-16815000D01*
X8252500Y-5037500D02*
X9965000Y-6750000D01*
X8970000Y-11211752D02*
X8970000Y-11400000D01*
X8897500Y-11327500D02*
X8970000Y-11400000D01*
X9965000Y-6750000D02*
X8897500Y-7817500D01*
X8252500Y-4062500D02*
X8252500Y-5037500D01*
X10978000Y-9198000D02*
X10792500Y-9012500D01*
X10792500Y-7577500D02*
X10792500Y-9012500D01*
%TO.N,Net-(J2-TOQL1-Pin_3)*%
X11427500Y-4697500D02*
X10792500Y-4062500D01*
X11427500Y-4697500D02*
X11427500Y-10402500D01*
X11700000Y-17005000D02*
X11700000Y-10675000D01*
X12900000Y-18145000D02*
X12870000Y-18175000D01*
X11427500Y-10402500D02*
X11700000Y-10675000D01*
X12870000Y-18175000D02*
X11700000Y-17005000D01*
%TO.N,Net-(J2-Pin_1)*%
X2452500Y-8000000D02*
X2452500Y-9287500D01*
X2452500Y-9287500D02*
X2377500Y-9362500D01*
X5712500Y-4062500D02*
X5712500Y-6422500D01*
X14277500Y-6337500D02*
X14277500Y-7727500D01*
X5712500Y-6422500D02*
X5727500Y-6437500D01*
X14277500Y-7727500D02*
X14337500Y-7787500D01*
%TO.N,Net-(U1-Pad2)*%
X8077500Y-7162000D02*
X8077500Y-8837500D01*
X4442500Y-9012500D02*
X4442500Y-8147000D01*
X4442500Y-8147000D02*
X4727500Y-7862000D01*
X13652500Y-3837500D02*
X13652500Y-2965672D01*
X7607500Y-6692000D02*
X7607500Y-3060748D01*
X8077500Y-8837500D02*
X8252500Y-9012500D01*
X15607500Y-7787500D02*
X15607500Y-5895672D01*
X7905748Y-2762500D02*
X9197500Y-2762500D01*
X13600914Y-3889086D02*
X13652500Y-3837500D01*
X9197500Y-2762500D02*
X9522500Y-3087500D01*
X12824328Y-2137500D02*
X10472500Y-2137500D01*
X15607500Y-5895672D02*
X13600914Y-3889086D01*
X10472500Y-2137500D02*
X9522500Y-3087500D01*
X13652500Y-2965672D02*
X12824328Y-2137500D01*
X9522500Y-3087500D02*
X9522500Y-4062500D01*
X7607500Y-3060748D02*
X7905748Y-2762500D01*
X8077500Y-7162000D02*
X7607500Y-6692000D01*
D22*
%TO.N,Net-(U1G-VCC)*%
X5967500Y-1562500D02*
X13527500Y-1562500D01*
X13527500Y-2027500D02*
X14337500Y-2837500D01*
D21*
X3677500Y-9957500D02*
X3677500Y-4827500D01*
X2452500Y-11182500D02*
X3677500Y-9957500D01*
D22*
X14337500Y-3812500D02*
X14337500Y-2837500D01*
X17202500Y-5837500D02*
X16362500Y-5837500D01*
X13527500Y-1562500D02*
X13527500Y-2027500D01*
D21*
X3677500Y-4827500D02*
X4442500Y-4062500D01*
D22*
X16362500Y-5837500D02*
X14337500Y-3812500D01*
X4442500Y-3087500D02*
X5967500Y-1562500D01*
X4442500Y-4062500D02*
X4442500Y-3087500D01*
%TD*%
M02*
