%TF.GenerationSoftware,KiCad,Pcbnew,7.0.8*%
%TF.CreationDate,2024-02-04T18:47:10+02:00*%
%TF.ProjectId,QL_MDV_Control,514c5f4d-4456-45f4-936f-6e74726f6c2e,rev?*%
%TF.SameCoordinates,PX62a23e8PY5bc46e8*%
%TF.FileFunction,Copper,L2,Bot*%
%TF.FilePolarity,Positive*%
%FSLAX46Y46*%
G04 Gerber Fmt 4.6, Leading zero omitted, Abs format (unit mm)*
G04 Created by KiCad (PCBNEW 7.0.8) date 2024-02-04 18:47:10*
%MOMM*%
%LPD*%
G01*
G04 APERTURE LIST*
G04 Aperture macros list*
%AMFreePoly0*
4,1,9,3.862500,-0.866500,0.737500,-0.866500,0.737500,-0.450000,-0.737500,-0.450000,-0.737500,0.450000,0.737500,0.450000,0.737500,0.866500,3.862500,0.866500,3.862500,-0.866500,3.862500,-0.866500,$1*%
G04 Aperture macros list end*
%TA.AperFunction,ComponentPad*%
%ADD10R,2.000000X2.000000*%
%TD*%
%TA.AperFunction,ComponentPad*%
%ADD11R,1.600000X1.800000*%
%TD*%
%TA.AperFunction,ComponentPad*%
%ADD12O,1.600000X2.300000*%
%TD*%
%TA.AperFunction,ComponentPad*%
%ADD13O,1.800000X2.300000*%
%TD*%
%TA.AperFunction,ComponentPad*%
%ADD14O,1.900000X2.300000*%
%TD*%
%TA.AperFunction,ComponentPad*%
%ADD15R,1.700000X2.000000*%
%TD*%
%TA.AperFunction,ComponentPad*%
%ADD16O,1.700000X2.300000*%
%TD*%
%TA.AperFunction,SMDPad,CuDef*%
%ADD17R,2.260600X2.413000*%
%TD*%
%TA.AperFunction,SMDPad,CuDef*%
%ADD18R,0.900000X1.300000*%
%TD*%
%TA.AperFunction,SMDPad,CuDef*%
%ADD19FreePoly0,90.000000*%
%TD*%
%TA.AperFunction,SMDPad,CuDef*%
%ADD20R,2.413000X2.260600*%
%TD*%
%TA.AperFunction,ViaPad*%
%ADD21C,0.800000*%
%TD*%
%TA.AperFunction,Conductor*%
%ADD22C,0.500000*%
%TD*%
%TA.AperFunction,Conductor*%
%ADD23C,0.250000*%
%TD*%
%TA.AperFunction,Conductor*%
%ADD24C,1.000000*%
%TD*%
%TA.AperFunction,Conductor*%
%ADD25C,0.800000*%
%TD*%
G04 APERTURE END LIST*
D10*
%TO.P,J2,1,Pin_1*%
%TO.N,Net-(J2-Pin_1)*%
X2950000Y-13950000D03*
%TD*%
D11*
%TO.P,J2-TOQL1,1,Pin_1*%
%TO.N,Net-(J2-TOQL1-Pin_1)*%
X7790000Y-18175000D03*
D12*
%TO.P,J2-TOQL1,2,Pin_2*%
%TO.N,Net-(J2-TOQL1-Pin_2)*%
X10330000Y-18175000D03*
D13*
%TO.P,J2-TOQL1,3,Pin_3*%
%TO.N,Net-(J2-TOQL1-Pin_3)*%
X12870000Y-18175000D03*
D14*
%TO.P,J2-TOQL1,4,Pin_4*%
%TO.N,Net-(J1-TOMDV1-Pin_4)*%
X15410000Y-18175000D03*
%TO.P,J2-TOQL1,5,Pin_5*%
%TO.N,Net-(J1-TOMDV1-Pin_5)*%
X17950000Y-18175000D03*
%TO.P,J2-TOQL1,6,Pin_6*%
%TO.N,Net-(J1-TOMDV1-Pin_6)*%
X20490000Y-18175000D03*
%TO.P,J2-TOQL1,7,Pin_7*%
%TO.N,Net-(J1-TOMDV1-Pin_7)*%
X23030000Y-18175000D03*
%TD*%
D15*
%TO.P,J1-TOMDV1,1,Pin_1*%
%TO.N,Net-(J1-TOMDV1-Pin_1)*%
X7795000Y-13800000D03*
D12*
%TO.P,J1-TOMDV1,2,Pin_2*%
%TO.N,Net-(J1-TOMDV1-Pin_2)*%
X10335000Y-13800000D03*
%TO.P,J1-TOMDV1,3,Pin_3*%
%TO.N,Net-(J1-TOMDV1-Pin_3)*%
X12875000Y-13800000D03*
D16*
%TO.P,J1-TOMDV1,4,Pin_4*%
%TO.N,Net-(J1-TOMDV1-Pin_4)*%
X15415000Y-13800000D03*
%TO.P,J1-TOMDV1,5,Pin_5*%
%TO.N,Net-(J1-TOMDV1-Pin_5)*%
X17955000Y-13800000D03*
%TO.P,J1-TOMDV1,6,Pin_6*%
%TO.N,Net-(J1-TOMDV1-Pin_6)*%
X20495000Y-13800000D03*
%TO.P,J1-TOMDV1,7,Pin_7*%
%TO.N,Net-(J1-TOMDV1-Pin_7)*%
X23035000Y-13800000D03*
%TD*%
D17*
%TO.P,C2,1*%
%TO.N,Net-(U1G-VCC)*%
X21408600Y-3225000D03*
%TO.P,C2,2*%
%TO.N,Net-(J1-TOMDV1-Pin_7)*%
X17141400Y-3225000D03*
%TD*%
D18*
%TO.P,U3,1,GND*%
%TO.N,Net-(J1-TOMDV1-Pin_7)*%
X21927500Y-10362500D03*
D19*
%TO.P,U3,2,VO*%
%TO.N,Net-(U1G-VCC)*%
X20427500Y-10275000D03*
D18*
%TO.P,U3,3,VI*%
%TO.N,Net-(J1-TOMDV1-Pin_6)*%
X18927500Y-10362500D03*
%TD*%
D20*
%TO.P,C1,1*%
%TO.N,Net-(J1-TOMDV1-Pin_6)*%
X10250000Y-8767200D03*
%TO.P,C1,2*%
%TO.N,Net-(J1-TOMDV1-Pin_7)*%
X10250000Y-4500000D03*
%TD*%
D21*
%TO.N,Net-(J1-TOMDV1-Pin_2)*%
X13625000Y-10975000D03*
X10925000Y-11000000D03*
%TO.N,Net-(J1-TOMDV1-Pin_3)*%
X13025000Y-10150000D03*
X13152500Y-8262500D03*
%TO.N,Net-(J1-TOMDV1-Pin_7)*%
X23302500Y-10662500D03*
X16125000Y-9312500D03*
%TO.N,Net-(J2-Pin_1)*%
X5727500Y-6437500D03*
X14277500Y-6337500D03*
X2452500Y-8000000D03*
%TO.N,Net-(U1-Pad2)*%
X4850000Y-7750000D03*
X8077500Y-7162000D03*
%TO.N,Net-(U1G-VCC)*%
X17202500Y-5837500D03*
%TD*%
D22*
%TO.N,Net-(J1-TOMDV1-Pin_1)*%
X7795000Y-13800000D02*
X7795000Y-13330000D01*
D23*
%TO.N,Net-(J1-TOMDV1-Pin_2)*%
X10937500Y-10975000D02*
X13612500Y-10975000D01*
%TO.N,Net-(J1-TOMDV1-Pin_3)*%
X13152500Y-8262500D02*
X13152500Y-10022500D01*
X13152500Y-10022500D02*
X13025000Y-10150000D01*
X13077500Y-8337500D02*
X13152500Y-8262500D01*
D22*
%TO.N,Net-(J1-TOMDV1-Pin_4)*%
X15420000Y-13500000D02*
X15420000Y-18165000D01*
X15420000Y-18165000D02*
X15410000Y-18175000D01*
%TO.N,Net-(J1-TOMDV1-Pin_5)*%
X17960000Y-13500000D02*
X17960000Y-18165000D01*
X17960000Y-18165000D02*
X17950000Y-18175000D01*
%TO.N,Net-(J1-TOMDV1-Pin_6)*%
X10300000Y-11925000D02*
X18475000Y-11925000D01*
X20500000Y-18165000D02*
X20490000Y-18175000D01*
X19800000Y-12050000D02*
X20000000Y-12050000D01*
X20495000Y-13800000D02*
X20495000Y-12545000D01*
D24*
X18925000Y-11175000D02*
X19075000Y-11325000D01*
X19075000Y-11325000D02*
X19275000Y-11525000D01*
D23*
X9675000Y-9342200D02*
X10250000Y-8767200D01*
D24*
X19275000Y-11525000D02*
X19800000Y-12050000D01*
D22*
X9675000Y-11350000D02*
X9725000Y-11350000D01*
D23*
X10575000Y-8617200D02*
X10200000Y-8992200D01*
X19275000Y-11525000D02*
X18950000Y-11525000D01*
D24*
X20450000Y-12750000D02*
X19955000Y-12255000D01*
D22*
X9675000Y-11350000D02*
X9675000Y-9342200D01*
X18475000Y-11925000D02*
X19075000Y-11325000D01*
X9725000Y-11350000D02*
X10300000Y-11925000D01*
D24*
X20500000Y-13500000D02*
X20500000Y-18165000D01*
D25*
%TO.N,Net-(J1-TOMDV1-Pin_7)*%
X21927500Y-11487500D02*
X21927500Y-10362500D01*
D22*
X13315305Y-4350000D02*
X14440305Y-3225000D01*
D25*
X23037500Y-12597500D02*
X21927500Y-11487500D01*
X23002500Y-10362500D02*
X23302500Y-10662500D01*
D22*
X16125000Y-4241400D02*
X16125000Y-9312500D01*
D24*
X23030000Y-18175000D02*
X23030000Y-13805000D01*
D23*
X17141400Y-3225000D02*
X16125000Y-4241400D01*
D22*
X23030000Y-13805000D02*
X23035000Y-13800000D01*
X10575000Y-4350000D02*
X13315305Y-4350000D01*
X14440305Y-3225000D02*
X17141400Y-3225000D01*
D25*
X21927500Y-10362500D02*
X23002500Y-10362500D01*
D23*
%TO.N,Net-(J2-Pin_1)*%
X5027500Y-7137500D02*
X2452500Y-7137500D01*
X1225000Y-12225000D02*
X1225000Y-9227500D01*
X5727500Y-6437500D02*
X14177500Y-6437500D01*
X14177500Y-6437500D02*
X14277500Y-6337500D01*
X5727500Y-6437500D02*
X5027500Y-7137500D01*
X1225000Y-9227500D02*
X2452500Y-8000000D01*
X2452500Y-7137500D02*
X2452500Y-8000000D01*
X2950000Y-13950000D02*
X1225000Y-12225000D01*
%TO.N,Net-(U1-Pad2)*%
X6371802Y-7368198D02*
X6578000Y-7162000D01*
X4727500Y-7862000D02*
X4939396Y-7862000D01*
X5433198Y-7368198D02*
X6371802Y-7368198D01*
X6578000Y-7162000D02*
X8077500Y-7162000D01*
X4939396Y-7862000D02*
X5433198Y-7368198D01*
D22*
%TO.N,Net-(U1G-VCC)*%
X20327500Y-10175000D02*
X20427500Y-10275000D01*
X17202500Y-5837500D02*
X20327500Y-5837500D01*
X21408600Y-4756400D02*
X20327500Y-5837500D01*
X21408600Y-3225000D02*
X21408600Y-4756400D01*
X20327500Y-5837500D02*
X20327500Y-10175000D01*
%TD*%
M02*
