%TF.GenerationSoftware,KiCad,Pcbnew,7.0.8*%
%TF.CreationDate,2024-02-04T18:47:11+02:00*%
%TF.ProjectId,QL_MDV_Control,514c5f4d-4456-45f4-936f-6e74726f6c2e,rev?*%
%TF.SameCoordinates,PX62a23e8PY5bc46e8*%
%TF.FileFunction,Legend,Bot*%
%TF.FilePolarity,Positive*%
%FSLAX46Y46*%
G04 Gerber Fmt 4.6, Leading zero omitted, Abs format (unit mm)*
G04 Created by KiCad (PCBNEW 7.0.8) date 2024-02-04 18:47:11*
%MOMM*%
%LPD*%
G01*
G04 APERTURE LIST*
%ADD10C,0.150000*%
%ADD11C,0.152400*%
%ADD12C,0.120000*%
G04 APERTURE END LIST*
D10*
X19040332Y91895D02*
X19118428Y13799D01*
X19118428Y13799D02*
X19352713Y-64296D01*
X19352713Y-64296D02*
X19508904Y-64296D01*
X19508904Y-64296D02*
X19743190Y13799D01*
X19743190Y13799D02*
X19899380Y169990D01*
X19899380Y169990D02*
X19977475Y326180D01*
X19977475Y326180D02*
X20055571Y638561D01*
X20055571Y638561D02*
X20055571Y872847D01*
X20055571Y872847D02*
X19977475Y1185228D01*
X19977475Y1185228D02*
X19899380Y1341419D01*
X19899380Y1341419D02*
X19743190Y1497609D01*
X19743190Y1497609D02*
X19508904Y1575704D01*
X19508904Y1575704D02*
X19352713Y1575704D01*
X19352713Y1575704D02*
X19118428Y1497609D01*
X19118428Y1497609D02*
X19040332Y1419514D01*
X18415571Y1419514D02*
X18337475Y1497609D01*
X18337475Y1497609D02*
X18181285Y1575704D01*
X18181285Y1575704D02*
X17790809Y1575704D01*
X17790809Y1575704D02*
X17634618Y1497609D01*
X17634618Y1497609D02*
X17556523Y1419514D01*
X17556523Y1419514D02*
X17478428Y1263323D01*
X17478428Y1263323D02*
X17478428Y1107133D01*
X17478428Y1107133D02*
X17556523Y872847D01*
X17556523Y872847D02*
X18493666Y-64296D01*
X18493666Y-64296D02*
X17478428Y-64296D01*
X23382319Y-7650595D02*
X24191842Y-7650595D01*
X24191842Y-7650595D02*
X24287080Y-7698214D01*
X24287080Y-7698214D02*
X24334700Y-7745833D01*
X24334700Y-7745833D02*
X24382319Y-7841071D01*
X24382319Y-7841071D02*
X24382319Y-8031547D01*
X24382319Y-8031547D02*
X24334700Y-8126785D01*
X24334700Y-8126785D02*
X24287080Y-8174404D01*
X24287080Y-8174404D02*
X24191842Y-8222023D01*
X24191842Y-8222023D02*
X23382319Y-8222023D01*
X23382319Y-8602976D02*
X23382319Y-9222023D01*
X23382319Y-9222023D02*
X23763271Y-8888690D01*
X23763271Y-8888690D02*
X23763271Y-9031547D01*
X23763271Y-9031547D02*
X23810890Y-9126785D01*
X23810890Y-9126785D02*
X23858509Y-9174404D01*
X23858509Y-9174404D02*
X23953747Y-9222023D01*
X23953747Y-9222023D02*
X24191842Y-9222023D01*
X24191842Y-9222023D02*
X24287080Y-9174404D01*
X24287080Y-9174404D02*
X24334700Y-9126785D01*
X24334700Y-9126785D02*
X24382319Y-9031547D01*
X24382319Y-9031547D02*
X24382319Y-8745833D01*
X24382319Y-8745833D02*
X24334700Y-8650595D01*
X24334700Y-8650595D02*
X24287080Y-8602976D01*
X14756305Y-5852267D02*
X14834401Y-5774171D01*
X14834401Y-5774171D02*
X14912496Y-5539886D01*
X14912496Y-5539886D02*
X14912496Y-5383695D01*
X14912496Y-5383695D02*
X14834401Y-5149409D01*
X14834401Y-5149409D02*
X14678210Y-4993219D01*
X14678210Y-4993219D02*
X14522020Y-4915124D01*
X14522020Y-4915124D02*
X14209639Y-4837028D01*
X14209639Y-4837028D02*
X13975353Y-4837028D01*
X13975353Y-4837028D02*
X13662972Y-4915124D01*
X13662972Y-4915124D02*
X13506781Y-4993219D01*
X13506781Y-4993219D02*
X13350591Y-5149409D01*
X13350591Y-5149409D02*
X13272496Y-5383695D01*
X13272496Y-5383695D02*
X13272496Y-5539886D01*
X13272496Y-5539886D02*
X13350591Y-5774171D01*
X13350591Y-5774171D02*
X13428686Y-5852267D01*
X14912496Y-7414171D02*
X14912496Y-6477028D01*
X14912496Y-6945600D02*
X13272496Y-6945600D01*
X13272496Y-6945600D02*
X13506781Y-6789409D01*
X13506781Y-6789409D02*
X13662972Y-6633219D01*
X13662972Y-6633219D02*
X13741067Y-6477028D01*
D11*
%TO.C,C2*%
X23948600Y-2844000D02*
X23948600Y-3606000D01*
X23567600Y-3225000D02*
X24329600Y-3225000D01*
X22373800Y-4926800D02*
X16176200Y-4926800D01*
X22373800Y-4774400D02*
X22373800Y-4926800D01*
X22373800Y-1523200D02*
X22373800Y-1675600D01*
X16176200Y-4926800D02*
X16176200Y-4774400D01*
X16176200Y-1675600D02*
X16176200Y-1523200D01*
X16176200Y-1523200D02*
X22373800Y-1523200D01*
D12*
%TO.C,U3*%
X22557500Y-10912500D02*
X22557500Y-9772500D01*
X18067500Y-9772500D02*
X18297500Y-9772500D01*
X22787500Y-9772500D02*
X22557500Y-9772500D01*
X22787500Y-9772500D02*
X22787500Y-7052500D01*
X18067500Y-7052500D02*
X18067500Y-9772500D01*
X19377500Y-7052500D02*
X18067500Y-7052500D01*
X22787500Y-7052500D02*
X21477500Y-7052500D01*
D11*
%TO.C,C1*%
X10631000Y-11307200D02*
X9869000Y-11307200D01*
X10250000Y-10926200D02*
X10250000Y-11688200D01*
X8548200Y-9732400D02*
X8548200Y-3534800D01*
X8700600Y-9732400D02*
X8548200Y-9732400D01*
X11951800Y-9732400D02*
X11799400Y-9732400D01*
X8548200Y-3534800D02*
X8700600Y-3534800D01*
X11799400Y-3534800D02*
X11951800Y-3534800D01*
X11951800Y-3534800D02*
X11951800Y-9732400D01*
%TD*%
M02*
