%TF.GenerationSoftware,KiCad,Pcbnew,7.0.8*%
%TF.CreationDate,2024-02-04T18:47:10+02:00*%
%TF.ProjectId,QL_MDV_Control,514c5f4d-4456-45f4-936f-6e74726f6c2e,rev?*%
%TF.SameCoordinates,PX62a23e8PY5bc46e8*%
%TF.FileFunction,Legend,Top*%
%TF.FilePolarity,Positive*%
%FSLAX46Y46*%
G04 Gerber Fmt 4.6, Leading zero omitted, Abs format (unit mm)*
G04 Created by KiCad (PCBNEW 7.0.8) date 2024-02-04 18:47:10*
%MOMM*%
%LPD*%
G01*
G04 APERTURE LIST*
%ADD10C,0.150000*%
%ADD11C,0.120000*%
G04 APERTURE END LIST*
D10*
X31593922Y-69819D02*
X31927255Y-1069819D01*
X31927255Y-1069819D02*
X32260588Y-69819D01*
X33022493Y-1022200D02*
X32927255Y-1069819D01*
X32927255Y-1069819D02*
X32736779Y-1069819D01*
X32736779Y-1069819D02*
X32641541Y-1022200D01*
X32641541Y-1022200D02*
X32593922Y-974580D01*
X32593922Y-974580D02*
X32546303Y-879342D01*
X32546303Y-879342D02*
X32546303Y-593628D01*
X32546303Y-593628D02*
X32593922Y-498390D01*
X32593922Y-498390D02*
X32641541Y-450771D01*
X32641541Y-450771D02*
X32736779Y-403152D01*
X32736779Y-403152D02*
X32927255Y-403152D01*
X32927255Y-403152D02*
X33022493Y-450771D01*
X33879636Y-1022200D02*
X33784398Y-1069819D01*
X33784398Y-1069819D02*
X33593922Y-1069819D01*
X33593922Y-1069819D02*
X33498684Y-1022200D01*
X33498684Y-1022200D02*
X33451065Y-974580D01*
X33451065Y-974580D02*
X33403446Y-879342D01*
X33403446Y-879342D02*
X33403446Y-593628D01*
X33403446Y-593628D02*
X33451065Y-498390D01*
X33451065Y-498390D02*
X33498684Y-450771D01*
X33498684Y-450771D02*
X33593922Y-403152D01*
X33593922Y-403152D02*
X33784398Y-403152D01*
X33784398Y-403152D02*
X33879636Y-450771D01*
X1182319Y-10441666D02*
X706128Y-10774999D01*
X1182319Y-11013094D02*
X182319Y-11013094D01*
X182319Y-11013094D02*
X182319Y-10632142D01*
X182319Y-10632142D02*
X229938Y-10536904D01*
X229938Y-10536904D02*
X277557Y-10489285D01*
X277557Y-10489285D02*
X372795Y-10441666D01*
X372795Y-10441666D02*
X515652Y-10441666D01*
X515652Y-10441666D02*
X610890Y-10489285D01*
X610890Y-10489285D02*
X658509Y-10536904D01*
X658509Y-10536904D02*
X706128Y-10632142D01*
X706128Y-10632142D02*
X706128Y-11013094D01*
X1182319Y-9489285D02*
X1182319Y-10060713D01*
X1182319Y-9774999D02*
X182319Y-9774999D01*
X182319Y-9774999D02*
X325176Y-9870237D01*
X325176Y-9870237D02*
X420414Y-9965475D01*
X420414Y-9965475D02*
X468033Y-10060713D01*
X2427319Y-7299404D02*
X3236842Y-7299404D01*
X3236842Y-7299404D02*
X3332080Y-7251785D01*
X3332080Y-7251785D02*
X3379700Y-7204166D01*
X3379700Y-7204166D02*
X3427319Y-7108928D01*
X3427319Y-7108928D02*
X3427319Y-6918452D01*
X3427319Y-6918452D02*
X3379700Y-6823214D01*
X3379700Y-6823214D02*
X3332080Y-6775595D01*
X3332080Y-6775595D02*
X3236842Y-6727976D01*
X3236842Y-6727976D02*
X2427319Y-6727976D01*
X2522557Y-6299404D02*
X2474938Y-6251785D01*
X2474938Y-6251785D02*
X2427319Y-6156547D01*
X2427319Y-6156547D02*
X2427319Y-5918452D01*
X2427319Y-5918452D02*
X2474938Y-5823214D01*
X2474938Y-5823214D02*
X2522557Y-5775595D01*
X2522557Y-5775595D02*
X2617795Y-5727976D01*
X2617795Y-5727976D02*
X2713033Y-5727976D01*
X2713033Y-5727976D02*
X2855890Y-5775595D01*
X2855890Y-5775595D02*
X3427319Y-6347023D01*
X3427319Y-6347023D02*
X3427319Y-5727976D01*
X4734819Y-14283333D02*
X5449104Y-14283333D01*
X5449104Y-14283333D02*
X5591961Y-14330952D01*
X5591961Y-14330952D02*
X5687200Y-14426190D01*
X5687200Y-14426190D02*
X5734819Y-14569047D01*
X5734819Y-14569047D02*
X5734819Y-14664285D01*
X4830057Y-13854761D02*
X4782438Y-13807142D01*
X4782438Y-13807142D02*
X4734819Y-13711904D01*
X4734819Y-13711904D02*
X4734819Y-13473809D01*
X4734819Y-13473809D02*
X4782438Y-13378571D01*
X4782438Y-13378571D02*
X4830057Y-13330952D01*
X4830057Y-13330952D02*
X4925295Y-13283333D01*
X4925295Y-13283333D02*
X5020533Y-13283333D01*
X5020533Y-13283333D02*
X5163390Y-13330952D01*
X5163390Y-13330952D02*
X5734819Y-13902380D01*
X5734819Y-13902380D02*
X5734819Y-13283333D01*
X15548333Y-12967319D02*
X15215000Y-12491128D01*
X14976905Y-12967319D02*
X14976905Y-11967319D01*
X14976905Y-11967319D02*
X15357857Y-11967319D01*
X15357857Y-11967319D02*
X15453095Y-12014938D01*
X15453095Y-12014938D02*
X15500714Y-12062557D01*
X15500714Y-12062557D02*
X15548333Y-12157795D01*
X15548333Y-12157795D02*
X15548333Y-12300652D01*
X15548333Y-12300652D02*
X15500714Y-12395890D01*
X15500714Y-12395890D02*
X15453095Y-12443509D01*
X15453095Y-12443509D02*
X15357857Y-12491128D01*
X15357857Y-12491128D02*
X14976905Y-12491128D01*
X15929286Y-12062557D02*
X15976905Y-12014938D01*
X15976905Y-12014938D02*
X16072143Y-11967319D01*
X16072143Y-11967319D02*
X16310238Y-11967319D01*
X16310238Y-11967319D02*
X16405476Y-12014938D01*
X16405476Y-12014938D02*
X16453095Y-12062557D01*
X16453095Y-12062557D02*
X16500714Y-12157795D01*
X16500714Y-12157795D02*
X16500714Y-12253033D01*
X16500714Y-12253033D02*
X16453095Y-12395890D01*
X16453095Y-12395890D02*
X15881667Y-12967319D01*
X15881667Y-12967319D02*
X16500714Y-12967319D01*
X12322319Y-6074404D02*
X13131842Y-6074404D01*
X13131842Y-6074404D02*
X13227080Y-6026785D01*
X13227080Y-6026785D02*
X13274700Y-5979166D01*
X13274700Y-5979166D02*
X13322319Y-5883928D01*
X13322319Y-5883928D02*
X13322319Y-5693452D01*
X13322319Y-5693452D02*
X13274700Y-5598214D01*
X13274700Y-5598214D02*
X13227080Y-5550595D01*
X13227080Y-5550595D02*
X13131842Y-5502976D01*
X13131842Y-5502976D02*
X12322319Y-5502976D01*
X13322319Y-4502976D02*
X13322319Y-5074404D01*
X13322319Y-4788690D02*
X12322319Y-4788690D01*
X12322319Y-4788690D02*
X12465176Y-4883928D01*
X12465176Y-4883928D02*
X12560414Y-4979166D01*
X12560414Y-4979166D02*
X12608033Y-5074404D01*
X4919819Y-17633333D02*
X5634104Y-17633333D01*
X5634104Y-17633333D02*
X5776961Y-17680952D01*
X5776961Y-17680952D02*
X5872200Y-17776190D01*
X5872200Y-17776190D02*
X5919819Y-17919047D01*
X5919819Y-17919047D02*
X5919819Y-18014285D01*
X5919819Y-16633333D02*
X5919819Y-17204761D01*
X5919819Y-16919047D02*
X4919819Y-16919047D01*
X4919819Y-16919047D02*
X5062676Y-17014285D01*
X5062676Y-17014285D02*
X5157914Y-17109523D01*
X5157914Y-17109523D02*
X5205533Y-17204761D01*
X5538866Y-16204761D02*
X5538866Y-15442857D01*
X4919819Y-15109523D02*
X4919819Y-14538095D01*
X5919819Y-14823809D02*
X4919819Y-14823809D01*
X4919819Y-14014285D02*
X4919819Y-13823809D01*
X4919819Y-13823809D02*
X4967438Y-13728571D01*
X4967438Y-13728571D02*
X5062676Y-13633333D01*
X5062676Y-13633333D02*
X5253152Y-13585714D01*
X5253152Y-13585714D02*
X5586485Y-13585714D01*
X5586485Y-13585714D02*
X5776961Y-13633333D01*
X5776961Y-13633333D02*
X5872200Y-13728571D01*
X5872200Y-13728571D02*
X5919819Y-13823809D01*
X5919819Y-13823809D02*
X5919819Y-14014285D01*
X5919819Y-14014285D02*
X5872200Y-14109523D01*
X5872200Y-14109523D02*
X5776961Y-14204761D01*
X5776961Y-14204761D02*
X5586485Y-14252380D01*
X5586485Y-14252380D02*
X5253152Y-14252380D01*
X5253152Y-14252380D02*
X5062676Y-14204761D01*
X5062676Y-14204761D02*
X4967438Y-14109523D01*
X4967438Y-14109523D02*
X4919819Y-14014285D01*
X5919819Y-13157142D02*
X4919819Y-13157142D01*
X4919819Y-13157142D02*
X5634104Y-12823809D01*
X5634104Y-12823809D02*
X4919819Y-12490476D01*
X4919819Y-12490476D02*
X5919819Y-12490476D01*
X5919819Y-12014285D02*
X4919819Y-12014285D01*
X4919819Y-12014285D02*
X4919819Y-11776190D01*
X4919819Y-11776190D02*
X4967438Y-11633333D01*
X4967438Y-11633333D02*
X5062676Y-11538095D01*
X5062676Y-11538095D02*
X5157914Y-11490476D01*
X5157914Y-11490476D02*
X5348390Y-11442857D01*
X5348390Y-11442857D02*
X5491247Y-11442857D01*
X5491247Y-11442857D02*
X5681723Y-11490476D01*
X5681723Y-11490476D02*
X5776961Y-11538095D01*
X5776961Y-11538095D02*
X5872200Y-11633333D01*
X5872200Y-11633333D02*
X5919819Y-11776190D01*
X5919819Y-11776190D02*
X5919819Y-12014285D01*
X4919819Y-11157142D02*
X5919819Y-10823809D01*
X5919819Y-10823809D02*
X4919819Y-10490476D01*
X5919819Y-9633333D02*
X5919819Y-10204761D01*
X5919819Y-9919047D02*
X4919819Y-9919047D01*
X4919819Y-9919047D02*
X5062676Y-10014285D01*
X5062676Y-10014285D02*
X5157914Y-10109523D01*
X5157914Y-10109523D02*
X5205533Y-10204761D01*
D11*
%TO.C,R1*%
X1642500Y-10502064D02*
X1642500Y-10047936D01*
X3112500Y-10502064D02*
X3112500Y-10047936D01*
%TO.C,U2*%
X3817500Y-6537500D02*
X3817500Y-9987500D01*
X3817500Y-6537500D02*
X3817500Y-4587500D01*
X12687500Y-6537500D02*
X12687500Y-8487500D01*
X12687500Y-6537500D02*
X12687500Y-4587500D01*
%TO.C,J2*%
X4280000Y-12620000D02*
X4280000Y-13950000D01*
X2950000Y-12620000D02*
X4280000Y-12620000D01*
X1680000Y-12620000D02*
X1620000Y-12620000D01*
X1680000Y-12620000D02*
X1680000Y-15280000D01*
X1620000Y-12620000D02*
X1620000Y-15280000D01*
X1680000Y-15280000D02*
X1620000Y-15280000D01*
%TO.C,R2*%
X15942064Y-11597500D02*
X15487936Y-11597500D01*
X15942064Y-10127500D02*
X15487936Y-10127500D01*
%TO.C,U1*%
X13712500Y-5312500D02*
X13712500Y-8762500D01*
X13712500Y-5312500D02*
X13712500Y-3362500D01*
X22582500Y-5312500D02*
X22582500Y-7262500D01*
X22582500Y-5312500D02*
X22582500Y-3362500D01*
%TO.C,J2-TOQL1*%
X6460000Y-19505000D02*
X6460000Y-18175000D01*
X7790000Y-19505000D02*
X6460000Y-19505000D01*
X9060000Y-19505000D02*
X24360000Y-19505000D01*
X9060000Y-19505000D02*
X9060000Y-16845000D01*
X24360000Y-19505000D02*
X24360000Y-16845000D01*
X9060000Y-16845000D02*
X24360000Y-16845000D01*
%TO.C,J1-TOMDV1*%
X6465000Y-15130000D02*
X6465000Y-13800000D01*
X7795000Y-15130000D02*
X6465000Y-15130000D01*
X9065000Y-15130000D02*
X24365000Y-15130000D01*
X9065000Y-15130000D02*
X9065000Y-12470000D01*
X24365000Y-15130000D02*
X24365000Y-12470000D01*
X9065000Y-12470000D02*
X24365000Y-12470000D01*
%TD*%
M02*
